<svg xmlns="http://www.w3.org/2000/svg" width="552" height="552"><style>.shp0{fill:#4f7df0}.shp1{fill:#c4d3d7}.shp2{fill:#fff}.shp3{fill:#ec007b}.shp4{fill:#adb9d6}.shp5{fill:#e1e0fe}.shp6{fill:#466eef}.shp8{fill:#fec240}</style><g id="Layer"><g id="Layer"><g id="Layer"><path id="Layer" class="shp0" d="M216.3 318.9L195 340.2l6.3 6.3 21.3-21.3-6.3-6.3zm123.8-123.8L320 215.2l6.3 6.3 20.1-20.1-6.3-6.3z"/><path id="Layer" class="shp1" d="M201.8 115.2c-11.3 0-22.5 4.3-31.1 12.9l-41.5 41.5c-.4.4-.8.8-1.1 1.2.4-.4.7-.8 1.1-1.2l20.5-20.5c-.3.3-22.5 22.9 20.4 69.7l76.7-76.7-14-14c-8.5-8.6-19.8-12.9-31-12.9z"/><path id="Layer" class="shp2" d="M259.3 154.5l-76.8 76.8 146.4 146.4 76.8-76.8-79.5-79.5-6.3-6.3-60.6-60.6z"/><path id="Layer" class="shp1" d="M405.8 301l-76.9 76.8 55.7 31 .3.2 43.1-43.1-22.2-64.9"/><path id="Layer" class="shp2" d="M444.3 443.2l36.1 36.1-36.1-36.1zm36.1 39c.7 0 1.5-.3 2-.8 1.1-1.1 1.1-2.9 0-4l-36.1-36.1c-1.1-1.1-2.9-1.1-4 0s-1.1 2.9 0 4l36.1 36.1c.6.5 1.3.8 2 .8z"/><path id="Layer" class="shp0" d="M428.4 365.4L384.9 409l17.3 17.3 43.1-43.1h.1l.4-.4-17.4-17.4"/><path id="Layer" fill-rule="evenodd" class="shp1" d="M445.3 383.2l-43.1 43.1 11.1 35.9 68.3-68.3-36.3-10.7zm-61 61.1l10.7 36.3-10.7-36.3z"/><path id="Layer" class="shp0" d="M481.7 394l-68.3 68.3 11.9 11.9-18.4 18.3-11.9-11.9 11.9 11.9 86.7-86.6-11.9-11.9"/><path id="Layer" class="shp3" d="M488.8 471.1c4.6 4.6 4.6 12 0 16.6-4.6 4.6-12 4.6-16.6 0-4.6-4.6-4.6-12 0-16.6 4.6-4.6 12-4.6 16.6 0z"/><path id="Layer" fill-rule="evenodd" class="shp3" d="M140.2 261.4c1.7 1.6 3.9 2.4 6.1 2.4-2.2.1-4.4-.7-6.1-2.4zm-2.7-6.4c0 2.3.9 4.5 2.6 6.2-1.7-1.6-2.6-3.9-2.6-6.2zm124.8-115.9c1.7 1.7 2.6 3.9 2.6 6.2 0 2.2-.9 4.5-2.6 6.2l-79.8 79.8-6.2-6.2c-2.2-2.2-4.2-4.3-6.1-6.4l79.7-79.7c1.7-1.7 3.9-2.6 6.2-2.6 2.3 0 4.5.9 6.2 2.7zM152.4 261.4zm-6.1 2.5zm6.2-2.6s0 .1 0 0zm0 .1zm3.1-3.1l-3 3 3-3z"/><path id="Layer" class="shp1" d="M320.2 249c.7 0 1.5-.3 2-.8 1.1-1.1 1.1-2.9 0-4L259.1 181c-1.1-1.1-2.9-1.1-4 0s-1.1 2.9 0 4l63.1 63.1c.6.7 1.3.9 2 .9z"/><path id="Layer" class="shp5" d="M128 170.8c-16 17.2-15.7 44.1 1 60.9-16.6-16.8-17-43.7-1-60.9z"/><path id="Layer" class="shp4" d="M149.7 149.1l-20.5 20.5c-.4.4-.8.8-1.1 1.2-16 17.2-15.7 44.1 1 60.9l.2.2 14 14 27-27c-43.1-46.9-20.9-69.5-20.6-69.8z"/><path id="Layer" fill-rule="evenodd" class="shp5" d="M367 426.9l-.4.4 17.4 17.4.4-.4v-.1L367 426.9zm17.9-17.9L367 426.9l17.9-17.9zm-162.3-83.8l79.5 79.5-79.5-79.5zm-67-66.9l60.7 60.7-60.7-60.7z"/><path id="Layer" class="shp6" d="M216.3 318.9l6.3 6.3-6.3-6.3"/><path id="Layer" class="shp5" d="M182.5 231.4l-26.9 26.9 60.7 60.7 6.3 6.3 79.5 79.5 26.9-26.9c-.2-.3-93.6-93.7-146.5-146.5z"/><path id="Layer" class="shp4" d="M328.9 377.8L302 404.7l65 22.2 17.9-17.9-.3-.2-55.7-31"/><path id="Layer" class="shp6" d="M384.9 409L367 426.9l17.3 17.4 17.9-18-17.3-17.3"/><path id="Layer" class="shp4" d="M402.2 426.3l-17.9 18 10.7 36.3 18.4-18.3-11.2-35.9v-.1"/><path id="Layer" class="shp6" d="M413.4 462.3L395 480.6l11.9 11.9 18.4-18.3-11.9-11.9"/><path id="Layer" fill-rule="evenodd" class="shp5" d="M152.4 261.5zm-6.1 2.4zm6.1-2.5zm.1 0zm-12.4-.1c.1.1.1.1 0 0zm12.4 0z"/><path id="Layer" d="M170.1 218.8l-27 27-3 3c-1.7 1.7-2.6 4-2.6 6.2 0 2.3.9 4.5 2.6 6.2l.1.1.1.1c1.7 1.6 3.9 2.4 6.1 2.4 2.2 0 4.4-.8 6.1-2.4l3-3 26.9-26.9-6.2-6.2c-2.1-2.3-4.2-4.5-6.1-6.5z" fill="#d0007b"/><path id="Layer" class="shp0" d="M291.62 146.6l5.09-5.09 113.27 113.28-5.09 5.09L291.62 146.6zm23.49-23.5l5.09-5.09 113.28 113.27-5.09 5.09L315.11 123.1zm23.49-23.51l5.1-5.09 113.27 113.28-5.09 5.09L338.6 99.59zm23.52-23.45l5.09-5.09 113.28 113.28-5.09 5.09L362.12 76.14zm23.38-23.53l5.09-5.09L503.87 160.8l-5.09 5.09L385.5 52.61zm23.52-23.46l5.1-5.09 113.26 113.29-5.09 5.09L409.02 29.15zm23.49-23.49L437.6.57l113.28 113.27-5.09 5.09L432.51 5.66z"/><path id="Layer" class="shp0" d="M291.59 146.59L437.68.51l5.09 5.09-146.09 146.08-5.09-5.09zm21.7 21.71L459.38 22.21l5.09 5.09-146.09 146.09-5.09-5.09zm21.67 21.65L481.05 43.87l5.09 5.09-146.08 146.09-5.1-5.1zm21.7 21.71L502.75 65.57l5.09 5.09-146.09 146.09-5.09-5.09zm21.7 21.7L524.45 87.28l5.09 5.09-146.09 146.08-5.09-5.09zm21.72 21.76l146.09-146.09 5.09 5.09-146.09 146.09-5.09-5.09zM.29 437.79l5.09-5.09 113.28 113.28-5.09 5.09L.29 437.79zm23.49-23.45l5.09-5.09 113.28 113.28-5.09 5.09L23.78 414.34zm23.5-23.5l5.09-5.09 113.27 113.27-5.09 5.09L47.28 390.84zm23.49-23.5l5.09-5.1 113.28 113.28-5.09 5.09L70.77 367.34zm23.49-23.56l5.09-5.09 113.28 113.28-5.09 5.09L94.26 343.78zm23.56-23.43l5.09-5.09 113.28 113.28-5.09 5.09-113.28-113.28zm23.5-23.5l5.09-5.09 113.27 113.28-5.09 5.09-113.27-113.28z"/><path id="Layer" class="shp0" d="M.26 437.83l146.09-146.08 5.09 5.09L5.35 442.93l-5.09-5.1zm21.77 21.78l146.09-146.09 5.09 5.1L27.12 464.7l-5.09-5.09zm21.69 21.74l146.11-146.06 5.09 5.09L48.81 486.44l-5.09-5.09zm21.71 21.67l146.08-146.09 5.09 5.1L70.52 508.11l-5.09-5.09zm21.7 21.76l146.08-146.09 5.09 5.09L92.22 529.87l-5.09-5.09zm21.76 21.53l146.09-146.09 5.09 5.09L113.98 551.4l-5.09-5.09zM82.7 87.3c0 3.3 2.7 6 6 6s6-2.7 6-6-2.7-6-6-6-6 2.7-6 6zm424.9 149.1c0 3.3 2.7 6 6 6s6-2.7 6-6-2.7-6-6-6-6 2.7-6 6z"/><path id="Layer" class="shp8" d="M529.3 362.2c0 3.3 2.7 6 6 6s6-2.7 6-6-2.7-6-6-6-6 2.7-6 6zM86.8 291.8c0 3.3 2.7 6 6 6s6-2.7 6-6-2.7-6-6-6c-3.3-.1-6 2.6-6 6zm194-224.1c.3 0 .6-.1.8-.3.4-.4.4-1.2 0-1.6l-9-9c-.4-.4-1.2-.4-1.6 0-.4.4-.4 1.2 0 1.6l9 9c.3.2.5.3.8.3z"/><path id="Layer" class="shp8" d="M271.9 67.7c.3 0 .6-.1.8-.3l9-9c.4-.4.4-1.2 0-1.6-.4-.4-1.2-.4-1.6 0l-9 9c-.4.4-.4 1.2 0 1.6.2.2.5.3.8.3z"/><path id="Layer" class="shp0" d="M301.7 509.8c.3 0 .6-.1.8-.3.4-.4.4-1.2 0-1.6l-9-9c-.4-.4-1.2-.4-1.6 0-.4.4-.4 1.2 0 1.6l9 9c.3.2.6.3.8.3z"/><path id="Layer" class="shp0" d="M292.8 509.8c.3 0 .6-.1.8-.3l9-9c.4-.4.4-1.2 0-1.6-.4-.4-1.2-.4-1.6 0l-9 9c-.4.4-.4 1.2 0 1.6.2.2.5.3.8.3z"/></g></g></g></svg>