<svg xmlns="http://www.w3.org/2000/svg" viewBox="0 0 552 552" width="552" height="552">
	<style>
		tspan { white-space:pre }
		.shp0 { fill: #4f7df0 } 
		.shp1 { fill: #c4d3d7 } 
		.shp2 { fill: #ffffff } 
		.shp3 { fill: #ec007b } 
		.shp4 { fill: #adb9d6 } 
		.shp5 { fill: #e1e0fe } 
		.shp6 { fill: #466eef } 
		.shp7 { fill: #d0007b } 
		.shp8 { fill: #fec240 } 
	</style>
	<g id="Layer">
		<g id="Layer">
			<g id="Layer">
				<path id="Layer" class="shp0" d="M216.3 318.9L195 340.2L201.3 346.5L222.6 325.2L216.3 318.9ZM340.1 195.1L320 215.2L326.3 221.5L346.4 201.4L340.1 195.1Z" />
				<path id="Layer" class="shp1" d="M201.8 115.2C190.5 115.2 179.3 119.5 170.7 128.1L129.2 169.6C128.8 170 128.4 170.4 128.1 170.8C128.5 170.4 128.8 170 129.2 169.6L149.7 149.1L149.7 149.1L149.7 149.1C149.4 149.4 127.2 172 170.1 218.8L170.1 218.8L246.8 142.1L232.8 128.1C224.3 119.5 213 115.2 201.8 115.2Z" />
				<path id="Layer" class="shp2" d="M259.3 154.5L182.5 231.3C235.4 284.2 328.8 377.6 328.9 377.7L405.7 300.9L326.2 221.4L319.9 215.1L259.3 154.5Z" />
				<path id="Layer" class="shp1" d="M405.8 301L405.8 301L328.9 377.8L328.9 377.8L384.6 408.8L384.9 409L428 365.9L405.8 301" />
				<path id="Layer" class="shp2" d="M444.3 443.2L480.4 479.3L444.3 443.2Z" />
				<path id="Layer" class="shp2" d="M480.4 482.2C481.1 482.2 481.9 481.9 482.4 481.4C483.5 480.3 483.5 478.5 482.4 477.4L446.3 441.3C445.2 440.2 443.4 440.2 442.3 441.3C441.2 442.4 441.2 444.2 442.3 445.3L478.4 481.4C479 481.9 479.7 482.2 480.4 482.2Z" />
				<path id="Layer" class="shp0" d="M428.4 365.4L384.9 409L402.2 426.3L445.3 383.2L445.4 383.2L445.8 382.8L428.4 365.4" />
				<path id="Layer" fill-rule="evenodd" class="shp1" d="M445.3 383.2L402.2 426.3L402.2 426.3L413.3 462.2L481.6 393.9L445.3 383.2L445.3 383.2ZM384.3 444.3L384.3 444.3L395 480.6L384.3 444.3Z" />
				<path id="Layer" class="shp0" d="M481.7 394L481.7 394L413.4 462.3L413.4 462.3L425.3 474.2L406.9 492.5L395 480.6L406.9 492.5L493.6 405.9L481.7 394" />
				<path id="Layer" class="shp3" d="M488.8 471.1C493.4 475.7 493.4 483.1 488.8 487.7C484.2 492.3 476.8 492.3 472.2 487.7C467.6 483.1 467.6 475.7 472.2 471.1C476.8 466.5 484.2 466.5 488.8 471.1Z" />
				<path id="Layer" fill-rule="evenodd" class="shp3" d="M140.2 261.4C141.9 263 144.1 263.8 146.3 263.8C144.1 263.9 141.9 263.1 140.2 261.4ZM137.5 255C137.5 257.3 138.4 259.5 140.1 261.2C138.4 259.6 137.5 257.3 137.5 255ZM262.3 139.1C264 140.8 264.9 143 264.9 145.3C264.9 147.5 264 149.8 262.3 151.5L182.5 231.3C180.4 229.2 178.3 227.1 176.3 225.1C174.1 222.9 172.1 220.8 170.2 218.7L249.9 139C251.6 137.3 253.8 136.4 256.1 136.4C258.4 136.4 260.6 137.3 262.3 139.1ZM152.4 261.4L152.4 261.4ZM146.3 263.9L146.3 263.9L146.3 263.9ZM152.5 261.3C152.5 261.3 152.5 261.4 152.5 261.3ZM152.5 261.4L152.5 261.4ZM155.6 258.3L152.6 261.3L152.6 261.3L152.6 261.3L155.6 258.3Z" />
				<path id="Layer" class="shp1" d="M320.2 249C320.9 249 321.7 248.7 322.2 248.2C323.3 247.1 323.3 245.3 322.2 244.2L259.1 181C258 179.9 256.2 179.9 255.1 181C254 182.1 254 183.9 255.1 185L318.2 248.1C318.8 248.8 319.5 249 320.2 249Z" />
				<path id="Layer" class="shp4" d="M149.7 149.1L149.7 149.1L149.7 149.1" />
				<path id="Layer" class="shp5" d="M128 170.8C112 188 112.3 214.9 129 231.7C112.4 214.9 112 188 128 170.8Z" />
				<path id="Layer" class="shp4" d="M149.7 149.1L129.2 169.6C128.8 170 128.4 170.4 128.1 170.8C112.1 188 112.4 214.9 129.1 231.7C129.2 231.8 129.2 231.8 129.3 231.9L143.3 245.9L170.3 218.9L170.3 218.9C127.2 172 149.4 149.4 149.7 149.1Z" />
				<path id="Layer" fill-rule="evenodd" class="shp5" d="M367 426.9L366.6 427.3L384 444.7L384.4 444.3L384.4 444.2L367 426.9ZM384.9 409L367 426.9L384.9 409ZM222.6 325.2L222.6 325.2L302.1 404.7L222.6 325.2ZM155.6 258.3L155.6 258.3L216.3 319L216.3 319L155.6 258.3Z" />
				<path id="Layer" class="shp6" d="M216.3 318.9L216.3 318.9L222.6 325.2L222.6 325.2L216.3 318.9" />
				<path id="Layer" class="shp5" d="M182.5 231.4L155.6 258.3L216.3 319L222.6 325.3L302.1 404.8L329 377.9C328.8 377.6 235.4 284.2 182.5 231.4Z" />
				<path id="Layer" class="shp4" d="M328.9 377.8L302 404.7L367 426.9L384.9 409L384.6 408.8L328.9 377.8L328.9 377.8" />
				<path id="Layer" class="shp6" d="M384.9 409L367 426.9L384.3 444.3L402.2 426.3L384.9 409" />
				<path id="Layer" class="shp4" d="M402.2 426.3L384.3 444.3L384.3 444.3L384.3 444.3L395 480.6L413.4 462.3L402.2 426.4L402.2 426.3" />
				<path id="Layer" class="shp6" d="M413.4 462.3L395 480.6L406.9 492.5L425.3 474.2L413.4 462.3" />
				<path id="Layer" fill-rule="evenodd" class="shp5" d="M152.4 261.5C150.7 263.1 148.5 263.9 146.3 263.9C148.5 263.9 150.7 263.1 152.4 261.5ZM146.3 263.9L146.3 263.9L146.3 263.9ZM152.4 261.4L152.4 261.4ZM152.5 261.4L152.5 261.4ZM140.1 261.3C140.2 261.4 140.2 261.4 140.1 261.3ZM152.5 261.3L152.5 261.3Z" />
				<path id="Layer" class="shp7" d="M170.1 218.8L143.1 245.8L140.1 248.8C138.4 250.5 137.5 252.8 137.5 255C137.5 257.3 138.4 259.5 140.1 261.2C140.1 261.2 140.1 261.2 140.2 261.3L140.3 261.4C142 263 144.2 263.8 146.4 263.8L146.4 263.8L146.4 263.8C148.6 263.8 150.8 263 152.5 261.4L152.5 261.4L152.5 261.4L152.5 261.4L152.5 261.4L152.5 261.4L152.5 261.4L152.5 261.4L155.5 258.4L155.5 258.4L182.4 231.5C180.2 229.3 178.2 227.3 176.2 225.3C174.1 223 172 220.8 170.1 218.8Z" />
				<path id="Layer" class="shp0" d="M291.62 146.6L296.71 141.51L409.98 254.79L404.89 259.88L291.62 146.6Z" />
				<path id="Layer" class="shp0" d="M315.11 123.1L320.2 118.01L433.48 231.28L428.39 236.37L315.11 123.1Z" />
				<path id="Layer" class="shp0" d="M338.6 99.59L343.7 94.5L456.97 207.78L451.88 212.87L338.6 99.59Z" />
				<path id="Layer" class="shp0" d="M362.12 76.14L367.21 71.05L480.49 184.33L475.4 189.42L362.12 76.14Z" />
				<path id="Layer" class="shp0" d="M385.5 52.61L390.59 47.52L503.87 160.8L498.78 165.89L385.5 52.61Z" />
				<path id="Layer" class="shp0" d="M409.02 29.15L414.12 24.06L527.38 137.35L522.29 142.44L409.02 29.15Z" />
				<path id="Layer" class="shp0" d="M432.51 5.66L437.6 0.57L550.88 113.84L545.79 118.93L432.51 5.66Z" />
				<path id="Layer" class="shp0" d="M291.59 146.59L437.68 0.51L442.77 5.6L296.68 151.68L291.59 146.59Z" />
				<path id="Layer" class="shp0" d="M313.29 168.3L459.38 22.21L464.47 27.3L318.38 173.39L313.29 168.3Z" />
				<path id="Layer" class="shp0" d="M334.96 189.95L481.05 43.87L486.14 48.96L340.06 195.05L334.96 189.95Z" />
				<path id="Layer" class="shp0" d="M356.66 211.66L502.75 65.57L507.84 70.66L361.75 216.75L356.66 211.66Z" />
				<path id="Layer" class="shp0" d="M378.36 233.36L524.45 87.28L529.54 92.37L383.45 238.45L378.36 233.36Z" />
				<path id="Layer" class="shp0" d="M400.08 255.12L546.17 109.03L551.26 114.12L405.17 260.21L400.08 255.12Z" />
				<path id="Layer" class="shp0" d="M0.29 437.79L5.38 432.7L118.66 545.98L113.57 551.07L0.29 437.79Z" />
				<path id="Layer" class="shp0" d="M23.78 414.34L28.87 409.25L142.15 522.53L137.06 527.62L23.78 414.34Z" />
				<path id="Layer" class="shp0" d="M47.28 390.84L52.37 385.75L165.64 499.02L160.55 504.11L47.28 390.84Z" />
				<path id="Layer" class="shp0" d="M70.77 367.34L75.86 362.24L189.14 475.52L184.05 480.61L70.77 367.34Z" />
				<path id="Layer" class="shp0" d="M94.26 343.78L99.35 338.69L212.63 451.97L207.54 457.06L94.26 343.78Z" />
				<path id="Layer" class="shp0" d="M117.82 320.35L122.91 315.26L236.19 428.54L231.1 433.63L117.82 320.35Z" />
				<path id="Layer" class="shp0" d="M141.32 296.85L146.41 291.76L259.68 405.04L254.59 410.13L141.32 296.85Z" />
				<path id="Layer" class="shp0" d="M0.26 437.83L146.35 291.75L151.44 296.84L5.35 442.93L0.26 437.83Z" />
				<path id="Layer" class="shp0" d="M22.03 459.61L168.12 313.52L173.21 318.62L27.12 464.7L22.03 459.61Z" />
				<path id="Layer" class="shp0" d="M43.72 481.35L189.83 335.29L194.92 340.38L48.81 486.44L43.72 481.35Z" />
				<path id="Layer" class="shp0" d="M65.43 503.02L211.51 356.93L216.6 362.03L70.52 508.11L65.43 503.02Z" />
				<path id="Layer" class="shp0" d="M87.13 524.78L233.21 378.69L238.3 383.78L92.22 529.87L87.13 524.78Z" />
				<path id="Layer" class="shp0" d="M108.89 546.31L254.98 400.22L260.07 405.31L113.98 551.4L108.89 546.31Z" />
				<path id="Layer" class="shp0" d="M82.7 87.3C82.7 90.6 85.4 93.3 88.7 93.3C92 93.3 94.7 90.6 94.7 87.3C94.7 84 92 81.3 88.7 81.3C85.4 81.3 82.7 84 82.7 87.3Z" />
				<path id="Layer" class="shp0" d="M507.6 236.4C507.6 239.7 510.3 242.4 513.6 242.4C516.9 242.4 519.6 239.7 519.6 236.4C519.6 233.1 516.9 230.4 513.6 230.4C510.3 230.4 507.6 233.1 507.6 236.4Z" />
				<path id="Layer" class="shp8" d="M529.3 362.2C529.3 365.5 532 368.2 535.3 368.2C538.6 368.2 541.3 365.5 541.3 362.2C541.3 358.9 538.6 356.2 535.3 356.2C532 356.2 529.3 358.9 529.3 362.2Z" />
				<path id="Layer" class="shp8" d="M86.8 291.8C86.8 295.1 89.5 297.8 92.8 297.8C96.1 297.8 98.8 295.1 98.8 291.8C98.8 288.5 96.1 285.8 92.8 285.8C89.5 285.7 86.8 288.4 86.8 291.8Z" />
				<path id="Layer" class="shp8" d="M280.8 67.7C281.1 67.7 281.4 67.6 281.6 67.4C282 67 282 66.2 281.6 65.8L272.6 56.8C272.2 56.4 271.4 56.4 271 56.8C270.6 57.2 270.6 58 271 58.4L280 67.4C280.3 67.6 280.5 67.7 280.8 67.7Z" />
				<path id="Layer" class="shp8" d="M271.9 67.7C272.2 67.7 272.5 67.6 272.7 67.4L281.7 58.4C282.1 58 282.1 57.2 281.7 56.8C281.3 56.4 280.5 56.4 280.1 56.8L271.1 65.8C270.7 66.2 270.7 67 271.1 67.4C271.3 67.6 271.6 67.7 271.9 67.7Z" />
				<path id="Layer" class="shp0" d="M301.7 509.8C302 509.8 302.3 509.7 302.5 509.5C302.9 509.1 302.9 508.3 302.5 507.9L293.5 498.9C293.1 498.5 292.3 498.5 291.9 498.9C291.5 499.3 291.5 500.1 291.9 500.5L300.9 509.5C301.2 509.7 301.5 509.8 301.7 509.8Z" />
				<path id="Layer" class="shp0" d="M292.8 509.8C293.1 509.8 293.4 509.7 293.6 509.5L302.6 500.5C303 500.1 303 499.3 302.6 498.9C302.2 498.5 301.4 498.5 301 498.9L292 507.9C291.6 508.3 291.6 509.1 292 509.5C292.2 509.7 292.5 509.8 292.8 509.8Z" />
			</g>
		</g>
	</g>
</svg>