<?xml version="1.0" encoding="UTF-8"?>
<svg enable-background="new 0 0 168 110" version="1.1" viewBox="0 0 168 110" xml:space="preserve" xmlns="http://www.w3.org/2000/svg">
<style type="text/css">

</style>
<defs>
        <linearGradient id="gradient">
            <stop offset="0%" stop-color="#DE47EC"/>
            <stop offset="100%" stop-color="#75A8F9"/>
        </linearGradient>
</defs>
    <path fill="url(#gradient)" d="m121.22 44.212-34.899-3.3c-2.2-0.2-4.101-1.6-5-3.7l-12.5-30.3c-2-5-9.101-5-11.101 0l-12.4 30.3c-0.8 2.1-2.8 3.5-5 3.7l-34.9 3.3c-5.2 0.5-7.3 7-3.4 10.5l26.3 23.1c1.7 1.5 2.4 3.7 1.9 5.9l-7.9 32.399c-1.2 5.101 4.3 9.3 8.9 6.601l29.1-17.101c1.9-1.1 4.2-1.1 6.1 0l29.101 17.101c4.6 2.699 10.1-1.4 8.899-6.601l-7.8-32.399c-0.5-2.2 0.2-4.4 1.9-5.9l26.3-23.1c3.8-3.5 1.6-10-3.6-10.5z"/>

	<path class="st0" d="m100.5 88.3h-40.2c-6.6 0-12-5.4-12-12v-40.2c0-6.6 5.4-12 12-12h40.2c6.6 0 12 5.4 12 12v40.2c0 6.6-5.4 12-12 12z"/>
	<path class="st1" d="m99.6 55.2c-0.1-2 0-4 0-6v-3.8c-0.1-1 0.1-2.3-0.2-3.3s-1-1-2-1.1c-2.4-0.1-4.8 0-7.2 0-5.3 0-10.6-0.1-16-0.1-2.8 0-5.6 0.1-8.4 0.3-1 0.1-2.7-0.1-3.5 0.6-0.5 0.5-0.6 1.2-0.7 1.9-0.3 1.5-0.3 3-0.4 4.5-0.1 3.2-0.1 6.5-0.3 9.7-0.2 2.6-0.1 5.2 0 7.9 0 1.5-0.4 3.8 0.8 5 1.3 1.1 4 0.6 5.5 0.7 2.8 0.1 5.6 0.2 8.4 0.2 5.3 0.1 10.5-0.1 15.8 0.1 2 0.1 4.2 0 6.2-0.3 1.2-0.2 1.5-0.9 1.7-2 0.8-5 0.5-9.7 0.3-14.3zm-35.1-12.9c0.5 0 1-0.1 1.5-0.1 2-0.1 4-0.2 6.1-0.2h13.2 5.7c2 0 4.2-0.2 6.2 0 0.9 0.1 1 0.2 1.1 1.1 0.2 0.9 0.1 1.9 0.1 2.8v0.4c-11.9-0.4-23.9-0.5-35.8-0.1 0-0.7 0.1-1.3 0.2-2 0.1-1.2 0.4-1.8 1.7-1.9zm34.1 21.6c-0.1 1.6 0 3.2-0.1 4.9-0.1 1.2-0.6 1.1-1.6 1.3-1.1 0.2-2.2 0.3-3.3 0.3-4.1 0.1-8.3-0.1-12.4-0.1-4.9 0-9.8-0.1-14.7-0.3-1.5 0-3.9 0.2-4-1.8-0.1-1.1 0-2.2-0.1-3.3-0.1-2.4-0.1-4.8 0-7.2 0.2-3.5 0.1-7.1 0.3-10.6 12-0.4 23.9-0.3 35.9 0.1 0 1.7-0.1 3.3-0.1 5-0.1 3.9 0.2 7.8 0.1 11.7z"/>
	<path class="st1" d="m65.5 45.5c0.7-0.1 1.5-0.5 1.4-1.3-0.1-0.7-0.6-1.3-1.4-1.3-0.7 0-1.3 0.7-1.4 1.4-0.2 0.8 0.6 1.3 1.4 1.2zm-0.5-1.2c0.1-0.2 0.2-0.5 0.5-0.5 0.2 0 0.4 0.1 0.5 0.3 0.1 0.4-0.1 0.4-0.4 0.5h-0.4c-0.3-0.1-0.3-0.1-0.2-0.3z"/>
	<path class="st1" d="m69.2 45.5c0.8 0.1 1.4-0.5 1.5-1.3s-0.5-1.4-1.3-1.4c-0.7 0-1.5 0.5-1.5 1.2-0.1 0.8 0.5 1.4 1.3 1.5zm-0.5-1.5c0.1-0.3 0.4-0.4 0.6-0.4 0.3 0 0.5 0.2 0.4 0.5 0 0.3-0.3 0.6-0.6 0.5-0.2 0-0.4-0.3-0.4-0.6z"/>
	<path class="st1" d="m73.2 45.4c0.7 0 1.4-0.7 1.4-1.4s-0.7-1.4-1.4-1.4c-0.8 0-1.4 0.7-1.4 1.5-0.2 0.9 0.6 1.4 1.4 1.3zm-0.1-1.9c0.6 0 0.7 0.9 0.1 1-0.3 0-0.6-0.1-0.7-0.3 0-0.3 0.3-0.7 0.6-0.7z"/>
	<path class="st1" d="m75.5 51.1c-1.2-1-2.9-0.2-4 0.6-2.1 1.4-3.8 3.2-5.7 4.8-3 2.6 0.6 5.4 2.7 6.9 1.4 1 3.1 2.5 4.8 3 1.1 0.3 2.9-0.1 2.9-1.5 0.1-1.4-2.1-2.8-3-3.6-0.6-0.5-1.2-1-1.8-1.4-0.3-0.2-0.6-0.4-0.8-0.6-0.6-0.4-0.8-0.3-0.5-0.9 0.8-1.5 8.2-5 5.4-7.3zm-6.5 8.3c0.7 0.8 2.1 1.4 2.9 2.1 0.6 0.5 1.2 1.1 1.8 1.7 0.2 0.2 1 0.7 1.1 1 0.5 1.7-0.8 1.5-1.7 1.3 0.1-0.1 0.2-0.1 0.2-0.2 0.2-0.1 0.3-0.4 0.2-0.6s-0.4-0.3-0.6-0.2-0.3 0.3-0.5 0.4c-0.1 0-0.1 0.1-0.1 0.2l-0.6-0.3c0.1 0 0.1-0.1 0.2-0.1 0.5-0.3 0-1.1-0.4-0.8-0.2 0.1-0.4 0.3-0.5 0.4-0.2-0.1-0.4-0.3-0.6-0.5 0.1-0.1 0.2-0.1 0.4-0.2 0.5-0.3 0.1-1-0.4-0.8-0.2 0.1-0.5 0.2-0.7 0.4-0.1-0.1-0.3-0.2-0.4-0.3 0.1 0 0.1-0.1 0.2-0.1 0.5-0.3 0.1-1-0.4-0.8-0.2 0.1-0.3 0.2-0.5 0.3-0.2-0.2-0.4-0.3-0.6-0.5 0.1-0.1 0.2-0.2 0.4-0.2 0.2-0.1 0.3-0.4 0.2-0.6s-0.4-0.3-0.6-0.2-0.4 0.3-0.6 0.4c-0.2-0.1-0.3-0.3-0.5-0.4 0.1-0.1 0.3-0.2 0.4-0.3 0.5-0.3 0-1.1-0.4-0.8-0.2 0.1-0.4 0.2-0.6 0.4-0.2-0.3-0.4-0.6-0.5-0.9h0.4c0.6 0 0.6-0.9 0-0.9h-0.5c0.1-0.3 0.2-0.5 0.4-0.8l0.5 0.5c0.2 0.1 0.5 0 0.6-0.2s0-0.5-0.2-0.6l-0.4-0.4c0.1-0.1 0.3-0.2 0.4-0.4l0.5 0.5c0.1 0.2 0.5 0.2 0.6 0 0.2-0.2 0.1-0.4 0-0.6s-0.3-0.3-0.4-0.5l0.6-0.6c0.2 0.1 0.3 0.3 0.5 0.5 0.4 0.4 1-0.2 0.6-0.6-0.1-0.1-0.3-0.3-0.5-0.4 0.2-0.2 0.5-0.4 0.7-0.6 0.2 0.2 0.3 0.4 0.5 0.5 0.4 0.4 1-0.2 0.6-0.6-0.1-0.2-0.3-0.3-0.4-0.5l0.3-0.3c0.2-0.1 0.3-0.2 0.5-0.4 0.1 0.1 0.2 0.2 0.2 0.3 0.1 0.2 0.4 0.3 0.6 0.2s0.3-0.4 0.2-0.6c-0.1-0.1-0.2-0.3-0.3-0.4 0.2-0.1 0.4-0.3 0.6-0.4l0.4 0.4c0.4 0.4 1-0.2 0.6-0.6l-0.2-0.2c0.5-0.2 1-0.2 1.4 0.5 0.5 0.9 0 1.1-0.6 1.7-1.5 1.5-3.3 2.5-4.8 4-0.4 0.6-0.7 1.1-0.2 1.7z"/>
	<path class="st1" d="m92.3 53.8c-1.4-1-3.1-2.5-4.8-3-1.1-0.3-2.9 0.1-2.9 1.5-0.1 1.4 2.1 2.8 3 3.6 0.6 0.5 1.2 1 1.8 1.4 0.3 0.2 0.6 0.4 0.8 0.6 0.6 0.4 0.8 0.3 0.5 0.9-0.9 1.5-8.3 5-5.5 7.3 1.2 1 2.9 0.2 4-0.6 2.1-1.4 3.8-3.2 5.7-4.8 3.1-2.6-0.5-5.4-2.6-6.9zm2.1 6.3c-1.5 1.2-2.8 2.6-4.3 3.7-0.7 0.5-1.3 1.1-2 1.5-0.8 0.4-1.5 0.7-2-0.2-0.2-0.4-0.2-0.6-0.1-0.8 0.2 0.2 0.4 0.3 0.6 0.5 0.2 0.1 0.5 0 0.6-0.2s0-0.5-0.2-0.6-0.4-0.3-0.5-0.4l0.6-0.6 0.6 0.6c0.2 0.2 0.4 0.2 0.6 0s0.2-0.5 0-0.6l-0.5-0.5c0.2-0.2 0.4-0.3 0.6-0.5 0.2 0.2 0.4 0.5 0.6 0.7 0.4 0.4 1-0.2 0.6-0.6-0.2-0.2-0.3-0.4-0.5-0.6 0.2-0.1 0.4-0.3 0.5-0.4l0.5 0.5c0.2 0.2 0.5 0.2 0.6 0 0.2-0.2 0.2-0.4 0-0.6-0.1-0.1-0.2-0.3-0.4-0.4 0.2-0.2 0.5-0.4 0.7-0.6l0.3 0.3c0.4 0.4 1-0.2 0.6-0.6l-0.3-0.3c0.2-0.2 0.3-0.4 0.3-0.5h0.5c0.2 0 0.4-0.2 0.4-0.4 0-0.3-0.2-0.4-0.4-0.4h-0.8l-0.4-0.4c0.1-0.1 0.3-0.1 0.4-0.2 0.2-0.1 0.3-0.4 0.2-0.6s-0.4-0.3-0.6-0.2c-0.3 0.1-0.5 0.3-0.8 0.4-0.1-0.1-0.3-0.2-0.4-0.3 0.1-0.1 0.2-0.1 0.4-0.2s0.3-0.4 0.2-0.6-0.4-0.3-0.6-0.2-0.5 0.2-0.7 0.4h-0.1c-0.1-0.1-0.3-0.2-0.4-0.3-0.1 0-0.1-0.1-0.2-0.1 0.2-0.1 0.3-0.2 0.5-0.3s0.3-0.4 0.2-0.6-0.4-0.3-0.6-0.2c-0.3 0.1-0.5 0.3-0.8 0.4l-0.5-0.5c0.1-0.1 0.2-0.1 0.3-0.2 0.2-0.1 0.4-0.3 0.3-0.5s-0.3-0.4-0.5-0.3c-0.3 0.1-0.5 0.2-0.7 0.4-0.1-0.1-0.3-0.2-0.4-0.3 0.1-0.1 0.2-0.2 0.4-0.2 0.5-0.3 0.1-1-0.4-0.8-0.2 0.1-0.3 0.2-0.4 0.3-0.4-1.6 1.1-1.4 1.8-1.1 1.6 0.6 3.1 1.9 4.4 2.9 1.4 1.1 4.6 3.2 2.2 5.3z"/>
	<path class="st1" d="m81.5 50.6c-1.3 0-1.7 1.1-2 2.2-0.8 2.4-1.4 4.9-1.9 7.4-0.2 1.3-1.9 6.9 1.1 6.5 1.2-0.1 1.9-1.4 2.3-2.3 0.8-2.1 1.2-4.4 1.6-6.5 0.2-1.1 0.4-2.1 0.6-3.2 0.1-0.7 0.5-1.7 0.4-2.4-0.1-1.2-1-1.7-2.1-1.7zm0 8.2c-0.2 1-0.5 1.9-0.7 2.9-0.3 1.2-0.6 3.6-2.1 3.6-0.8 0-0.9-0.1-0.8-0.6 0.1 0 0.2 0.1 0.3 0.1 0.2 0.1 0.5-0.1 0.5-0.3 0.1-0.2-0.1-0.5-0.3-0.5-0.2-0.1-0.3-0.1-0.5-0.1 0-0.2 0-0.3 0.1-0.5 0.2 0 0.4 0.1 0.6 0.1 0.6 0 0.6-0.9 0-0.9-0.2 0-0.3 0-0.5-0.1v-0.3-0.1c0.2 0 0.4 0.1 0.6 0.1 0.6 0.1 0.8-0.7 0.2-0.9-0.2-0.1-0.4-0.1-0.7-0.1 0-0.3 0.1-0.5 0.1-0.8 0.3 0 0.5 0.1 0.7 0.2s0.5-0.1 0.5-0.3c0.1-0.2-0.1-0.5-0.3-0.5-0.3-0.1-0.5-0.2-0.8-0.2 0-0.2 0.1-0.4 0.1-0.6 0.2 0 0.4 0.1 0.6 0.1 0.6 0.1 0.8-0.7 0.2-0.9-0.2-0.1-0.4-0.1-0.7-0.2 0-0.2 0.1-0.4 0.1-0.6 0.1 0 0.3 0.1 0.4 0.1 0.6 0.1 0.8-0.7 0.2-0.9-0.2 0-0.3-0.1-0.5-0.1 0-0.1 0-0.2 0.1-0.3 0.2 0.1 0.5 0.1 0.7 0.2 0.2 0 0.5-0.1 0.5-0.3 0.1-0.2-0.1-0.5-0.3-0.5-0.3-0.1-0.5-0.1-0.8-0.2 0-0.2 0.1-0.4 0.1-0.5 0.2 0 0.3 0.1 0.5 0.1 0.5 0.1 0.8-0.7 0.2-0.9-0.2 0-0.3-0.1-0.5-0.1 0-0.1 0.1-0.2 0.1-0.3 0.2 0 0.3 0.1 0.5 0.1 0.2 0.1 0.5-0.1 0.5-0.3 0.1-0.2-0.1-0.5-0.3-0.5-0.1 0-0.3-0.1-0.4-0.1 0.1-0.1 0.1-0.3 0.2-0.4 0.1 0.1 0.3 0.1 0.4 0.1 0.2 0 0.5-0.1 0.5-0.3 0.1-0.2-0.1-0.5-0.3-0.5h-0.1c0.2-0.2 0.3-0.2 0.5-0.2 2.7 0 0.8 6.2 0.6 7.2z"/>

</svg>
