<svg aria-hidden="true" style="position: absolute; width: 0; height: 0; overflow: hidden;" version="1.1" xmlns="http://www.w3.org/2000/svg" xmlns:xlink="http://www.w3.org/1999/xlink">
<defs>
<symbol id="icon-favourites-filled-star-symbol" viewBox="0 0 32 32">
<path d="M30.607 11.164l-8.812-0.833c-0.555-0.050-1.036-0.404-1.263-0.934l-3.156-7.651c-0.505-1.263-2.298-1.263-2.803 0l-3.131 7.651c-0.202 0.53-0.707 0.884-1.263 0.934l-8.812 0.833c-1.313 0.126-1.843 1.768-0.859 2.651l6.641 5.833c0.429 0.379 0.606 0.934 0.48 1.49l-1.995 8.181c-0.303 1.288 1.086 2.348 2.247 1.667l7.348-4.318c0.48-0.278 1.061-0.278 1.54 0l7.348 4.318c1.162 0.681 2.55-0.354 2.247-1.667l-1.97-8.181c-0.126-0.555 0.050-1.111 0.48-1.49l6.641-5.833c0.96-0.884 0.404-2.525-0.909-2.651z"></path>
</symbol>
</defs>
</svg>
