<svg aria-hidden="true" style="position: absolute; width: 0; height: 0; overflow: hidden;" version="1.1" xmlns="http://www.w3.org/2000/svg" xmlns:xlink="http://www.w3.org/1999/xlink">

<defs>
<symbol id="icon-icon-code" viewBox="0 0 49 32">
<path d="M29.236 25.687h-11.695c-1.92 0-3.491-1.571-3.491-3.491v-11.695c0-1.92 1.571-3.491 3.491-3.491h11.695c1.92 0 3.491 1.571 3.491 3.491v11.695c0 1.92-1.571 3.491-3.491 3.491z"></path>
<path d="M28.975 16.058c-0.029-0.582 0-1.164 0-1.745 0-0.378 0-0.756 0-1.105-0.029-0.291 0.029-0.669-0.058-0.96s-0.291-0.291-0.582-0.32c-0.698-0.029-1.396 0-2.095 0-1.542 0-3.084-0.029-4.655-0.029-0.815 0-1.629 0.029-2.444 0.087-0.291 0.029-0.785-0.029-1.018 0.175-0.145 0.145-0.175 0.349-0.204 0.553-0.087 0.436-0.087 0.873-0.116 1.309-0.029 0.931-0.029 1.891-0.087 2.822-0.058 0.756-0.029 1.513 0 2.298 0 0.436-0.116 1.105 0.233 1.455 0.378 0.32 1.164 0.175 1.6 0.204 0.815 0.029 1.629 0.058 2.444 0.058 1.542 0.029 3.055-0.029 4.596 0.029 0.582 0.029 1.222 0 1.804-0.087 0.349-0.058 0.436-0.262 0.495-0.582 0.233-1.455 0.145-2.822 0.087-4.16zM18.764 12.305c0.145 0 0.291-0.029 0.436-0.029 0.582-0.029 1.164-0.058 1.775-0.058 1.28 0 2.56 0 3.84 0 0.553 0 1.105 0 1.658 0 0.582 0 1.222-0.058 1.804 0 0.262 0.029 0.291 0.058 0.32 0.32 0.058 0.262 0.029 0.553 0.029 0.815 0 0.029 0 0.087 0 0.116-3.462-0.116-6.953-0.145-10.415-0.029 0-0.204 0.029-0.378 0.058-0.582 0.029-0.349 0.116-0.524 0.495-0.553zM28.684 18.589c-0.029 0.465 0 0.931-0.029 1.425-0.029 0.349-0.175 0.32-0.465 0.378-0.32 0.058-0.64 0.087-0.96 0.087-1.193 0.029-2.415-0.029-3.607-0.029-1.425 0-2.851-0.029-4.276-0.087-0.436 0-1.135 0.058-1.164-0.524-0.029-0.32 0-0.64-0.029-0.96-0.029-0.698-0.029-1.396 0-2.095 0.058-1.018 0.029-2.065 0.087-3.084 3.491-0.116 6.953-0.087 10.444 0.029 0 0.495-0.029 0.96-0.029 1.455-0.029 1.135 0.058 2.269 0.029 3.404z"></path>
<path d="M19.055 13.236c0.204-0.029 0.436-0.145 0.407-0.378-0.029-0.204-0.175-0.378-0.407-0.378-0.204 0-0.378 0.204-0.407 0.407-0.058 0.233 0.175 0.378 0.407 0.349zM18.909 12.887c0.029-0.058 0.058-0.145 0.145-0.145 0.058 0 0.116 0.029 0.145 0.087 0.029 0.116-0.029 0.116-0.116 0.145-0.058 0-0.087 0-0.116 0-0.087-0.029-0.087-0.029-0.058-0.087z"></path>
<path d="M20.131 13.236c0.233 0.029 0.407-0.145 0.436-0.378s-0.145-0.407-0.378-0.407c-0.204 0-0.436 0.145-0.436 0.349-0.029 0.233 0.145 0.407 0.378 0.436zM19.985 12.8c0.029-0.087 0.116-0.116 0.175-0.116 0.087 0 0.145 0.058 0.116 0.145 0 0.087-0.087 0.175-0.175 0.145-0.058 0-0.116-0.087-0.116-0.175z"></path>
<path d="M21.295 13.207c0.204 0 0.407-0.204 0.407-0.407s-0.204-0.407-0.407-0.407c-0.233 0-0.407 0.204-0.407 0.436-0.058 0.262 0.175 0.407 0.407 0.378zM21.265 12.655c0.175 0 0.204 0.262 0.029 0.291-0.087 0-0.175-0.029-0.204-0.087 0-0.087 0.087-0.204 0.175-0.204z"></path>
<path d="M21.964 14.865c-0.349-0.291-0.844-0.058-1.164 0.175-0.611 0.407-1.105 0.931-1.658 1.396-0.873 0.756 0.175 1.571 0.785 2.007 0.407 0.291 0.902 0.727 1.396 0.873 0.32 0.087 0.844-0.029 0.844-0.436 0.029-0.407-0.611-0.815-0.873-1.047-0.175-0.145-0.349-0.291-0.524-0.407-0.087-0.058-0.175-0.116-0.233-0.175-0.175-0.116-0.233-0.087-0.145-0.262 0.233-0.436 2.385-1.455 1.571-2.124zM20.073 17.28c0.204 0.233 0.611 0.407 0.844 0.611 0.175 0.145 0.349 0.32 0.524 0.495 0.058 0.058 0.291 0.204 0.32 0.291 0.145 0.495-0.233 0.436-0.495 0.378 0.029-0.029 0.058-0.029 0.058-0.058 0.058-0.029 0.087-0.116 0.058-0.175s-0.116-0.087-0.175-0.058c-0.058 0.029-0.087 0.087-0.145 0.116-0.029 0-0.029 0.029-0.029 0.058-0.058-0.029-0.116-0.058-0.175-0.087 0.029 0 0.029-0.029 0.058-0.029 0.145-0.087 0-0.32-0.116-0.233-0.058 0.029-0.116 0.087-0.145 0.116-0.058-0.029-0.116-0.087-0.175-0.145 0.029-0.029 0.058-0.029 0.116-0.058 0.145-0.087 0.029-0.291-0.116-0.233-0.058 0.029-0.145 0.058-0.204 0.116-0.029-0.029-0.087-0.058-0.116-0.087 0.029 0 0.029-0.029 0.058-0.029 0.145-0.087 0.029-0.291-0.116-0.233-0.058 0.029-0.087 0.058-0.145 0.087-0.058-0.058-0.116-0.087-0.175-0.145 0.029-0.029 0.058-0.058 0.116-0.058 0.058-0.029 0.087-0.116 0.058-0.175s-0.116-0.087-0.175-0.058c-0.058 0.029-0.116 0.087-0.175 0.116-0.058-0.029-0.087-0.087-0.145-0.116 0.029-0.029 0.087-0.058 0.116-0.087 0.145-0.087 0-0.32-0.116-0.233-0.058 0.029-0.116 0.058-0.175 0.116-0.058-0.087-0.116-0.175-0.145-0.262 0.029 0 0.087 0 0.116 0 0.175 0 0.175-0.262 0-0.262-0.058 0-0.087 0-0.145 0 0.029-0.087 0.058-0.145 0.116-0.233 0.058 0.058 0.087 0.087 0.145 0.145 0.058 0.029 0.145 0 0.175-0.058s0-0.145-0.058-0.175c0.029 0.029-0.029-0.029-0.029-0.029-0.029-0.029-0.029-0.029-0.058-0.058 0 0-0.029-0.029-0.029-0.029 0.029-0.029 0.087-0.058 0.116-0.116 0.058 0.058 0.087 0.087 0.145 0.145 0.029 0.058 0.145 0.058 0.175 0 0.058-0.058 0.029-0.116 0-0.175s-0.087-0.087-0.116-0.145c0.058-0.058 0.116-0.116 0.175-0.175 0.058 0.029 0.087 0.087 0.145 0.145 0.116 0.116 0.291-0.058 0.175-0.175-0.029-0.029-0.087-0.087-0.145-0.116 0.058-0.058 0.145-0.116 0.204-0.175 0.058 0.058 0.087 0.116 0.145 0.145 0.116 0.116 0.291-0.058 0.175-0.175-0.029-0.058-0.087-0.087-0.116-0.145 0.029-0.029 0.058-0.058 0.087-0.087 0.058-0.029 0.087-0.058 0.145-0.116 0.029 0.029 0.058 0.058 0.058 0.087 0.029 0.058 0.116 0.087 0.175 0.058s0.087-0.116 0.058-0.175c-0.029-0.029-0.058-0.087-0.087-0.116 0.058-0.029 0.116-0.087 0.175-0.116 0 0 0 0 0 0 0.029 0.029 0.087 0.087 0.116 0.116 0.116 0.116 0.291-0.058 0.175-0.175-0.029-0.029-0.029-0.029-0.058-0.058 0.145-0.058 0.291-0.058 0.407 0.145 0.145 0.262 0 0.32-0.175 0.495-0.436 0.436-0.96 0.727-1.396 1.164-0.116 0.175-0.204 0.32-0.058 0.495z"></path>
<path d="M26.851 15.651c-0.407-0.291-0.902-0.727-1.396-0.873-0.32-0.087-0.844 0.029-0.844 0.436-0.029 0.407 0.611 0.815 0.873 1.047 0.175 0.145 0.349 0.291 0.524 0.407 0.087 0.058 0.175 0.116 0.233 0.175 0.175 0.116 0.233 0.087 0.145 0.262-0.262 0.436-2.415 1.455-1.6 2.124 0.349 0.291 0.844 0.058 1.164-0.175 0.611-0.407 1.105-0.931 1.658-1.396 0.902-0.756-0.145-1.571-0.756-2.007zM27.462 17.484c-0.436 0.349-0.815 0.756-1.251 1.076-0.204 0.145-0.378 0.32-0.582 0.436-0.233 0.116-0.436 0.204-0.582-0.058-0.058-0.116-0.058-0.175-0.029-0.233 0.058 0.058 0.116 0.087 0.175 0.145 0.058 0.029 0.145 0 0.175-0.058s0-0.145-0.058-0.175c-0.058-0.029-0.116-0.087-0.145-0.116 0.029-0.029 0.029-0.029 0.058-0.058s0.087-0.087 0.116-0.116c0.058 0.058 0.116 0.116 0.175 0.175s0.116 0.058 0.175 0c0.058-0.058 0.058-0.145 0-0.175-0.058-0.058-0.087-0.087-0.145-0.145 0.058-0.058 0.116-0.087 0.175-0.145 0.058 0.058 0.116 0.145 0.175 0.204 0.116 0.116 0.291-0.058 0.175-0.175-0.058-0.058-0.087-0.116-0.145-0.175 0.058-0.029 0.116-0.087 0.145-0.116 0.058 0.058 0.087 0.087 0.145 0.145s0.145 0.058 0.175 0c0.058-0.058 0.058-0.116 0-0.175-0.029-0.029-0.058-0.087-0.116-0.116 0.058-0.058 0.145-0.116 0.204-0.175 0.029 0.029 0.058 0.058 0.087 0.087 0.116 0.116 0.291-0.058 0.175-0.175-0.029-0.029-0.058-0.058-0.087-0.087 0.058-0.058 0.087-0.116 0.087-0.145 0.058 0 0.116 0 0.145 0 0.058 0 0.116-0.058 0.116-0.116 0-0.087-0.058-0.116-0.116-0.116-0.087 0-0.145 0-0.233 0 0 0 0 0 0 0-0.029-0.029-0.087-0.087-0.116-0.116 0.029-0.029 0.087-0.029 0.116-0.058 0.058-0.029 0.087-0.116 0.058-0.175s-0.116-0.087-0.175-0.058c-0.087 0.029-0.145 0.087-0.233 0.116-0.029-0.029-0.087-0.058-0.116-0.087 0.029-0.029 0.058-0.029 0.116-0.058s0.087-0.116 0.058-0.175c-0.029-0.058-0.116-0.087-0.175-0.058s-0.145 0.058-0.204 0.116c0 0 0 0-0.029 0-0.029-0.029-0.087-0.058-0.116-0.087-0.029 0-0.029-0.029-0.058-0.029 0.058-0.029 0.087-0.058 0.145-0.087s0.087-0.116 0.058-0.175c-0.029-0.058-0.116-0.087-0.175-0.058-0.087 0.029-0.145 0.087-0.233 0.116-0.058-0.058-0.087-0.087-0.145-0.145 0.029-0.029 0.058-0.029 0.087-0.058 0.058-0.029 0.116-0.087 0.087-0.145s-0.087-0.116-0.145-0.087c-0.087 0.029-0.145 0.058-0.204 0.116-0.029-0.029-0.087-0.058-0.116-0.087 0.029-0.029 0.058-0.058 0.116-0.058 0.145-0.087 0.029-0.291-0.116-0.233-0.058 0.029-0.087 0.058-0.116 0.087-0.116-0.465 0.32-0.407 0.524-0.32 0.465 0.175 0.902 0.553 1.28 0.844 0.407 0.32 1.338 0.931 0.64 1.542z"></path>
<path d="M23.709 14.72c-0.378 0-0.495 0.32-0.582 0.64-0.233 0.698-0.407 1.425-0.553 2.153-0.058 0.378-0.553 2.007 0.32 1.891 0.349-0.029 0.553-0.407 0.669-0.669 0.233-0.611 0.349-1.28 0.465-1.891 0.058-0.32 0.116-0.611 0.175-0.931 0.029-0.204 0.145-0.495 0.116-0.698-0.029-0.349-0.291-0.495-0.611-0.495zM23.709 17.105c-0.058 0.291-0.145 0.553-0.204 0.844-0.087 0.349-0.175 1.047-0.611 1.047-0.233 0-0.262-0.029-0.233-0.175 0.029 0 0.058 0.029 0.087 0.029 0.058 0.029 0.145-0.029 0.145-0.087 0.029-0.058-0.029-0.145-0.087-0.145-0.058-0.029-0.087-0.029-0.145-0.029 0-0.058 0-0.087 0.029-0.145 0.058 0 0.116 0.029 0.175 0.029 0.175 0 0.175-0.262 0-0.262-0.058 0-0.087 0-0.145-0.029 0-0.029 0-0.058 0-0.087 0 0 0-0.029 0-0.029 0.058 0 0.116 0.029 0.175 0.029 0.175 0.029 0.233-0.204 0.058-0.262-0.058-0.029-0.116-0.029-0.204-0.029 0-0.087 0.029-0.145 0.029-0.233 0.087 0 0.145 0.029 0.204 0.058s0.145-0.029 0.145-0.087c0.029-0.058-0.029-0.145-0.087-0.145-0.087-0.029-0.145-0.058-0.233-0.058 0-0.058 0.029-0.116 0.029-0.175 0.058 0 0.116 0.029 0.175 0.029 0.175 0.029 0.233-0.204 0.058-0.262-0.058-0.029-0.116-0.029-0.204-0.058 0-0.058 0.029-0.116 0.029-0.175 0.029 0 0.087 0.029 0.116 0.029 0.175 0.029 0.233-0.204 0.058-0.262-0.058 0-0.087-0.029-0.145-0.029 0-0.029 0-0.058 0.029-0.087 0.058 0.029 0.145 0.029 0.204 0.058 0.058 0 0.145-0.029 0.145-0.087 0.029-0.058-0.029-0.145-0.087-0.145-0.087-0.029-0.145-0.029-0.233-0.058 0-0.058 0.029-0.116 0.029-0.145 0.058 0 0.087 0.029 0.145 0.029 0.145 0.029 0.233-0.204 0.058-0.262-0.058 0-0.087-0.029-0.145-0.029 0-0.029 0.029-0.058 0.029-0.087 0.058 0 0.087 0.029 0.145 0.029 0.058 0.029 0.145-0.029 0.145-0.087 0.029-0.058-0.029-0.145-0.087-0.145-0.029 0-0.087-0.029-0.116-0.029 0.029-0.029 0.029-0.087 0.058-0.116 0.029 0.029 0.087 0.029 0.116 0.029 0.058 0 0.145-0.029 0.145-0.087 0.029-0.058-0.029-0.145-0.087-0.145-0.029 0-0.029 0-0.029 0 0.058-0.058 0.087-0.058 0.145-0.058 0.785 0 0.233 1.804 0.175 2.095z"></path>
</symbol>
</defs>
</svg>
