<svg aria-hidden="true" style="position: absolute; width: 0; height: 0; overflow: hidden;" version="1.1" xmlns="http://www.w3.org/2000/svg" xmlns:xlink="http://www.w3.org/1999/xlink">
<defs>
<symbol id="icon-star" viewBox="0 0 32 32">
<path d="M31.978 12.267c-0.211-0.649-0.787-1.109-1.465-1.17l-9.255-0.84-3.658-8.564c-0.27-0.629-0.885-1.035-1.569-1.035s-1.299 0.406-1.567 1.035l-3.658 8.564-9.257 0.84c-0.679 0.063-1.253 0.522-1.466 1.17-0.211 0.649-0.016 1.361 0.497 1.811l6.996 6.135-2.063 9.086c-0.151 0.668 0.108 1.359 0.663 1.76 0.298 0.216 0.648 0.325 0.999 0.325 0.302 0 0.604-0.080 0.874-0.242l7.981-4.772 7.979 4.772c0.585 0.35 1.321 0.318 1.875-0.083 0.554-0.401 0.814-1.091 0.663-1.76l-2.063-9.086 6.996-6.135c0.513-0.45 0.708-1.161 0.497-1.811z"></path>
</symbol>
</defs>
</svg>
