<svg xmlns="http://www.w3.org/2000/svg" width="64" height="64"><rect id="backgroundrect" width="100%" height="100%" x="0" y="0" fill="none" stroke="none"/><style>.st1{fill:#fff}</style><linearGradient id="SVGID_1_" gradientUnits="userSpaceOnUse" x1="93.322" y1="91.629" x2="67.508" y2="20.706"><stop offset="0" stop-color="#de47ec"/><stop offset=".165" stop-color="#d550ed"/><stop offset=".439" stop-color="#bb67f0"/><stop offset=".786" stop-color="#928df5"/><stop offset="1" stop-color="#75a8f9"/></linearGradient><g class="currentLayer"><path d="M52.2 64.2H12c-6.6 0-12-5.4-12-12V12C0 5.4 5.4 0 12 0h40.2c6.6 0 12 5.4 12 12v40.2c0 6.6-5.4 12-12 12z" id="svg_1" fill="url(#SVGID_1_)"/><g id="svg_2"><path class="st1" d="M51.3 31.1c-.1-2 0-4 0-6v-3.8c-.1-1 .1-2.3-.2-3.3-.3-1-1-1-2-1.1-2.4-.1-4.8 0-7.2 0-5.3 0-10.6-.1-16-.1-2.8 0-5.6.1-8.4.3-1 .1-2.7-.1-3.5.6-.5.5-.6 1.2-.7 1.9-.3 1.5-.3 3-.4 4.5-.1 3.2-.1 6.5-.3 9.7-.2 2.6-.1 5.2 0 7.9 0 1.5-.4 3.8.8 5 1.3 1.1 4 .6 5.5.7 2.8.1 5.6.2 8.4.2 5.3.1 10.5-.1 15.8.1 2 .1 4.2 0 6.2-.3 1.2-.2 1.5-.9 1.7-2 .8-5 .5-9.7.3-14.3zM16.2 18.2c.5 0 1-.1 1.5-.1 2-.1 4-.2 6.1-.2h18.9c2 0 4.2-.2 6.2 0 .9.1 1 .2 1.1 1.1.2.9.1 1.9.1 2.8v.4c-11.9-.4-23.9-.5-35.8-.1 0-.7.1-1.3.2-2 .1-1.2.4-1.8 1.7-1.9zm34.1 21.6c-.1 1.6 0 3.2-.1 4.9-.1 1.2-.6 1.1-1.6 1.3-1.1.2-2.2.3-3.3.3-4.1.1-8.3-.1-12.4-.1-4.9 0-9.8-.1-14.7-.3-1.5 0-3.9.2-4-1.8-.1-1.1 0-2.2-.1-3.3-.1-2.4-.1-4.8 0-7.2.2-3.5.1-7.1.3-10.6 12-.4 23.9-.3 35.9.1 0 1.7-.1 3.3-.1 5-.1 3.9.2 7.8.1 11.7z" id="svg_3"/><path class="st1" d="M17.2 21.4c.7-.1 1.5-.5 1.4-1.3-.1-.7-.6-1.3-1.4-1.3-.7 0-1.3.7-1.4 1.4-.2.8.6 1.3 1.4 1.2zm-.5-1.2c.1-.2.2-.5.5-.5.2 0 .4.1.5.3.1.4-.1.4-.4.5h-.4c-.3-.1-.3-.1-.2-.3z" id="svg_4"/><path class="st1" d="M20.9 21.4c.8.1 1.4-.5 1.5-1.3.1-.8-.5-1.4-1.3-1.4-.7 0-1.5.5-1.5 1.2-.1.8.5 1.4 1.3 1.5zm-.5-1.5c.1-.3.4-.4.6-.4.3 0 .5.2.4.5 0 .3-.3.6-.6.5-.2 0-.4-.3-.4-.6z" id="svg_5"/><path class="st1" d="M24.9 21.3c.7 0 1.4-.7 1.4-1.4s-.7-1.4-1.4-1.4c-.8 0-1.4.7-1.4 1.5-.2.9.6 1.4 1.4 1.3zm-.1-1.9c.6 0 .7.9.1 1-.3 0-.6-.1-.7-.3 0-.3.3-.7.6-.7z" id="svg_6"/><path class="st1" d="M27.2 27c-1.2-1-2.9-.2-4 .6-2.1 1.4-3.8 3.2-5.7 4.8-3 2.6.6 5.4 2.7 6.9 1.4 1 3.1 2.5 4.8 3 1.1.3 2.9-.1 2.9-1.5.1-1.4-2.1-2.8-3-3.6-.6-.5-1.2-1-1.8-1.4-.3-.2-.6-.4-.8-.6-.6-.4-.8-.3-.5-.9.8-1.5 8.2-5 5.4-7.3zm-6.5 8.3c.7.8 2.1 1.4 2.9 2.1.6.5 1.2 1.1 1.8 1.7.2.2 1 .7 1.1 1 .5 1.7-.8 1.5-1.7 1.3.1-.1.2-.1.2-.2.2-.1.3-.4.2-.6-.1-.2-.4-.3-.6-.2-.2.1-.3.3-.5.4-.1 0-.1.1-.1.2l-.6-.3c.1 0 .1-.1.2-.1.5-.3 0-1.1-.4-.8-.2.1-.4.3-.5.4-.2-.1-.4-.3-.6-.5.1-.1.2-.1.4-.2.5-.3.1-1-.4-.8-.2.1-.5.2-.7.4-.1-.1-.3-.2-.4-.3.1 0 .1-.1.2-.1.5-.3.1-1-.4-.8-.2.1-.3.2-.5.3-.2-.2-.4-.3-.6-.5.1-.1.2-.2.4-.2.2-.1.3-.4.2-.6-.1-.2-.4-.3-.6-.2-.2.1-.4.3-.6.4-.2-.1-.3-.3-.5-.4.1-.1.3-.2.4-.3.5-.3 0-1.1-.4-.8-.2.1-.4.2-.6.4-.2-.3-.4-.6-.5-.9h.4c.6 0 .6-.9 0-.9h-.5c.1-.3.2-.5.4-.8l.5.5c.2.1.5 0 .6-.2.1-.2 0-.5-.2-.6l-.1-.1-.2-.2-.1-.1c.1-.1.3-.2.4-.4l.5.5c.1.2.5.2.6 0 .2-.2.1-.4 0-.6-.1-.2-.3-.3-.4-.5l.6-.6c.2.1.3.3.5.5.4.4 1-.2.6-.6-.1-.1-.3-.3-.5-.4.2-.2.5-.4.7-.6.2.2.3.4.5.5.4.4 1-.2.6-.6-.1-.2-.3-.3-.4-.5l.3-.3c.2-.1.3-.2.5-.4.1.1.2.2.2.3.1.2.4.3.6.2.2-.1.3-.4.2-.6-.1-.1-.2-.3-.3-.4.2-.1.4-.3.6-.4l.4.4c.4.4 1-.2.6-.6l-.2-.2c.5-.2 1-.2 1.4.5.5.9 0 1.1-.6 1.7-1.5 1.5-3.3 2.5-4.8 4-.4.6-.7 1.1-.2 1.7z" id="svg_7"/><path class="st1" d="M44 29.7c-1.4-1-3.1-2.5-4.8-3-1.1-.3-2.9.1-2.9 1.5-.1 1.4 2.1 2.8 3 3.6.6.5 1.2 1 1.8 1.4.3.2.6.4.8.6.6.4.8.3.5.9-.9 1.5-8.3 5-5.5 7.3 1.2 1 2.9.2 4-.6 2.1-1.4 3.8-3.2 5.7-4.8 3.1-2.6-.5-5.4-2.6-6.9zm2.1 6.3c-1.5 1.2-2.8 2.6-4.3 3.7-.7.5-1.3 1.1-2 1.5-.8.4-1.5.7-2-.2-.2-.4-.2-.6-.1-.8.2.2.4.3.6.5.2.1.5 0 .6-.2.1-.2 0-.5-.2-.6-.2-.1-.4-.3-.5-.4l.2-.2.4-.4.6.6c.2.2.4.2.6 0 .2-.2.2-.5 0-.6l-.5-.5c.2-.2.4-.3.6-.5.2.2.4.5.6.7.4.4 1-.2.6-.6-.2-.2-.3-.4-.5-.6.2-.1.4-.3.5-.4l.5.5c.2.2.5.2.6 0 .2-.2.2-.4 0-.6-.1-.1-.2-.3-.4-.4.2-.2.5-.4.7-.6l.3.3c.4.4 1-.2.6-.6l-.3-.3c.2-.2.3-.4.3-.5h.5c.2 0 .4-.2.4-.4 0-.3-.2-.4-.4-.4h-.8l-.4-.4c.1-.1.3-.1.4-.2.2-.1.3-.4.2-.6-.1-.2-.4-.3-.6-.2-.3.1-.5.3-.8.4-.1-.1-.3-.2-.4-.3.1-.1.2-.1.4-.2s.3-.4.2-.6c-.1-.2-.4-.3-.6-.2-.2.1-.5.2-.7.4h-.1c-.1-.1-.3-.2-.4-.3-.1 0-.1-.1-.2-.1.2-.1.3-.2.5-.3.2-.1.3-.4.2-.6-.1-.2-.4-.3-.6-.2-.3.1-.5.3-.8.4l-.5-.5c.1-.1.2-.1.3-.2.2-.1.4-.3.3-.5-.1-.2-.3-.4-.5-.3-.3.1-.5.2-.7.4-.1-.1-.3-.2-.4-.3.1-.1.2-.2.4-.2.5-.3.1-1-.4-.8-.2.1-.3.2-.4.3-.4-1.6 1.1-1.4 1.8-1.1 1.6.6 3.1 1.9 4.4 2.9 1.4 1.1 4.6 3.2 2.2 5.3z" id="svg_8"/><path class="st1" d="M33.2 26.5c-1.3 0-1.7 1.1-2 2.2-.8 2.4-1.4 4.9-1.9 7.4-.2 1.3-1.9 6.9 1.1 6.5 1.2-.1 1.9-1.4 2.3-2.3.8-2.1 1.2-4.4 1.6-6.5.2-1.1.4-2.1.6-3.2.1-.7.5-1.7.4-2.4-.1-1.2-1-1.7-2.1-1.7zm0 8.2c-.2 1-.5 1.9-.7 2.9-.3 1.2-.6 3.6-2.1 3.6-.8 0-.9-.1-.8-.6.1 0 .2.1.3.1.2.1.5-.1.5-.3.1-.2-.1-.5-.3-.5-.2-.1-.3-.1-.5-.1 0-.2 0-.3.1-.5.2 0 .4.1.6.1.6 0 .6-.9 0-.9-.2 0-.3 0-.5-.1V38c.2 0 .4.1.6.1.6.1.8-.7.2-.9-.2-.1-.4-.1-.7-.1 0-.3.1-.5.1-.8.3 0 .5.1.7.2.2.1.5-.1.5-.3.1-.2-.1-.5-.3-.5-.3-.1-.5-.2-.8-.2 0-.2.1-.4.1-.6.2 0 .4.1.6.1.6.1.8-.7.2-.9-.2-.1-.4-.1-.7-.2 0-.2.1-.4.1-.6.1 0 .3.1.4.1.6.1.8-.7.2-.9-.2 0-.3-.1-.5-.1 0-.1 0-.2.1-.3.2.1.5.1.7.2.2 0 .5-.1.5-.3.1-.2-.1-.5-.3-.5-.3-.1-.5-.1-.8-.2 0-.2.1-.4.1-.5.2 0 .3.1.5.1.5.1.8-.7.2-.9-.2 0-.3-.1-.5-.1 0-.1.1-.2.1-.3.2 0 .3.1.5.1.2.1.5-.1.5-.3.1-.2-.1-.5-.3-.5-.1 0-.3-.1-.4-.1.1-.1.1-.3.2-.4.1.1.3.1.4.1.2 0 .5-.1.5-.3.1-.2-.1-.5-.3-.5h-.1c.2-.2.3-.2.5-.2 2.7 0 .8 6.2.6 7.2z" id="svg_9"/></g></g></svg>