<svg xmlns="http://www.w3.org/2000/svg" width="2070" height="858"><style>.shp0{fill:#fff}.shp1{fill:#82acf8}.shp2{fill:#fedcb9}.shp4{fill:#d09269}.shp6{fill:#d2dce6}.shp7{fill:#467eda}.shp10{fill:#dc926d}.shp12{fill:#d2d0a0}.shp13{fill:#d5ddea}.shp14{fill:#1b4f7f}.shp17{fill:#1c4f84}.shp19{fill:#fec02a}.shp20{fill:#19d2c0}.shp24{fill:#54aee2}.shp30{fill:#fdbcaa}.shp33{fill:#d0dce8}</style><g id="Layer"><path id="Layer" class="shp0" d="M893.3 699.5c10.5-26.2 21-52.3 31.3-78 4.9 3 10.2 5 13.5 8.8 2.5 2.9 3.9 8.4 3.2 12.3-4.2 21.2-9.1 42.2-14 63.2-1.7 7.2-7.2 11.9-13.1 12.3-2.2-15.1-2.4-15.2-20.9-18.6z"/><path id="Layer" class="shp1" d="M427.7 394.2c.3-5.3.6-10.6.8-15.9.2-4-1.4-6.2-5.7-6.4-23.7-.8-40.1-13.6-52.5-32.5-5.6-8.6-9.3-18-10.8-28.3-.3-1.8-2.6-4.3-4.2-4.5-1.6-.2-4.5 1.9-5 3.5-4.4 14.7-14.7 24.4-27.2 32-16 9.6-33.3 14.2-52.1 11.9-9.1-1.1-16.7-5.3-23.8-10.9-1.3-1-2.7-2.5-4.1-2.5-1.7 0-4.7 1-4.9 2-.4 2.1-.1 5.5 1.3 6.5 6.2 4.4 12.7 8.5 19.5 11.9 3.3 1.7 4.8 3.2 4.7 6.9-.8 26.5-9.4 50.2-26.1 70.8-2 2.4-4.5 4.4-6.9 6.5-2.7 2.3-3.2 4.8-1.5 8 13.3 24.6 14.4 50.8 9.4 77.7-.5 2.5-2.1 5.5-4 7.1-14.5 11.5-26.7 25.1-36.7 40.6-.5.7-.9 1.4-1.5 2-.3.4-.8.6-1.5 1.2-7.8-8-13.5-17.2-17.4-27.6-10.5-27.7-4.3-52 15.9-73.1 3.9-4.1 8.1-7.9 12.3-11.7 2.5-2.2 4.2-4.7 1.9-7.7-2.3-3-5.3-2.2-7.9 0-5.6 4.7-11 9.5-16.9 14.4-8.7-8.3-13.7-19-16.7-30.4-8.4-32.2-2.8-61.4 19.5-86.7 3.2-3.6 7.1-6.6 10.9-9.4 3.1-2.3 4-4.7 3.3-8.6-4.6-24.4-.6-47.4 14.2-67.4 16.3-22.1 38.3-36.1 65.6-41.4 28.3-5.5 53.5 1.8 75.9 19.3 8.5 6.6 15.4 14.8 18.2 25.6 1 3.8 4 4.3 7.3 4.8 7.8 1.3 16 2.1 23.4 4.7 23.4 8.1 34.8 25.9 36.9 49.8 1.7 19.9-2.4 38.8-11.6 56.5-.3.6-.7 1.1-1.1 1.6l-.9-.3z"/><path id="Layer" class="shp0" d="M1102.3 823.4c-17.3.2-30.4 10.2-45.3 19.3.5-5.9.9-10.8 1.5-15.7 1.9-15.8 3.9-31.6 5.8-47.5.3-2.8 1.4-3.6 4.1-3.6 8.3.1 16.6-.2 24.9.1 1.5 0 4 1.6 4.1 2.7 1.9 14.1 3.5 28.3 5.2 42.5.1.4-.1.9-.3 2.2z"/><path id="Layer" fill-rule="evenodd" class="shp2" d="M272.1 386.6c.6-7.3 1.2-14.2 1.8-21.6 15.4.3 30.1-2.7 44.1-9.1 13.9-6.3 25.7-15.3 35.3-28.5 1 2.2 1.7 3.7 2.5 5.2 11.4 23.8 28.1 41.6 54.9 47.6 8.5 1.9 8.3 1.9 7.5 10.8-1 11.6-1.3 23.3-2.5 34.9-4.5 43.9-41.8 81.2-85.7 86.2-28.8 3.3-54.4-4.2-76.7-22.6-1.9-1.6-3.2-4.5-4-7-3.1-9.6-5.9-19.3-8.7-29.1-.4-1.4-.2-3.7.7-4.6 12.9-13.2 21.1-29 26.4-46.5.9-3.1 2.5-4.4 5.4-5.6 8.9-3.6 17.8-3.8 26.8-.7 3.1 1.1 6.1 1.6 7.6-2.1 1.6-4.1-1.5-5.7-4.7-6.8-8.4-3-16.9-3.2-25.6-1.6-1.5.4-3.1.7-5.1 1.1zm34.9 69.2c-1.8 13.8 9.5 26.1 23.7 26.9 13.1.8 25.8-10.6 25.7-23.6-16.4-1.1-32.7-2.2-49.4-3.3zm-20.3-47.7c-4.1.2-8.1 2.4-11.4 6.3-1.4 1.6-3.3 2.9-5.3 3.6-3.4 1.3-4.9 4.3-2.8 6.5 1.9 2 5.8 2.7 8.9 2.9 1.7.1 4.4-1.8 5.1-3.5 1.4-3.5 2.8-6.6 7.2-6.2 4.2.3 5.2 3.4 5.6 7 .3 3 2.1 5.6 5.1 4.7 1.8-.6 3.9-3.6 4.1-5.7.5-8.3-7-15.5-16.5-15.6zm95.8 6.2c-8.1 0-15.8 6.7-15.8 14.1 0 2 1.6 4.9 3.3 5.6 2.8 1.2 4.9-.9 5.6-4 .8-3.5 2.5-6.4 6.6-6.3 4.3.1 5.5 3.3 6.6 6.9.5 1.8 2.7 4 4.3 4.2 2.9.4 6.6.3 8.7-1.3 2.7-2 1.4-4.9-1.5-6.9-1.8-1.2-3.5-2.8-4.7-4.5-3.2-4.8-7.8-7.3-13.1-7.8zm-4.1-23.7c-3.1.3-6.3.5-9.4 1-3.3.6-6.5 1.8-5.5 6.1.9 4.1 4.3 3.6 7.3 3 9.4-2 18.2-.3 26.4 4.4 2.7 1.5 5.6 2.2 7.4-.9 2-3.3 0-5.6-2.9-7.3-7.1-4.1-14.9-6.2-23.3-6.3z"/><path id="Layer" d="M524.9 115.1c-1-12.7.9-25.7 7-37.9 13.3-26.9 35.9-42.5 64.3-49.7 30.6-7.8 59.9-4.1 86.7 13.6 6.2 4.1 11.7 9.3 17.1 14.5 2.9 2.8 5.4 3.6 9.3 2.9 23.2-4.3 38.3 4.4 46.3 26.7 1.1 3 2.1 6 2.7 9.1 4.4 19.6 4.3 39.4 2.3 59.1-1.4 14.4-4.1 28.6-6.3 42.9-.2 1.5-.7 2.9-1.3 5.3-1-2-1.8-3.1-2.3-4.4-5.5-14.5-10.9-29-16.3-43.5-2.8-7.6-3.5-7.8-11.3-6.4-20.3 3.8-39.2.8-55.8-12-12.5-9.6-17.4-23.1-18.6-38.3-.3-4.1-.2-8.3-.1-12.5.1-3.7-.6-7-5.1-7-4.1-.1-5.1 3-5.2 6.5-.5 10.6 0 21.1 3.6 31.1 1.8 5.1 1.5 9.8-.1 14.6-6.5 20.3-20.9 32.8-40.1 40.4-15.7 6.2-32 7.3-48.6 4.2-7.6-1.4-9.2-.3-9.9 7.3-1.4 15.9-2.7 31.8-4.9 48-6.3-12.5-13.3-24.8-18.8-37.7-4.6-10.6-8.6-21.7-11-33-4.6-21.3 12-36.5 33.3-31.5 2.9.7 5.5.5 6.6-2.6 1.2-3.4-.1-6.4-3.6-7-6.3-1.4-12.7-1.8-19.9-2.7z" fill="#e0a175"/><path id="Layer" fill-rule="evenodd" class="shp2" d="M552.8 184.3c43.7 4 79-7.8 98.5-50.6.1.1.7.1 1 .5 18.7 21.1 42.6 26.4 69.4 23.1 2.9-.4 4.1.4 5.1 3.1 6.9 18.7 14.1 37.4 21 56.1.8 2.1 1 4.6.5 6.8-5.9 27.8-20.5 49.8-43.5 66.5-3.8 2.8-6.1 2.3-9-1.1-5.3-6.2-11.1-12-16.7-17.9-6.2-6.5-14.2-7.4-20-2.1-6 5.4-5.9 13.5.4 20.4 3 3.3 6 6.6 8.6 9.4-5.2 11.1-14.9 10.6-24.1 10.3-42.3-1.4-74-20.5-94.5-57.6-1.1-1.9-1.8-4.4-1.7-6.6 1.4-18.8 3-37.5 4.5-56.3 0-1.3.3-2.6.5-4zm136.4 44.5c-12.9 1-22.3 5.4-29.7 13.8-2 2.3-2.7 5.2.1 6.8 1.6.9 5.2.7 6.4-.5 6.1-6.5 13.6-9.9 22.3-10.8 3.3-.3 5.8-2 4.8-5.4-.4-1.9-3.1-3.2-3.9-3.9zm-89.7 4.2c5.5 0 9.8-4.3 9.9-9.7.1-5.6-4.4-10.2-10-10.1-5.5.1-9.7 4.3-9.8 9.8-.1 5.7 4.1 10 9.9 10zm93.3-33.9c-5.7-.1-10.2 4.2-10.2 9.9 0 5.5 4.2 9.8 9.7 9.9 5.7.1 10.2-4.2 10.1-9.9 0-5.6-4.1-9.9-9.6-9.9z"/><g id="Layer"><path id="Layer" class="shp4" d="M539 229.5l5.3-53.8s46.5.5 78.3-49.3C630.7 113.7 640 79 640 79l3.5-.5 1.8 1.3c1 4.8 14.4 42.9 31.8 59 12.2 11.3 46.2 10.7 51.8 6.8.5-.3 3.6 1.2 3.8 1.8l20 54.5s14.3-68.5 8.8-90c-10.8-42.2-62.3-30.8-72.5-30 0 0-13.3-29.8-49.3-38.8-17.4-4.4-63.8-11.3-88.5 7.5-28 21.2-26.4 64.4-26.4 64.4s18.6 2 22.4 6.6c2 2.5 1 6.5-1.3 5.8-25.5-8.3-35.8 10.8-37 13-11.1 20 29 87 29 87"/></g><path id="Layer" fill-rule="evenodd" d="M1909.4 500c-10.4-.3-19.8-2.9-28.7-7.2-30.3-14.4-47.2-45.2-44.1-79.4 1.8-19.1 3.3-38.1 4.6-57.2.2-3.5 1.7-4.6 4.7-5.8 9.1-3.6 18.1-7.6 27-11.5 3.2-1.4 4.8-4 2.9-7.2-1.9-3.1-4.6-2.3-7.4-.8-15.7 8.6-32 14.8-50.3 14.3-14.1-.4-26.4-4.8-35.8-15.9-3.4-4.1-5.6-3.8-9.6.8-17.7 20.5-39 35.6-65.2 43.4-12.2 3.6-24.7 5.1-37.5 4.8-3.4-.1-4.9-1.2-5.8-4.5-6.2-21.7-5-43.2 2.2-64.3 9.6-28.4 26.7-51.3 52.2-67.4 35.7-22.6 77.6-20.4 112 6 9.4 7.2 18 13.3 31.2 13.5 15.3.2 26.2 10.4 33.7 23.6 9.6 16.9 12.9 35.6 15.2 54.5 4.3 36.2 1.1 72.5.5 108.8-.3 15-.8 30-1.3 45-.2 1.9-.4 4-.5 6.5zm-137.9-260.9c-2.2 0-4.6-.6-6.4.2-1.9.8-3.2 2.9-4.8 4.5 1.5 1.4 2.9 3.2 4.6 4.2 1.3.7 3.3.2 4.9.2 13.6.1 26 3.4 36.6 12.4 2.4 2.1 5.1 3.8 7.8.6 2.8-3.4.6-5.7-2.1-7.9-11.8-9.8-25.4-14.3-40.6-14.2z" fill="#fef0a7"/><g id="Layer"><path id="Layer" class="shp6" d="M924.6 618.5l18.6 14.2-1.4 29-30.3-14 13.1-29.2"/></g><path id="Layer" class="shp0" d="M1050.6 680.2c0 12.4.1 24.4-.1 36.4 0 1-1.6 2.8-2.4 2.8-16.1.2-32.2.1-48.6.1v-39.3h51.1z"/><g id="Layer"><path id="Layer" class="shp6" d="M999.7 705.7l50.5-8 .3-17.7h-50.8v25.7"/></g><g id="Layer"><path id="Layer" class="shp7" d="M184 359c3.3 1.8-14.5 22.1-10 48.5 4.6 27.2 28.5 35.7 24.5 55-2 9.6-10.4 19.2-18 19-15.6-.5-34.3-42.5-26-78.5 6.2-26.8 26.2-45.8 29.5-44zm103-134.5c-13.5-11.3-112.3 67.7-88.5 70 10.7 1 8.5-14 52.8-9.5 1.2-46.8 41-56 35.7-60.5z"/></g><path id="Layer" d="M255.5 425.7s14.2-11.9 18.7-21c7.1-14.5 8.7-30 8.7-30s27.8-4.4 36-6.7c14.3-4 33.7-23 33.7-23s18.7 38.3 65 36.3c2-.1-19.3-9.5-36-24.3-16.3-14.5-28-34.3-28-34.3s-30.7 23.5-42 28.7c-9.3 4.2-40.3 9-40.3 9l-15.8 65.3z" fill="#d0bfb5"/><path id="Layer" d="M546 246.5l16-56.5s32.5 1.5 47-4c25-9.5 46.5-36 46.5-36s17.1 12.4 24.5 14.5c17.5 5 40 2 40 2l31 52-20.5-70.8s-26.3 3.9-37 2.3c-11-1.6-43-24.5-43-24.5s-24.5 32.1-34.7 39.2C606.4 171.2 572 180 572 180h-20l-6 66.5z" fill="#d0c0b0"/><path id="Layer" fill-rule="evenodd" class="shp10" d="M1387 213.9c1.7 7.4 3.5 14.3 5 21.3 2.2 10.5 7.1 18.9 17.1 23.8 2.9 1.4 4.9 5.8 9 3.1 4-2.6 1.9-6.5 1.7-10-.9-12.6 1.2-24.8 5.3-36.6 10.9.8 20.7 9.6 23.2 20.7 2.7 12.2-2.9 24.8-14 30.3-3.6 1.8-7.8 2.6-11.9 3.3-4.2.7-6.4 2.4-5.7 6.9.2 1.3 0 3-.6 4.2-20.2 41.1-52.7 65.2-98.6 70.2-59.9 6.5-115.6-34-129.2-92.8-2.7-11.6-.6-23.1 3-34 4.4-13.2 10.4-25.8 15.9-38.7 1.8-4.3 4.6-6 9.8-4.5 14.4 4.2 27.6 1.1 39.4-8.3.8-.6 1.6-1.1 2.8-2 2 3.2 3.7 6.5 5.9 9.3 5.3 6.6 11 12.9 16.4 19.4 5.8 7.1 9.6 15.1 10 24.5.1 3.5 1.6 6.3 5.7 5.9 3.9-.4 4.7-3.3 4.4-6.6-.4-4-.9-7.9-1.6-13 28.6 12.5 57.5 10 87 3.6zm-129.5 15.9c-.8-.8-1.9-2.7-3.6-3.7-15.3-8.4-31.1-8.8-47-2-2.9 1.2-4.8 3.4-3.6 6.7 1.3 3.4 4 3.9 7.4 2.7 3.9-1.3 7.9-2.7 12-3.3 9.3-1.4 18.2.2 26.5 4.7 4.4 2.4 8.3.3 8.3-5.1zm82.1-9.1c-6.7 1.7-13.5 3.3-20.1 5.2-3.5 1-6.3 3.2-4.6 7.3 1.6 3.8 4.8 3.5 8 2.1 12.8-5.2 25.3-4.6 37.6 1.7 2.9 1.5 5.9 2.1 7.8-1.3 2-3.6 0-5.9-3.1-7.7-7.8-4.3-16.3-6.2-25.6-7.3zm-54.3 76.6c7.5-1.9 14.1-3.5 20.6-5.4 3.1-.9 5.4-3.1 4-6.8-1.4-3.6-4.2-3.8-7.4-2.7-.8.3-1.6.6-2.4.8-9.2 3.2-18.4 4.4-27.5-.6-2.8-1.5-5.6-1.3-7.3 1.8-1.7 3.1-.3 5.9 2.6 7 5.8 2.4 11.8 4.1 17.4 5.9zm54.7-32.2c6.4-.1 11.4-5.1 11.5-11.3.1-6.3-5.5-11.8-11.8-11.7-6.5.1-11.5 5.4-11.4 12 .2 6.3 5.3 11.1 11.7 11zm-122.7-11.5c-.1 6.3 4.8 11.4 11.2 11.6 6.6.2 11.9-4.9 11.9-11.4 0-6.2-5.1-11.5-11.3-11.7-6.2-.3-11.7 5-11.8 11.5z"/><path id="Layer" d="M1205.3 176.7c.2 8.3 36.2 36.8 58 24 9.2-5.4 23 19.2 32.5 20.2 34 3.3 87.8-16.2 91.5-10.2-34.5 26.9-123.4-30.1-123.5-41.7 0-2-53.2 17-58.5 7.7z" fill="#b58473"/><path id="Layer" class="shp12" d="M1877 259.2c0 6.4 16 17 16 17s17.3 34.8 18.3 45.3c1.7 17.4 2.3 68 2.3 68L1910 503s-20.9.1-24.5-5c-25.8-37.2 23.3-147.8 15.5-180.5-3.2-13.5-24-50-24-50"/><path id="Layer" class="shp0" d="M934.3 838.6c-10.1-14.2-17.3-29.4-33.6-36.8 1-1.9 1.8-3.5 2.7-5 6.6-10.8 13.1-21.6 19.9-32.3.8-1.2 3.4-2.7 4.4-2.2 9 3.8 17.9 7.9 27.2 12.2-6.8 21.3-13.5 42.2-20.6 64.1z"/><g id="Layer"><path id="Layer" class="shp13" d="M926 759.5l8.5 4.5-20 47-16.5-10.5 28-41z"/></g><g id="Layer"><path id="Layer" class="shp13" d="M1063.2 775.2l10.3-.7-3.3 63-14.2 7 7.2-69.3z"/></g><path id="Layer" fill-rule="evenodd" class="shp14" d="M1061.8 694.1h17.1c11 0 18.1 6.9 18.3 17.9.2 7.2-1.4 7.1 7.4 7.1 18.3 0 36.7-.1 55 .1 4.3 0 5.8-1.2 6-5.5 2.2-36.9 4.6-73.8 7.1-110.6 2.2-31.9 4.3-63.8 7.1-95.6 1.6-18.7 2.9-37.7 7.1-55.8 8-34.2 27.5-60.3 60.3-75 3.6-1.6 7.5-2.7 11.3-4 .9-.3 2.7-.5 2.7-.9.7-5 1.3-10 1.3-15 0-1.3-2.1-3.1-3.7-3.7-13.6-5.4-26-12.7-37.2-22.2-18.5-15.7-31.7-34.9-39.6-57.8-.8-2.4-2.9-4.9-5-6.1-25-13.7-27.4-46.6-4.6-63.7 2-1.5 3.4-4.8 3.8-7.4 8.2-53 36.1-90.9 86.5-110 51-19.4 108.8-1.6 143.8 42.4 17.7 22.3 27.7 47.5 29.8 76 .1 2.1 1.7 4.7 3.5 5.8 14.2 9 20.6 21.9 18.1 38.2-2.3 15.6-12 25.5-27.1 30.2-2 .6-4.2 2.6-5.1 4.6-15.4 34-40.6 57.7-75.5 70.8-3.3 1.2-4.5 2.8-4.2 6.1.3 2.6.1 5.3.1 8 0 .5.2 1 .4 1.7 6.4 1.4 12.9 2.5 19.2 4.3 32.1 9.1 55 28.9 68.7 59.3 12.6 27.9 25.5 55.6 34 85.1 2.8 9.7 5.1 19.7 6 29.7.6 6.7-1.1 13.9-3.1 20.5-6.7 21.6-18.4 40.9-30.1 60.1-6.1 9.9-12.5 19.6-19.1 29.8 6.2 4.2 11.4 9.8 20.2 9 6.4-.6 13 .5 19.4.9 9.4.6 15.7 7.2 15.4 16.2-.3 8.6-7 14.6-16.4 14.4-5.8-.1-11.6-.6-18.1.1 2.7 2.2 5.6 4.2 7.9 6.8 3.2 3.5 5.9 7.4 9 11 .8 1 2.1 1.8 3.3 2.2 1 .4 2.3.1 3.5.1 79.2 0 158.3 0 237.5.1 4.9 0 7-1.2 7.6-6.3 1.3-10.2 6.3-18.8 13.1-26.4 1.6-1.8 2.7-4.5 2.9-6.9.4-7 .1-14 .1-21.6-1.4.9-2.9 1.7-4.2 2.7-9.8 6.6-19.7 13-29.4 19.9-22.1 15.6-45.7 18.6-71.1 9.8-9.1-3.1-18.4-5.8-27.4-9.2-5.2-2-10.1-2.5-15.5-1.2-10.5 2.4-21.1 4.4-31.7 6.7-4.3.9-6.7-.7-7.6-4.9-1.1-5.5-2.3-11-3.5-16.6-2.7.2-5 .8-7.3.5-8.6-.8-14.4-8.5-12.6-17 .7-3.4.1-5.4-2-7.9-2.9-3.5-3.5-7.7-2.4-12.3.4-1.6 0-4-1-5.2-3.6-4.2-4.1-8.9-3.3-14.1.2-1.6.1-3.7-.8-4.8-7.7-10.4-4.4-20.5 8.2-24.2.9-.3 1.8-.8 3.1-1.3-1.8-8.6-3.5-17-5.3-25.4-1.4-6.8-.6-8.2 6.1-9.7 8.9-2 17.8-3.9 27.3-5.9-.7-1.9-1.2-3.4-1.9-4.8-2.7-5.6-5.6-11-8-16.7-1.4-3.4-3.4-4.5-7.1-4.5-8.8.1-16.6-6.4-18.5-14.7-2.1-9 2.2-18.3 10.4-22.2 8-3.9 17.9-1.9 23.6 4.9 5.7 6.7 6.4 17 .7 24-2.8 3.4-2.4 5.8-.6 9.2 3.4 6.3 6.4 12.8 9.4 19.3 1.3 2.9 2.9 3.4 5.9 2.8 13-2.8 26-5.3 39-8 5.4-1.1 7-.1 8.1 5.1 5.7 26.8 11.4 53.7 16.8 80.5.8 4 2.5 6 6.3 7.2 9.5 3 18.5 2.3 25.5-5.1 15.8-16.7 31.6-33.4 46.5-50.9 14.2-16.6 27.4-34 44.8-47.5 3.9-3.1 7.9-6.2 12.1-8.9 4.6-2.9 1.3-6.7 1.2-10 0-1.3-2.2-2.9-3.7-3.6-3.2-1.4-6.6-2.2-11-3.6 0 6.1-.1 11.7 0 17.2.1 4.6-2.3 6.1-6.5 6.1-35.7-.6-68-24.6-78.5-59.1-2.4-8-3.2-16.6-4-25-.6-6.3-.4-12.7-.1-19 .8-15.7-1.7-30.9-4.8-46.4-5.6-27.1.3-53 12.9-77.3 15.6-30.1 38.7-52.5 71.2-63.7 36.4-12.6 69.6-4.5 99.7 18.1 7.7 5.7 14.7 10.3 25 11 21.1 1.5 35.2 14.4 44.3 32.9 7.6 15.4 11 32 13.3 48.9 4.5 32.9 2.4 65.8 1.5 98.8-.6 21.2-1 42.3-1.6 63.5 0 1.7-.1 3.3-.2 5-.4 8.1-1.4 9.1-9.3 8.5-22.3-1.5-41.6-9.9-57.4-25.8-1.3-1.3-2.2-3-2.8-3.9-4.6 1-4.9 3-5 6.1-.2 9.5 4 13.7 13.3 16.5 26.4 7.7 44.4 26.6 59.8 48.4 16.6 23.3 25.9 49.8 32.5 77.3 3.6 15.2 6.7 30.5 9.1 45.9 2.4 15.1 2.1 30.2-6.7 44.9h108.6c7.1 0 8.2 1.1 8.2 8v22.5c0 6.1-1.2 7.4-7.2 7.5-14.5.1-29 .2-43.5 0-3.8-.1-5.7 1.2-7 4.7-3.1 8.4-6.8 16.6-10 25-1.1 3-2.6 4.4-5.8 4-1.3-.2-2.7 0-4 0H1108c.9 7.6 1.7 14.6 2.5 21.7.1 1 .5 2 .4 3-.4 6 2 9.4 7.7 12.1 8.8 4.3 13.1 12.5 14.3 22.1.6 4.7-1.3 7-6.2 7-24.8.1-49.7.2-74.5.1-5 0-6.5-1.7-5.9-6.9 2.1-18.2 4.3-36.4 6.5-54.5.2-1.3.3-2.6.4-4.6h-5.7c-27.8 0-55.7.1-83.5-.1-3.8 0-5.5 1.1-6.7 4.8-5.4 17.6-11.1 35.2-16.7 52.8-1.9 5.9-3.9 7-9.5 4.4-22.1-10.1-44.1-20.3-66.2-30.5-5.4-2.5-6-4.6-2.9-9.7 5.4-9 13.6-13.4 23.9-14.1 6.4-.4 6.6-.4 9-7.6h-9c-268.5 0-537 0-805.5.2-5.9 0-9-1.3-10.8-7.1-2.5-7.7-6.2-15.1-9.1-22.7-1.1-3.1-2.8-4-5.9-3.9-15.3.1-30.7.1-46 0-7.1 0-8.4-1.4-8.4-8.5v-20.5c0-8 1-9 8.8-9h157.3c.2-3.7.4-6.9.5-10 .4-15.6.3-31.3 1.4-46.9 1.7-23 8.6-44.7 18.8-65.2 2-4.1 2.1-6.6-1.1-10.4-16.9-19.4-25.6-41.8-22.7-68 1.2-11.1 5.1-21.3 11.2-30.6.8-1.2 1-4.1.2-4.9-12.2-12.6-18.2-28.2-21.1-45-4-24.2-1.4-47.7 11.9-68.8 5.3-8.5 12.5-16 19.7-23 3.5-3.4 4.4-6.2 3.8-10.6-2.5-18.8-.2-37.1 8.2-54 16.6-33.2 44.5-52.6 80.2-59 36.3-6.5 68.2 4.1 93.7 31.5 3.3 3.6 6.4 7.9 8.1 12.5 1.9 5 5.3 5.6 9.6 6.7 9.6 2.4 19.6 4.6 28.3 9 19.7 9.9 29.5 27.4 32.4 48.7 3.2 24-1.6 46.7-13.1 67.9-2 3.6-4.3 7.3-7.2 10.1-3.2 3.1-4.2 6.6-4.4 10.7-.8 18.4-6.4 35.2-15.8 51-1.1 1.9-1.7 4.8-1.2 6.9 7.5 29.4 6.4 58.3-3.1 87.1-.6 1.8-.1 4.6 1 6.2 16.3 23.3 23.6 49.3 23.7 77.5v45.3h28.4c.1-2.1.3-4.1.3-6.2v-161c0-14.3 6.7-21.2 21-21.3 12-.1 24-.1 36 .1 4 .1 5.6-.8 6.2-5.3 4.3-32 7.4-64.2 14-95.7 9-42.5 36.1-69.8 78-82 2-.6 4.7-.2 4.9-3.8.2-3.8-2.4-3.9-4.7-4.5-31.8-8.8-55.7-27.7-71.8-56.4-1.6-2.9-3.4-3.8-6.6-3.8-14.5 0-25.4-6.5-31.9-19.4-6.4-12.7-5.1-25.3 3.4-36.7 2.2-3 2.1-5.2.8-8.5-5.4-12.7-10.2-25.7-9.5-39.9.5-10.7 5.1-19.2 13.9-25.2 2.2-1.5 3.7-2.9 3.4-5.9-4.7-51.8 33.3-87.5 75.3-98.8 36.2-9.7 70.3-5.1 101.2 17.1.8.6 1.6 1 3.3 2.1 0-7.1-.4-13.5.1-19.8.5-4.9 2.1-9.7 3.5-14.5.8-2.8 2.8-4.9 6-3.7 3.3 1.2 3.6 3.9 2.5 7-3.8 10.4-4.6 21-1.8 33.2 2-3 3.5-5.2 4.9-7.4 1.1-1.7 1.7-3.9 3.2-5 1.8-1.2 4.2-1.4 6.4-2 .4 2.2 1.8 4.8 1.1 6.6-1.4 3.7-4 6.9-6 10.3-.8 1.4-1.5 2.8-2.4 4.6 5.3.4 10.1.4 14.8 1.1 15 2.3 25.4 11 32.2 24.2 6.2 11.9 9.2 24.7 9.9 37.9.7 13.1.3 26.3.1 39.4 0 3.2.6 5.4 3.4 7.5 11.5 8.6 15.8 20.6 13.3 34.4-2.5 13.9-11.4 22.9-24.9 27.4-1.8.6-4.1 2.5-4.5 4.2-4.4 22.2-14.4 41.3-29.7 57.9-.4.5-.8 1.1-1.3 1.9 6.2 3.9 7.4 9.8 6.7 16.5-.8 6.9-1.2 13.9-1.9 20.9-.4 3.8.7 7 4.1 9 24.4 14.1 38.7 36 47.9 61.8 7.2 20 10.2 41 12.9 61.9 2 15.7 3.5 31.4 5.2 47.1.3 2.9 1.1 4.3 4.5 4.4 10.9.2 16.2 5.9 16.3 17.1.1 33.3 0 66.7 0 100 0 26 .1 52 0 78 0 5.9-.6 11.9-.9 18.3h21.9v-4.1c.2-8.4 5.8-14.1 14.1-14.3 7.3-.2 14.7-.2 22 0 2.8.1 4.2-.9 5.2-3.5 11.8-29.8 23.9-59.6 35.5-89.5 1.6-4 1.3-8.8 1.4-13.2.2-14.9 7.5-23.5 22.2-26.1 1.4-.2 3.3-2.2 3.6-3.6 4-16.2 15.5-25.7 32.1-25.9 12-.2 24-.2 36 .1 4.1.1 5.4-1.4 5-5.2-.1-1.3-.2-2.7 0-4 .8-6.1-.5-10.1-7-13.2-8.7-4.2-11.6-15.1-8.4-24.3 3.2-9.1 11.8-14.4 22-13.7 8.7.7 16.5 7.6 18.2 16.1 2 10.1-2.6 19.6-11.7 23.5-3.4 1.4-4.4 3.2-4.2 6.7.2 4.4.1 8.9.1 14h7.4c13 .2 26-.3 38.9.8 13.8 1.2 23.8 11.3 26.5 24.8.5 2.8 1.4 3.9 4.3 4.3 8.2.9 14.3 5.3 18 12.6 1.3 2.6 2.9 3.6 5.8 3.4 4.8-.2 9.7 0 14.5-.1 3 0 5.4.8 5.7 4.2.3 3.8-2.3 5-5.4 5-5.6.2-11.3 0-17.7 0 0 4.3-.2 8 .2 11.8.1 1.1 2 2.4 3.2 2.8 3.9 1 7.8 1.4 11.8 2.2 2.9.6 5.2 2.1 4.6 5.4-.6 3.3-3.1 4.1-6.1 3.5-.5-.1-1-.1-1.5-.2-8-2-15.9-3.6-20.4 6.2-8.4 2.9-9.5 10.3-12 17.6-6.7 20-21.3 31.6-41.8 35.9-3.1.6-4.4 1.5-4.1 4.7.2 2.8.1 5.7.1 8.5.8-.4 1 .1 1.3 1.5zm-572.6 25h5.4c102.6 0 205.3 0 307.9.1 5.1 0 7.9-2 8.7-6.8.4-2.1.6-4.3.6-6.4V524.6c0-8.3-.4-8.7-8.8-8.7H499.1c-4.3.2-6.9 2.1-7.2 6.6-.1 2-.2 4-.2 6 0 51.3.1 102.6-.1 154-.1 11.9 1.8 24.1-2.4 36.6zm897.3-.9c-1.5-1.6-2.2-2.3-2.9-3-27-27-54-53.9-81-80.9-5.5-5.5-5.5-6.4-1.1-13.2-4.3-1.1-8.6-1.7-12.5-3.3-2.1-.9-4.4-3.1-5-5.2-.8-3.3 2.7-5.5 6.9-4.7 5.2 1 10.3 2.8 15.6 3.4 1.9.2 4.3-1.6 5.9-3.1.5-.5-.5-3.2-1.5-4.4-3.2-3.6-6.7-7-10.1-10.4-2.6-2.6-4.1-5.9-1.3-8.8 3.2-3.2 6.3-1.4 8.9 1.6 3.7 4.2 7.5 8.3 11.1 12.2 7.4-5.4 7.7-5.4 14.3-.8 3 2.1 6.1 4 9.1 6.2 2.5 1.9 4.4 2.2 6.9-.3 4.2-4.3 9.5-5.7 15.1-3.5 3.6 1.4 4.9.1 6.5-2.8 6.9-12.7 13.3-25.8 21.2-37.9 7.3-11.2 7.1-21.5 2.3-33.3-7.4-18.2-13.9-36.7-20.8-55.1-1.3-3.4-2.2-6.7 2.1-8.4 4.5-1.8 6.3 1.3 7.6 4.9 1.7 4.5 3.8 8.9 5.3 13.5 1.4 4.1 3.1 5.5 7.6 3.4 9-4.2 18.4-7.8 27.6-11.8 4.7-2 9.4-4.1 14.6-6.4-4.7-10.2-9.2-19.8-13.4-29.5-8-18.2-20.3-32.7-37.4-43.1-11.8-7.2-24.5-11.6-38.8-13.5.4 2.3.6 4.1 1 5.8 1.8 8 3.7 15.9 5.4 23.9 1.4 6.4.4 7.8-5.9 9.7-19.4 6-38.8 12.1-58.2 17.9-2.4.7-5.5.8-7.7-.2-14.7-7.1-29.2-14.5-43.8-21.9-5.6-2.9-6.1-5.5-2.4-10.7 4.2-5.9 8.3-11.8 12.4-17.7-3.7.7-6.9 2.2-9.8 3.9-13.2 8-23.6 19-31.5 32.2-8.3 13.9-13.6 28.9-15.1 45.1-.2 1.7 1 4.7 2.2 5.1 5 1.5 10.2 2.2 15.5 3.3.8-2.5 1.4-4.4 1.9-6.2 1-3.3 2.9-5.5 6.5-4.5 3.7 1 4.1 3.8 3.3 7.2-1 4.2-2.1 8.4-2.5 12.7-3 33.7-6.6 67.3-8.7 101-2.5 41.2-3.8 82.5-5.5 123.8-.3 7.6-.2 7.6 7.7 7.6h162c3.1.2 6.2.2 10.4.2zm486.5-61.6c-.5-2.5-.7-4.3-1.1-6.1-4.6-19.4-11.7-37.8-21.2-55.4-1.7-3.1-3-6.5 1-8.6 3.7-1.9 5.8.7 7.5 3.7 11.8 21.5 20.1 44.2 24.4 68.4 1.1 6.4-.5 8-6.9 8.3-22.9 1.3-45.9 2.5-68.8 4.2-9.9.8-19.7 2.9-29.6 4.4.4 1 .4 1.4.6 1.5 1.3 1 2.6 2 4 3 10.8 8.3 18 18.8 19 32.6.4 4.8 2.4 5.6 6.5 5.6 40.8 0 81.7.2 122.5.3 9.1 0 14.9-3.6 17.1-12.3 1.8-7 2.6-14.5 2.5-21.7-.5-21.8-6.4-42.7-12-63.7-7.8-29.5-20-56.8-40.6-79.9-13.1-14.6-28.3-25.7-47.2-31.4-3.1-.9-4-.2-5.5 2.6-2.4 4.6-5.3 9.6-9.3 12.7-18.9 14.7-38.2 28.9-57.5 43.2-4.4 3.3-8 1.4-8.7-4.1-1.1-8.4-2-16.9-3-25.3-.9-7.1-1.8-14.3-2.9-22.2-2.3 1.5-3.8 2.2-5 3.3-11.1 10.5-22.8 20.5-33 31.8-18.7 20.6-36.5 42-54.9 62.9-10.7 12.1-23.5 19.1-40.3 14.8-.1 0-.3.2-.9.6.2 1.3.4 2.9.7 4.5 1.5 7.2 2.9 14.4 4.4 21.5 2.5 12.1 2.5 12.1-9.7 14.6-5.5 1.2-11 2.5-16.6 3.7v1.8c9.9 2.6 19.9 5.3 29.8 7.9 14.5 3.8 28.2 1.9 40.8-6.1 15.7-10 31.2-20.4 46.6-30.9 1.6-1.1 2.7-3.8 2.8-5.8.6-10.3.8-20.6 1.2-31 .2-5.8.3-11.7 1.2-17.4.3-1.8 3.1-4.5 4.7-4.4 1.7.1 3.4 2.8 4.7 4.7.5.8 0 2.3 0 3.4-.9 24.1-1.8 48.3-2.7 72.4-.1 2.1 0 4.2 0 6.1 44.3-12.8 89.4-16.3 135.4-18.2zM427.7 394.2c.3.1.5.1.8.2.4-.5.8-1 1.1-1.6 9.3-17.7 13.4-36.6 11.6-56.5-2.1-23.9-13.4-41.7-36.9-49.8-7.5-2.6-15.6-3.3-23.4-4.7-3.3-.6-6.3-1-7.3-4.8-2.8-10.8-9.7-19-18.2-25.6-22.4-17.4-47.6-24.7-75.9-19.3-27.2 5.3-49.3 19.3-65.6 41.4-14.8 20-18.8 43-14.2 67.4.7 3.8-.2 6.3-3.3 8.6-3.8 2.9-7.8 5.9-10.9 9.4-22.3 25.3-27.9 54.5-19.5 86.7 3 11.5 8 22.1 16.7 30.4 5.8-5 11.3-9.7 16.9-14.4 2.6-2.2 5.6-3 7.9 0 2.3 3 .6 5.5-1.9 7.7-4.2 3.8-8.4 7.6-12.3 11.7-20.2 21.1-26.3 45.3-15.9 73.1 3.9 10.3 9.6 19.6 17.4 27.6.8-.6 1.2-.8 1.5-1.2.5-.6 1-1.3 1.5-2 10.1-15.5 22.3-29 36.7-40.6 2-1.6 3.6-4.5 4-7.1 5-26.8 4-53-9.4-77.7-1.7-3.1-1.2-5.7 1.5-8 2.4-2.1 4.9-4.1 6.9-6.5 16.7-20.6 25.3-44.3 26.1-70.8.1-3.8-1.4-5.3-4.7-6.9-6.8-3.4-13.3-7.5-19.5-11.9-1.4-1-1.7-4.4-1.3-6.5.2-1 3.2-2 4.9-2 1.4 0 2.9 1.5 4.1 2.5 7 5.6 14.7 9.7 23.8 10.9 18.8 2.3 36.1-2.2 52.1-11.9 12.5-7.6 22.8-17.2 27.2-32 .5-1.6 3.4-3.7 5-3.5 1.6.2 3.9 2.7 4.2 4.5 1.5 10.3 5.2 19.7 10.8 28.3 12.4 19 28.8 31.7 52.5 32.5 4.3.1 5.9 2.4 5.7 6.4-.1 5.4-.4 10.7-.7 16zM1909.4 500c.1-2.5.3-4.6.4-6.7.5-15 1-30 1.3-45 .6-36.3 3.8-72.6-.5-108.8-2.3-18.9-5.5-37.6-15.2-54.5-7.5-13.2-18.4-23.4-33.7-23.6-13.2-.2-21.7-6.3-31.2-13.5-34.4-26.4-76.3-28.6-112-6-25.4 16.1-42.6 38.9-52.2 67.4-7.1 21.2-8.4 42.6-2.2 64.3.9 3.3 2.4 4.5 5.8 4.5 12.8.3 25.2-1.1 37.5-4.8 26.2-7.8 47.5-22.9 65.2-43.4 4-4.6 6.2-4.9 9.6-.8 9.3 11.2 21.7 15.6 35.8 15.9 18.2.5 34.6-5.8 50.3-14.3 2.8-1.5 5.5-2.3 7.4.8 2 3.3.3 5.8-2.9 7.2-9 4-17.9 8-27 11.5-3 1.2-4.4 2.3-4.7 5.8-1.3 19.1-2.8 38.2-4.6 57.2-3.1 34.2 13.8 65 44.1 79.4 9 4.5 18.3 7.1 28.8 7.4zM524.9 115.1c7.3.9 13.7 1.3 19.9 2.5 3.5.6 4.8 3.6 3.6 7-1.1 3.1-3.7 3.3-6.6 2.6-21.2-5-37.8 10.3-33.3 31.5 2.4 11.3 6.4 22.4 11 33 5.6 12.9 12.5 25.2 18.8 37.7 2.2-16.2 3.5-32.1 4.9-48 .7-7.7 2.3-8.8 9.9-7.3 16.6 3.1 32.9 2.1 48.6-4.2 19.2-7.6 33.6-20.1 40.1-40.4 1.6-4.8 1.9-9.5.1-14.6-3.6-10-4.1-20.5-3.6-31.1.2-3.5 1.1-6.6 5.2-6.5 4.4.1 5.2 3.3 5.1 7-.1 4.2-.2 8.3.1 12.5 1.2 15.2 6.1 28.7 18.6 38.3 16.7 12.8 35.6 15.8 55.8 12 7.8-1.5 8.5-1.2 11.3 6.4 5.4 14.5 10.9 29 16.3 43.5.5 1.3 1.3 2.5 2.3 4.4.6-2.4 1.1-3.8 1.3-5.3 2.2-14.3 4.8-28.5 6.3-42.9 2-19.8 2-39.6-2.3-59.1-.7-3.1-1.7-6.1-2.7-9.1-8-22.2-23.1-31-46.3-26.7-3.9.7-6.4-.1-9.3-2.9-5.4-5.2-10.9-10.4-17.1-14.5-26.7-17.7-56-21.4-86.7-13.6-28.4 7.2-50.9 22.8-64.3 49.7-6.1 12.4-8.1 25.4-7 38.1zm862.1 98.8c-29.5 6.4-58.4 8.8-87-3.5.6 5.1 1.2 9 1.6 13 .3 3.3-.5 6.2-4.4 6.6-4.2.4-5.6-2.4-5.7-5.9-.4-9.4-4.2-17.4-10-24.5-5.4-6.6-11.1-12.8-16.4-19.4-2.2-2.8-3.9-6.1-5.9-9.3-1.2.9-2.1 1.4-2.8 2-11.7 9.4-24.9 12.5-39.4 8.3-5.2-1.5-8 .2-9.8 4.5-5.5 12.8-11.6 25.5-15.9 38.7-3.6 10.8-5.7 22.4-3 34 13.6 58.9 69.3 99.3 129.2 92.8 45.9-5 78.4-29 98.6-70.2.6-1.2.8-2.8.6-4.2-.7-4.6 1.5-6.2 5.7-6.9 4-.7 8.3-1.5 11.9-3.3 11.1-5.5 16.7-18.1 14-30.3-2.4-11.1-12.2-20-23.2-20.7-4.1 11.8-6.2 24-5.3 36.6.2 3.5 2.3 7.4-1.7 10-4.2 2.7-6.1-1.7-9-3.1-10-4.9-14.9-13.3-17.1-23.8-1.5-7-3.3-13.9-5-21.4zM239.9 548c-.7.5-2.3 1.4-3.7 2.6-33.3 28.5-51.8 65.2-57.4 108.2-2.3 17.4-1.5 35.2-2 52.9-.2 6.5 0 6.5 6.6 6.5h109c1.2 0 2.3-.3 4-.5-14.3-17-15.7-34.5-4.6-53.5-10.9 3.7-21.4 7.8-31.8 12.2-20.4 8.7-40.6 17.7-60.9 26.3-4.7 2-8 .7-9.1-2.9-1.4-4.6 1.5-6.7 5.3-8 5.3-1.9 10.6-4.1 16-5.8 4.7-1.4 6-4.2 6.4-9.1 1-12.6 2.8-25.1 4.7-37.5.4-2.7 2.5-5.7 4.6-7.4 1.5-1.1 4.8-1 6.7 0 1.1.5 1.8 4.4 1 5.6-4.9 7-5 15.1-5.9 22.9-.6 5.6-.1 11.4-.1 17.7 8.1-3.9 15.6-7.4 23.1-11 28.4-13.6 57.5-22.4 89.7-17.7 19.1 2.8 32.9 11 38.8 30.2 1.3 4.2 2.1 8.6 3.1 13.1 8.5 1.4 9 .9 9-7.5v-2.5c-.3-18.1.7-36.4-5.4-53.9-1.1-3.2.1-5.8 3.3-6.8 3-1 5.5.4 6.2 3.4 1.9 8.2 4.3 16.5 5 24.8 1.1 12.6.9 25.3 1.3 37.9.1 2.4 0 4.8 3.5 4.8h13.6c.1-1.7.3-3 .3-4.3 0-14.8.3-29.7 0-44.5-.8-31.8-11.7-59.5-34.2-82.4-8.1-8.2-17.2-15.1-27.7-20.5-2.6 5.1-4.8 10-7.4 14.6-12.8 22.5-28.7 42.9-45.1 62.9-3.8 4.6-6.7 4.7-10.7.2-8.1-9.3-16.4-18.5-23.9-28.2-10.5-13.9-20.7-28.3-31.3-42.8zm312.9-363.7c-.2 1.4-.5 2.7-.6 4-1.6 18.8-3.2 37.5-4.5 56.3-.2 2.2.6 4.6 1.7 6.6 20.5 37.1 52.2 56.2 94.5 57.6 9.1.3 18.9.8 24.1-10.3-2.6-2.8-5.6-6.1-8.6-9.4-6.2-6.8-6.3-14.9-.4-20.4 5.8-5.2 13.8-4.4 20 2.1 5.6 5.9 11.4 11.7 16.7 17.9 3 3.4 5.2 3.9 9 1.1 23-16.7 37.6-38.7 43.5-66.5.5-2.1.3-4.7-.5-6.8-6.9-18.7-14.1-37.4-21-56.1-1-2.7-2.2-3.4-5.1-3.1-26.7 3.2-50.7-2-69.4-23.1-.3-.3-.8-.4-1-.5-19.5 42.8-54.8 54.5-98.4 50.6zm544.8 581.8c7.8 1.7 7.9 1.7 8.7 9.9.3 2.8 1.2 4.4 4.3 4.1 1.5-.1 3 0 4.5 0h870.8c1.5 0 3.1.2 4.5-.1 1.1-.3 2.7-.9 3.1-1.9 2.8-6.5 5.4-13.1 8.3-20.5h-8.3c-188.6 0-377.3 0-565.9.1-3.7 0-7.4 1.4-11.2 1.7-3.6.3-7.2 0-10.8-.3-2.8-.2-5.5-1.4-8.2-1.4-98.1-.1-196.3-.1-294.4-.1-1.8 0-3.5.2-5.5.3.1 3.1.1 5.5.1 8.2zM272.1 386.6c2-.4 3.6-.7 5.2-1 8.7-1.6 17.2-1.4 25.6 1.6 3.1 1.1 6.2 2.6 4.7 6.8-1.4 3.7-4.5 3.2-7.6 2.1-9-3.1-17.9-2.9-26.8.7-2.9 1.2-4.5 2.6-5.4 5.6-5.3 17.4-13.5 33.3-26.4 46.5-.9.9-1.1 3.2-.7 4.6 2.7 9.7 5.6 19.4 8.7 29.1.8 2.5 2 5.4 4 7 22.3 18.5 47.9 25.9 76.7 22.6 43.9-5 81.1-42.3 85.7-86.2 1.2-11.6 1.5-23.3 2.5-34.9.8-8.9 1-8.8-7.5-10.8-26.8-6.1-43.5-23.8-54.9-47.6-.7-1.5-1.5-3.1-2.5-5.2-9.5 13.2-21.4 22.1-35.3 28.5-14 6.4-28.6 9.4-44.1 9.1-.7 7.3-1.3 14.2-1.9 21.5zm345.4-54.9c-.7.2-2.5.5-4.2 1-35.9 11.3-59.2 35.3-67.4 71.8-5.9 26.4-8.4 53.6-12.4 80.4-.9 6.4-1.5 12.8-2.3 19.5H695c-.9-8.8-.9-8.9-8.7-10.6-33.9-7.4-67.8-6.7-101.6.5-7.8 1.7-9.8.2-9.1-7.9 1.4-18.3 3.2-36.5 4.7-54.7.3-3.6 1.5-6.5 5.5-6.2 4 .3 4.9 3.5 4.5 7-.8 9.1-1.7 18.2-2.4 27.4-.6 7.5-1.1 15.1-1.7 23.6 35.3-6.9 69.5-6.9 103.6.5.2-1.2.4-1.7.3-2.1-3-17.9-5.9-35.8-9.1-53.7-3.8-21.3-10.4-41.6-21.7-60.3-1.9-3.1-4-4.7-7.9-4.7-10.5 0-19.3-4.5-25.2-13-3.6-5.4-5.6-11.9-8.7-18.5zm298.7 426.4H71.4c2.1 5.3 4.4 10 5.8 14.9 1.6 5.8 4.8 7.3 10.7 7.3 269.6-.2 539.2-.1 808.8-.1 1.3 0 2.7.2 4-.1 1.1-.2 2.4-.7 2.9-1.5 4.1-6.6 8.1-13.3 12.6-20.5zm108.8-87.7v.7c10.9-.7 21.8-1.2 32.7-2.2 26.2-2.2 44.2-22.4 41.7-47.7-1.8-18.2-4.7-36.3-7.6-54.3-1.8-11.4-10-17.9-21.7-18-30.2-.1-60.3-.1-90.5 0-12.7 0-20.8 7.6-22.4 20.2-2 16-3.9 32-6.5 47.9-3.6 22.7 9.8 44.5 32.1 50.1 7.6 1.9 15.7 2.5 23.6 3.2 6.2.5 12.4.1 18.6.1zm-85.7 59.7h-6c-42.8 0-85.7.1-128.5.1-260.7 0-521.3-.1-782 0-13 0-10.9-2.6-11.1 11.9 0 2.7 1 4 3.8 3.9 1.8-.1 3.7 0 5.5 0h897.5c3.5 0 7 .1 10.5 0 1.2-.1 3-.5 3.4-1.3 2.4-4.6 4.4-9.3 6.9-14.6zm838.9-391.3c-.6.3-1 .4-1.2.6-24.3 26.2-53.4 43.2-89.3 47.6-1 .1-2.5 2.2-2.4 3.3.3 5 .7 10 1.6 14.9 11.2 55.4 62 90.7 117.7 81.8 13.4-2.1 25.9-6.8 37.6-14.5-1.1-1.9-2.1-3.4-3-5-8.7-14.7-13.4-30.5-12.5-47.6.7-14.1 2.3-28.2 3.5-42.3.6-7.7 1-15.4 1.5-23.2-20.4 1.3-38.8-1.4-53.5-15.6zM732.3 375.6c-1.3.2-2 .1-2.5.4-14.6 5.6-29.2 11.3-43.8 16.9-3.1 1.2-2.6 3.1-2 5.6 2.6 10.7 5.4 21.3 7.5 32.1 4.5 23 8.7 46.1 12.9 69.2.7 4.1 2.6 5.3 6.7 5.2 25.1-.2 50.3-.1 75.4-.1 1.6 0 3.2-.2 5.2-.3-.1-2.1-.1-3.7-.3-5.3-3.1-24.4-5.7-48.9-9.5-73.2-3.5-22.5-10.5-44-24.3-62.8-5.6-7.6-11.9-14.5-20.2-20-1.9 8.8-7.2 17.2 1.8 24.6.7.6.9 1.8 1.3 2.7 12.4 27.1 20.8 55.4 26.7 84.6 1.6 7.8 3 15.7 4.5 23.5.6 3.3 0 6.2-3.7 7-3.5.7-5.2-1.6-5.8-4.8-.3-1.6-.7-3.3-1-4.9-4.8-27.6-11.2-54.8-21.2-81-2.3-6.6-5-13-7.7-19.4zm693.3 353.9c-.3.5-.7 1-1 1.4.5 2.4 1 4.7 1.6 7.1 2 7.9 2 7.9 10.3 7.9h612.8c10 0 8.9 1.3 8.9-9.2 0-6.7 0-6.7-6.4-6.7h-584.3c-2.2 0-4.4-.2-6.5.1-1.7.2-3.5.8-4.9 1.8-7.7 5.9-14.3 5.9-22.4.4-2.2-1.5-5.3-1.9-8.1-2.8zm-4.3-87.8c3.2-5 6.2-9.5 9.1-14.1 11.5-18.3 22.4-37 30.3-57.3 4-10.5 6-21.1 2.8-32.2-3.4-12-6.7-24-10.6-35.9-2.8-8.7-6.4-17.1-9.8-25.9-1.9.7-3.3 1.1-4.7 1.7-12.9 5.4-25.7 11-38.7 16.2-3.9 1.6-4.5 3.3-3.1 7.1 4.2 11.7 8 23.6 12.2 35.4 2.2 6.3 1.3 12-1.9 17.7-5.8 10.5-11.4 21.1-17.2 31.6-4.3 7.8-8.7 15.6-12.3 21.9 4.4 4.5 8.1 8.3 11.9 11.9 1.1 1 2.8 1.7 4.3 2 4.9 1 8.4 3.6 10.8 8 .6 1.2 1.9 2.9 2.9 2.9 6.3.3 10.4 3.6 14 9zm159.3-101.5c-19.6 4.1-38.4 8.1-57.4 12.1 1.7 7.9 3 15.1 4.8 22.1.3 1.4 2 3 3.4 3.4 7.9 2.7 10.9 6.4 11.6 14.8.1 1.3 1.2 2.9 2.4 3.6 7.2 4.4 9.3 9.3 7.8 17.7-.3 1.5.3 3.5 1.2 4.7 4.9 6.4 5.1 12.1.7 18.8-.8 1.2-1.2 3.4-.7 4.7 3.2 8.5 1.7 13.7-5.9 19.5-.8.6-1.8 1.8-1.7 2.6.7 4.2 1.8 8.3 2.8 12.8 19.4-4.1 38.2-8 57.3-12.1-8.9-41.8-17.5-82.9-26.3-124.7zM1395.2 746c-.8-3.5-1.4-5.9-2-8.3-2.5-8.8-1-7.6-9.8-7.6h-275.5c-11.8 0-9.7-1.6-10.2 10-.2 4.5 1.1 6 5.9 6 95-.1 190-.1 284.9-.1h6.7zM726.6 366.8c-.5-1.4-.8-2.2-1.1-3-1.3-3.2-4-6-1.3-10.1 5-7.6 3.9-15.4-.1-23.2-1.3-2.6-1.8-5.9-1.7-8.9.4-8.1 1.6-16.2 1.8-24.4.1-1.8-2-4.9-3.6-5.3-3-.8-4.1 1.8-4.3 4.6-.2 4-.3 8-1.1 11.9-.5 2.3-1.8 5.3-3.6 6.3-1.3.7-4.7-1-6.2-2.6-10.8-11.1-21.3-22.5-32-33.7-1-1.1-2-2.6-3.3-3-1.5-.4-4-.5-4.9.5-.9.9-.7 3.3-.4 4.9.2 1 1.4 1.8 2.2 2.6 7.4 8.1 14.8 16.3 22.2 24.4 2.3 2.5 3.5 5.3.7 7.9-2.8 2.6-5.5 1.3-7.7-1.3-1.4-1.6-2.6-3.7-4.4-4.7-1.7-.9-4.1-.7-6.1-1 .1 2.1-.5 4.5.4 6.1 1.5 2.7 4.5 4.6 5.9 7.3.8 1.7.5 4.9-.6 6.4-.7.9-4.3.5-5.9-.4-2.1-1.2-3.5-3.5-5.1-5.4-2.1-2.5-4.6-4.7-7.6-2.1s-.6 5.1 1.3 7.2c2 2.2 4.1 4.4 6 6.7 2 2.4 1.9 5-.5 7.1-2.4 2.1-4.9 1.8-7-.6-1.1-1.2-2.1-2.5-3.2-3.8-2-2.3-4.5-3.3-6.8-.7-2.2 2.5-.4 4.2 1.4 6.3 6.4 7.2 13 14.2 18.5 22 4.4 6.1 7.3 13.3 11.1 20.3 15.6-6 31.1-12.1 47-18.3zm465.5 116.6c-.3 1.9-.5 3.2-.6 4.5-1.1 13.3-2.1 26.6-3.1 39.8-2.3 31.4-4.6 62.7-6.8 94.1-1.3 17.4-2.5 34.9-3.7 52.3-.9 13-1.5 25.9-2.5 38.9-.3 4 1.1 5.5 5.1 5.3 3.3-.2 6.7-.3 10 0 3.9.3 5.4-1.4 5.4-5.2 0-5.7.3-11.3.6-17 1.7-36.6 3.2-73.2 5.1-109.8.9-17.6 2.3-35.2 3.7-52.8 1.2-14.1 2.8-28.2 4-42.3.1-1.5-.9-4.3-1.9-4.6-4.9-1.3-10-2.1-15.3-3.2zM1414 664c-10.7 8.5-13.5 8.5-24.8.2-.8-.6-2.4-.5-3.6-.3-8 1.7-13.2-.7-17.5-8-.8-1.3-2.5-2.6-4-2.8-8-1.5-12.3-5.6-12.8-13.5-.2-2.6-1-3.7-3.3-4.6-6.9-2.7-10.9-8.2-9.2-15.1 1.5-5.8-1-8.1-5.1-10.4-2-1.1-3.9-2.5-6.1-3.9-6.1 7.4-12 14.5-17.8 21.6.5.9.7 1.3 1.1 1.7 28.3 28.2 56.5 56.5 84.9 84.6 4.6 4.5 11.2 4.2 15.5-.8 6.6-7.5 12.9-15.2 19.1-23.1 4-5.1 3.2-11.8-1.8-15.5-4.7-3.6-9.7-6.8-14.6-10.1zm322.7-160.1c.4-.9.7-1.2.7-1.5.1-3.5-.1-7 .2-10.5.4-4.2-1.2-6.4-4.9-8.6-28.6-16.5-46.9-40.8-54.3-73.1-1.6-7.2-2.3-14.7-3.5-22.2h-7.5c-.2 1.3-.5 2.2-.5 3.2 0 13-.2 26 .1 38.9.4 17.7 6.3 33.6 17.8 47.1 13.6 16 30.9 24.8 51.9 26.7zM354.9 694c-2.5-5.2-4.6-9-6.1-13.1-.6-1.8-.6-4.7.5-6.1 1.7-2.4 4.5-1.8 6.4.3 1.5 1.7 2.9 3.7 3.9 5.8 1.4 3.2 2.4 6.5 3.6 9.8 1.2 3.2 3.8 4.1 6.4 2.8 1.5-.8 3.2-3.8 2.9-5.3-2.9-12.1-7.9-23.2-21.5-26.2-8.8-2-18-2.9-27.1-3-12.7-.2-21.9 6.5-26.9 18-5.2 11.9-2.9 23 5.8 32.4 5.9 6.4 13.4 10 22.9 8.8-.9-2.7-1.8-5-2.3-7.4-.5-2.6-.6-5.3-.6-7.9-.1-7.4 1.3-8.8 8.6-8.8 7.3-.1 14.6-.1 23.5-.1zm1423.3-137.7c1.7-1 2.6-1.4 3.4-1.9 14.5-10.8 29.1-21.6 43.5-32.6 13.1-9.9 14.5-15.8 9.6-34.3-20.1 9.1-41.2 12.1-63.7 9.2 2.5 20.3 4.8 39.7 7.2 59.6zm-1297-40c-8.4-1-11.6 1.7-11.6 9.9v28c0 52.9 0 105.9.1 158.8 0 1.9 1 3.8 1.6 5.7 2-.9 5.1-1.3 5.9-2.9 1.9-3.5 3.8-7.6 3.9-11.4.2-62.6.1-125.1.1-188.1zm791-157.8c.7 6.9.5 13.5 2.2 19.6 3.3 11.8 7.7 23.4 11.7 35 1 3.1 2.1 6.2 3.3 9.7 1.2-.9 2-1.3 2.5-1.9 13.4-14.9 26.6-29.8 40.1-44.5 3.4-3.8 4.7-7.7 4.5-12.6-.2-3.8-1.2-4.9-5.1-4.1-13.1 2.6-26.4 3.6-39.7 1.7-6.1-.9-12.2-1.8-19.5-2.9zm-378.9 341c18.6 3.3 18.7 3.5 20.8 18.5 6-.4 11.4-5.1 13.1-12.3 4.9-21 9.8-42 14-63.2.8-3.8-.7-9.3-3.2-12.3-3.2-3.8-8.6-5.7-13.5-8.8-10.2 25.8-20.7 51.9-31.2 78.1zM266.1 509.8c-4.3 20.4-1.1 33.5 12 43.2 11.3 8.3 27.5 8.4 39 .6 10.6-7.2 16.5-20.5 13.6-31.9-22.5 2.2-44.3-1.2-64.6-11.9zm34.2 100.6c3.6-4.5 6.4-7.9 9.2-11.4 13.7-17.8 27.4-35.6 37.2-56 3.3-6.8 3.1-7-4-9.2-.6-.2-1.2-.3-2.1-.4-5.6 21.3-18.9 34.3-41.2 34.9-22.1.6-36.4-11.1-43.5-31.7-7.7 2.3-8.4 3.2-4.3 9.3 8.1 12.4 16.5 24.6 25.4 36.4 7.1 9.4 15.1 18.3 23.3 28.1zM958.5 766c8.8 2 6.2 8 4.4 14.1h6.1c26.7 0 53.3-.1 80 .1 5.1.1 6.6-1.6 6.9-6.4.2-2.3 1.9-5.7 3.8-6.5 5.3-2.3 6-2.9 3.8-9.6h-93.8c-8.1 0-8.1 0-11.2 8.3zm143.8 57.4c.2-1.2.4-1.7.3-2.2-1.7-14.2-3.3-28.4-5.2-42.5-.2-1.1-2.7-2.7-4.1-2.7-8.3-.2-16.6 0-24.9-.1-2.7 0-3.8.8-4.1 3.6-1.8 15.8-3.9 31.6-5.8 47.5-.6 4.9-.9 9.8-1.5 15.7 14.9-9.2 28-19.1 45.3-19.3zm-168 15.2c7-22 13.7-42.9 20.5-64.2-9.3-4.2-18.2-8.4-27.2-12.2-1-.4-3.6 1-4.4 2.2-6.8 10.7-13.3 21.5-19.9 32.3-.9 1.5-1.7 3.1-2.7 5 16.5 7.6 23.7 22.8 33.7 36.9zm116.3-158.4h-51.1v39.3c16.3 0 32.5 0 48.6-.1.8 0 2.4-1.8 2.4-2.8.1-12 .1-23.9.1-36.4zM397.5 556.8c6.7-23.4 8.1-46.7 2.5-71.4-16.3 18.2-35.8 29.3-59.5 35.4 11.2 5.8 21.2 10.1 30.3 15.9 9.2 5.8 17.5 13 26.7 20.1zm60.9 148.3H333.8c0 8.3 5.8 13.8 14.1 13.8h105.4c1.6 0 3.2-.2 5.1-.4v-13.4zm1334.2 13.5c-.1-2.8 0-5.3-.4-7.6-2.7-14-17.4-29.1-31.3-32-.8-.2-1.7-.3-2.5-.1-16.8 4.3-30.6 12.3-36.3 29.9-1 3-1.3 6.3-1.9 9.4 8.6 1.4 8.6 1.4 10.8-5.8 2.7-9 8-16 16.6-20.2 2.7-1.3 5.8-1.1 6.6 2 .4 1.8-1.2 4.2-2.3 6.2-.5.9-2 1.1-2.9 1.8-5.5 4-8.7 9.2-9.4 16 8.7 1.5 8.8 1.5 12.5-5.7 2.6-5.2 6.8-8.6 12-10.7 3.1-1.2 6.5-2.3 8.1 1.7 1.6 3.8-1 5.7-4.4 6.9-3.6 1.3-6.8 3.3-7.6 8.1 10.8.1 21.3.1 32.4.1zm-844.3-63.1c-5.2 21.5-10.2 42.4-15.2 63.2 11.2 1.8 11.4 1.7 16.2-9l2.1-4.5c2.4-5.4 6.4-9 12.2-9.9 5-.8 10.2-1 15.3-1.2 12.4-.4 10.7 2.5 10.6-11.3 0-1.3-1.9-3.6-3.1-3.8-14.7-2.7-26.7-9.7-35.9-21.6-.5-.6-1.1-1-2.2-1.9zm19.6 90.2c2.5.1 4.1.2 5.7.2 26.5 0 52.9.1 79.4 0 12.6-.1 11.1 2.9 11.2-11.9 0-3.1-1.4-4-4.3-3.9-27 .1-53.9 0-80.9.1-1.5 0-3.7.5-4.3 1.6-2.4 4.2-4.4 8.7-6.8 13.9zm657.7-84.9c-.1-1.4-.1-2.3-.2-3.1-7.9-38-15.9-76.1-23.9-114.1-1.5-7.4-1.6-7.4-8.8-5.8-.8.2-1.5.5-2.8 1 8.7 41.3 17.3 82.5 26 124 3.5-.7 6.3-1.3 9.7-2zm-686.9 95.7c2.3 1.1 4.3 1.9 6.1 3 3.5 2.1 5.5 1.3 7.1-2.6 3.8-9 8.1-17.8 12.2-26.8 2.6-5.7 5.4-11.4 7.7-17.3 1.8-4.7-1.5-9.1-6-7.9-2.4.7-5 3.2-6.1 5.5-6.6 13.6-12.7 27.4-19 41.2-.8 1.5-1.3 3.1-2 4.9zm136.8-19c0 8.3.1 16.6-.1 24.9-.1 3.6 2 4.2 4.8 3.9 2.5-.3 6.2 1.4 6.2-3.4v-51.4c0-.5 0-1.1-.3-1.4-1.5-1.7-3.1-4.7-4.7-4.8-1.8 0-3.9 2.5-5.2 4.3-.8 1.2-.6 3.2-.6 4.8-.2 7.8-.1 15.5-.1 23.1zm270.4-326.8c-2.2-9.5-4.2-18.3-6.5-28.2-12.6 13.9-24.2 26.8-35.8 39.8.3.3.6.7.8 1 13.6-4.1 27.2-8.2 41.5-12.6zm-98.8-2.6c10.9 5.4 20.9 10.3 30.9 15.3.3-.3.7-.6 1-.9-4.4-12.9-8.8-25.8-13.5-39.8-6.5 9-12.2 16.9-18.4 25.4zm-124.2 438.6c-2.1-6.2-5.3-10.8-10.7-12-5.5-1.3-11.5-1.4-17.1-.8-9.5 1.2-17.2 6.6-25.9 12.8h53.7zm-250.5-31.8c16.2 7.4 32 14.6 49 22.4-7-12.3-14.2-22.3-26.3-27.6-8-3.6-15.7-2-22.7 5.2zm-358-610.8c-7 9.6-6.4 22 1 31.2 5.1 6.4 14.2 10.1 19.4 7.8-6.7-12.8-13.4-25.6-20.4-39zm510.2 306.4c6.5.1 11.9-5 12.1-11.4.2-6.4-5.4-12.3-11.8-12.2-6.4 0-11.7 5.3-11.7 11.8-.1 6.6 4.8 11.7 11.4 11.8zm-79.5 67.4c-7.8.2-13.3 5.1-13.8 12.4-.4 6-.4 12-.1 17.9.3 5.1 2.8 9 8.2 11.6 2-14.2 3.8-27.8 5.7-41.9zM761.5 209.8c9.6-4 14.6-10.7 16.5-20.1 1.7-8.6-2-18.2-8.6-22.5-2.6 14-5.1 27.9-7.9 42.6zM645.4 351.7c-1.2-1.2-2.1-2-3-2.9-6.3-6-5.9-16 1.5-20.6 4.2-2.6 4.5-5.7 4.2-10.3h-19.3c-2.1 18.1 4.4 31.6 16.6 33.8zm464.8 266.8l2.1.6c1.7-2.9 4.6-5.6 4.9-8.6.7-7.2.8-14.6.1-21.9-.6-6.4-7-11-12.6-9.8 1.8 13.2 3.7 26.5 5.5 39.7zm431.2-126.2c.1-5.6-4.8-10.5-10.5-10.5-5.5 0-10.3 4.6-10.5 10-.2 5.7 4.5 10.7 10.2 10.8 5.8.1 10.7-4.6 10.8-10.3zm-117.3 219.3c6.1 5 11.5 9.6 17.1 13.9 3 2.3 6.6 1.9 8.2-1.2 1.1-2.1 1-6.5-.4-7.9-5.1-5.1-11-9.5-16.9-14.4-2.7 3.4-5.2 6.3-8 9.6zm-535.3 7.9c3.5 0 7 .1 10.4 0 3.2-.1 5.9-1.8 5.2-5.1-.4-2-3.1-4.7-4.9-4.8-6.9-.6-13.9-.6-20.8 0-1.8.2-3.4 3.2-5 5 1.7 1.7 3.2 4.2 5.3 4.8 3 .7 6.4.1 9.8.1zm553.1-43.4v12.6c6.9.4 13.6 1.1 20.4 1.2 3.5 0 5.9-2.5 5.9-6.2 0-3.3-1.9-5.7-5.4-6-6.9-.6-13.8-1.1-20.9-1.6zm-41.7 50.1c1.9 7 3.5 13.8 5.5 20.5 1 3.5 3.8 5.2 7.4 4.2 3.5-.9 5.3-3.7 4.5-7.3-1.5-6.6-3.4-13.1-5.1-19.5-4.3.7-8 1.3-12.3 2.1zm122-107.6c7.1-1.7 13-2.7 18.6-4.7 1.7-.6 3.8-4.3 3.3-5.4-.8-1.8-3.9-3.9-5.7-3.7-5.7.7-11.4 2.1-16.8 4-1.6.6-3.5 3.7-3.3 5.4 0 1.7 2.7 3.2 3.9 4.4zm22.2 4.6c-6.9 1.6-12.8 2.7-18.5 4.6-1.6.6-3.7 3.8-3.3 5.3.4 1.7 3.5 4 5.2 3.8 5.9-.7 11.8-2.1 17.4-4 1.6-.5 3.2-3.8 3.1-5.7-.1-1.5-2.7-2.9-3.9-4zM1176 253.7c-.7-12.7-1.4-25.5-2-38.2-10.8 10.1-9.6 29.9 2 38.2zm199.2 366.7c-.2.1-1 .2-1.4.6-4.2 5.3-8.5 10.5-12.3 16.1-.7 1 .4 4.5 1.6 5.3 1.3.8 4.7.5 5.6-.7 3.9-4.7 7.4-9.8 10.6-14.9 1.8-2.7-.7-6.5-4.1-6.4zm21 15.3c-1.1-1.2-2.1-3.2-3.4-3.4-1.6-.3-4.1.5-5.1 1.7-3.5 4.2-6.4 8.9-9.6 13.4-1.8 2.5-1.5 4.7.9 6.5 2.5 1.9 4.8 1 6.5-1.3 3.2-4.3 6.2-8.7 9.2-13.1.4-.9.7-2.1 1.5-3.8zm121.6-36.1c4.9-1.2 8.9-1.6 12.2-3.2 1.7-.8 3.5-4 3.1-5.7-.4-1.6-3.5-3.6-5.4-3.6-3.6 0-7.4.9-10.6 2.4-1.7.8-3.6 3.7-3.4 5.6.2 1.7 2.9 3.2 4.1 4.5zm12.9 57.2c5.2-1.3 9.4-2 13.1-3.6 1.4-.7 2.8-4 2.3-5.6-.5-1.6-3.4-3.4-5.1-3.3-3.7.2-7.6 1.2-11 2.7-1.6.7-3.5 3.5-3.2 5.1.2 1.7 2.6 3.2 3.9 4.7zm-118.2-8.5c-1.4-2.1-1.9-4.1-3.1-4.5-1.4-.6-4.1-.6-4.9.4-2.8 3.2-5.3 6.8-7.3 10.5-.6 1.1.3 3.6 1.3 4.7.8.9 3.7 1.3 4.3.7 3.4-3.7 6.4-7.7 9.7-11.8zm-48-35.2c-.4-.5-1.1-2.3-2.2-2.6-1.6-.4-3.9-.4-5.1.5-2.9 2.2-5.5 4.8-7.7 7.7-.9 1.2-.9 3.5-.5 5 .3 1 2.2 2 3.5 2.2 3.4.4 12.1-8.5 12-12.8zm-500 96.4c-4-.2-8.2-1.5-11.1 2.2-.9 1.2-.7 5-.2 5.2 3.4 1.3 7.1 1.9 11.2 2.8.1-4.2.1-7 .1-10.2zM250.7 526.6c5.2-3.7 5.7-21.5 1.3-23.6-.4 7.7-.8 15.2-1.3 23.6z"/><path id="Layer" d="M1185.2 213.3c4.5.3 11.7-34.8 23-39.7 6.4-2.7 7.3 2.2 23.7 2 16.8-.2 25.2-20.5 29.7-15.7 3.3 3.5 12.5 21.9 28.7 35.2 42.7 35 100.4 3.9 105.5 13 4.6 8.3 4 43.5 13.7 42.3 4-.5.6-37.3 11.7-41.7 2.9-1.2 3.9.6 5.2-1.2 2.8-3.8-2-47.4-26.7-73.3-33.8-35.6-92.9-34.4-130.7-22.3-8 2.6-61.7 20.5-79 66.3-6.9 17.9-6.2 35-4.8 35.1z" fill="#24609f"/><path id="Layer" d="M1190.1 175.7s39.7-61.6 103.1-70.2c59-8 102.8 25.3 102.8 25.3s-14.2-13.4-23.3-19.3c-30.3-19.6-71-26.8-111.3-12-55.4 20.4-71.3 76.2-71.3 76.2z" fill="#2872bc"/><path id="Layer" fill-rule="evenodd" class="shp17" d="M1589.6 480.4v-26.5c0-5.7 1.9-7.1 7.3-6 4.5.9 9.8 3.6 13.2 2 3.2-1.5 4.5-7.3 6.6-11.3 3.1-5.9 5.9-11.9 9.3-17.6 1.1-1.8 3.8-2.6 5.7-3.8 1.2 2.1 3.4 4.3 3.3 6.4-1.4 19.1-3.2 38.1-4.9 57.1-.3 3.5-2.2 5.4-6 5.1-2.5-.2-5.1.3-7.5-.3-5.4-1.4-7.7 1.2-9.6 5.7-2.5 6-5.6 11.7-8.4 17.5-1.3 2.7-2.9 5.8-6.1 4.2-1.9-.9-3.4-4.3-3.5-6.7-.4-8.6-.2-17.3-.2-26 .4.2.6.2.8.2zm9.7 3.2c2.4-9.3 9.4-8.6 16.5-7.7.3 0 .8.2 1 0 1.5-1.2 3.9-2.2 4.1-3.6 1-7.5 1.5-15.1 2.2-23.1-.8.8-1.3 1-1.5 1.4-3.1 9.6-8.8 13.6-18.8 9.2-.7-.3-3.3 1.6-3.4 2.6-.2 6.9-.1 14-.1 21.2z"/><path id="Layer" class="shp14" d="M1087 442.1c-1.5 1.7-2.5 3.7-3.7 3.8-1.9.2-4.1-.5-5.7-1.5-7.4-4.7-14.1-11-22-14.4-29.5-12.8-56.8-8-81.4 12.5-1 .9-1.8 2.3-3 2.6-2 .4-4.2.2-6.3.2 0-2.2-.9-5.4.2-6.5 3.6-3.8 7.8-7.2 12.2-10.3 31.6-22 77.2-18.5 105.1 8.1 1.7 1.5 3 3.4 4.6 5.5zm-24.3 22.2c-.1 4.5-3.4 6.5-6.4 5-1.3-.7-2.4-1.8-3.5-2.8-16.7-14-39-14-55.8-.1-.6.5-1.3 1.1-1.9 1.6-2.2 2.1-4.6 2.9-7 .4-2.7-2.7-1.3-5.1 1-7.3 6.3-5.9 13.5-10.2 21.9-12.3 18-4.5 34.2-.9 48.3 11.3 1.6 1.4 2.7 3.3 3.4 4.2z"/><path id="Layer" d="M1483.1 416.5c.7-.8 1.9-3.2 2.9-3.1 2.1.2 5.1 1.1 6 2.7 5.4 9.3 10.3 18.9 15.4 28.4.2.4.7 1 .6 1.3-.6 1.9-.9 4.6-2.2 5.3-1.3.7-4.8-.1-5.5-1.2-5.8-10.2-11.3-20.6-16.8-31-.1-.4-.1-1-.4-2.4z" fill="#164b82"/><path id="Layer" fill-rule="evenodd" class="shp0" d="M489.2 719.1c4.2-12.5 2.4-24.7 2.4-36.7.2-51.3.1-102.6.1-154 0-2 0-4 .2-6 .3-4.5 2.9-6.5 7.2-6.6H803c8.4 0 8.8.4 8.8 8.7v181.4c0 2.1-.2 4.3-.6 6.4-.8 4.8-3.6 6.8-8.7 6.8-102.6-.1-205.3-.1-307.9-.1-1.7.1-3.3.1-5.4.1zm163.6-124c-11.1 0-20.2 9.1-20 19.9.2 11.1 9.2 19.8 20.2 19.8s20-9.1 20-20c0-11-9-19.8-20.2-19.7z"/><path id="Layer" class="shp19" d="M1386.5 718.2h-172.4c-7.9 0-8 0-7.7-7.6 1.7-41.3 3-82.6 5.5-123.8 2.1-33.7 5.6-67.3 8.7-101 .4-4.3 1.5-8.5 2.5-12.7.8-3.3.4-6.2-3.3-7.2-3.6-1-5.6 1.2-6.5 4.5-.5 1.9-1.1 3.8-1.9 6.2-5.3-1-10.5-1.8-15.5-3.3-1.2-.4-2.4-3.4-2.2-5.1 1.5-16.2 6.8-31.2 15.1-45.1 7.9-13.2 18.2-24.2 31.5-32.2 2.9-1.8 6.1-3.2 9.8-3.9-4.1 5.9-8.3 11.8-12.4 17.7-3.6 5.1-3.2 7.8 2.4 10.7 14.5 7.4 29.1 14.8 43.8 21.9 2.1 1 5.3.9 7.7.2 19.5-5.8 38.8-11.9 58.2-17.9 6.3-1.9 7.2-3.3 5.9-9.7-1.7-8-3.6-15.9-5.4-23.9-.4-1.7-.6-3.5-1-5.8 14.3 1.9 27.1 6.3 38.8 13.5 17 10.4 29.3 24.9 37.4 43.1 4.3 9.7 8.8 19.3 13.4 29.5-5.3 2.3-9.9 4.4-14.6 6.4-9.2 3.9-18.5 7.5-27.6 11.8-4.5 2.1-6.2.7-7.6-3.4-1.5-4.6-3.5-9-5.3-13.5-1.4-3.5-3.1-6.7-7.6-4.9-4.2 1.7-3.3 5-2.1 8.4 6.9 18.4 13.4 36.9 20.8 55.1 4.8 11.8 5.1 22.2-2.3 33.3-7.9 12.1-14.3 25.2-21.2 37.9-1.6 2.9-2.9 4.2-6.5 2.8-5.6-2.2-10.9-.8-15.1 3.5-2.4 2.5-4.4 2.1-6.9.3-2.9-2.2-6-4.1-9.1-6.2-6.6-4.6-6.9-4.6-14.3.8-3.6-3.9-7.4-8-11.1-12.2-2.6-3-5.8-4.8-8.9-1.6-2.9 2.9-1.3 6.1 1.3 8.8 3.4 3.4 6.9 6.8 10.1 10.4 1 1.1 2 3.9 1.5 4.4-1.6 1.5-4 3.4-5.9 3.1-5.3-.6-10.4-2.4-15.6-3.4-4.3-.9-7.8 1.4-6.9 4.7.5 2.1 2.9 4.3 5 5.2 3.9 1.6 8.2 2.3 12.5 3.3-4.4 6.8-4.4 7.7 1.1 13.2 27 27 54 53.9 81 80.9.7.5 1.4 1.2 2.9 2.8z"/><path id="Layer" class="shp1" d="M1873 656.6c-46 1.9-91.2 5.4-135.5 18.6 0-1.9-.1-4 0-6.1.9-24.1 1.8-48.3 2.7-72.4 0-1.2.5-2.7 0-3.4-1.3-1.9-3-4.6-4.7-4.7-1.6-.1-4.4 2.6-4.7 4.4-.9 5.7-1 11.6-1.2 17.4-.4 10.3-.6 20.7-1.2 31-.1 2-1.3 4.7-2.8 5.8-15.4 10.5-30.9 20.9-46.6 30.9-12.6 8-26.3 9.9-40.8 6.1-9.9-2.6-19.9-5.3-29.8-7.9v-1.8c5.5-1.2 11-2.6 16.6-3.7 12.2-2.5 12.2-2.5 9.7-14.6-1.5-7.2-3-14.3-4.4-21.5-.3-1.6-.5-3.2-.7-4.5.6-.4.8-.6.9-.6 16.8 4.2 29.6-2.7 40.3-14.8 18.4-20.9 36.1-42.3 54.9-62.9 10.3-11.3 21.9-21.3 33-31.8 1.2-1.1 2.7-1.8 5-3.3 1 7.9 2 15 2.9 22.2 1 8.4 1.9 16.9 3 25.3.7 5.5 4.3 7.4 8.7 4.1 19.3-14.2 38.6-28.5 57.5-43.2 4-3.1 6.9-8.1 9.3-12.7 1.5-2.9 2.5-3.5 5.5-2.6 19 5.6 34.2 16.8 47.2 31.4 20.6 23 32.8 50.3 40.6 79.9 5.6 20.9 11.5 41.8 12 63.7.2 7.2-.7 14.7-2.5 21.7-2.2 8.8-8 12.3-17.1 12.3-40.8-.1-81.7-.3-122.5-.3-4.1 0-6.1-.8-6.5-5.6-1.1-13.8-8.2-24.4-19-32.6-1.3-1-2.7-2-4-3-.2-.2-.2-.6-.6-1.5 10-1.5 19.8-3.6 29.6-4.4 22.9-1.8 45.8-3 68.8-4.2 6.4-.4 8-1.9 6.9-8.3-4.3-24.2-12.6-46.9-24.4-68.4-1.6-3-3.8-5.7-7.5-3.7-4 2.1-2.7 5.5-1 8.6 9.4 17.6 16.6 36 21.2 55.4.5 1.4.8 3.2 1.2 5.7z"/><path id="Layer" class="shp0" d="M1097.6 766.1V758c1.9-.1 3.7-.3 5.5-.3 98.1 0 196.3 0 294.4.1 2.7 0 5.5 1.1 8.2 1.4 3.6.3 7.2.5 10.8.3 3.7-.3 7.4-1.7 11.2-1.7 188.6-.1 377.3-.1 565.9-.1h8.3c-3 7.4-5.5 14-8.3 20.5-.4.9-2 1.6-3.1 1.9-1.4.3-3 .1-4.5.1h-870.8c-1.5 0-3-.1-4.5 0-3.1.3-4-1.3-4.3-4.1-1-8.3-1-8.3-8.8-10z"/><path id="Layer" class="shp20" d="M617.5 331.7c3.1 6.6 5.1 13.1 8.8 18.4 5.9 8.5 14.7 13 25.2 13 3.9 0 6 1.6 7.9 4.7 11.3 18.7 17.9 39 21.7 60.3 3.2 17.9 6.1 35.8 9.1 53.7.1.5-.1.9-.3 2.1-34.1-7.3-68.3-7.4-103.6-.5.6-8.5 1.1-16.1 1.7-23.6.7-9.1 1.6-18.2 2.4-27.4.3-3.5-.5-6.7-4.5-7-4-.3-5.2 2.6-5.5 6.2-1.5 18.3-3.3 36.5-4.7 54.7-.6 8.1 1.3 9.6 9.1 7.9 33.8-7.3 67.7-7.9 101.6-.5 7.8 1.7 7.7 1.8 8.7 10.6H531.3c.8-6.7 1.3-13.2 2.3-19.5 3.9-26.8 6.5-54 12.4-80.4 8.2-36.5 31.5-60.5 67.4-71.8 1.6-.4 3.4-.7 4.1-.9z"/><path id="Layer" class="shp0" d="M916.2 758.1c-4.4 7.3-8.4 13.9-12.6 20.5-.5.8-1.9 1.3-2.9 1.5-1.3.3-2.7.1-4 .1-269.6 0-539.2 0-808.8.1-5.9 0-9.1-1.5-10.7-7.3-1.4-4.9-3.7-9.6-5.8-14.9h844.8z"/><path id="Layer" fill-rule="evenodd" class="shp0" d="M1025 670.4c-6.2 0-12.4.4-18.5-.1-7.9-.6-15.9-1.3-23.6-3.2-22.3-5.6-35.7-27.4-32.1-50.1 2.5-15.9 4.5-31.9 6.5-47.9 1.6-12.5 9.7-20.1 22.4-20.2 30.2-.1 60.3-.1 90.5 0 11.7 0 19.9 6.6 21.7 18 2.9 18.1 5.8 36.1 7.6 54.3 2.5 25.3-15.5 45.4-41.7 47.7-10.9.9-21.8 1.5-32.7 2.2-.1-.3-.1-.5-.1-.7zm-34.5-87.3c7.5 0 14.2-5.7 14.4-12.9.1-1.9-2.1-3.9-3.3-5.9-1.9 1.2-4.7 2.1-5.4 3.8-1.1 3-1.9 5.8-5.6 6-4 .1-4.8-2.8-6.1-6-.7-1.7-3.5-2.5-5.4-3.8-1.1 2-3.3 4-3.2 5.9.5 7.4 7 12.9 14.6 12.9zm66.4 0c7.5.3 14.1-4.8 15-12.3.2-2-1.4-5.3-3.1-6.2-2.9-1.5-5 .9-5.6 3.8-.7 3.3-2.1 5.7-5.7 5.7-3.7-.1-4.5-2.8-5.7-5.8-.7-1.7-3.5-2.7-5.3-3.9-1.2 2.1-3.4 4.3-3.3 6.3.5 6.9 6.6 12.2 13.7 12.4zm-31.8 12c3.6 0 7.4.5 10.9-.2 1.9-.4 3.5-2.6 5.2-4-1.8-1.6-3.4-4.4-5.3-4.5-7.4-.5-14.9-.5-22.4 0-1.8.1-4.4 2.4-4.8 4.1-.8 3.3 1.9 4.5 4.9 4.6h11.5z"/><path id="Layer" d="M939.3 730.1c-2.5 5.3-4.6 10-7 14.5-.4.8-2.2 1.3-3.4 1.3-3.5.2-7 0-10.5 0H20.9c-1.8 0-3.7-.1-5.5 0-2.8.1-3.8-1.2-3.8-3.9.2-14.6-1.9-11.9 11.1-11.9h782c42.8 0 85.7-.1 128.5-.1 1.8.1 3.4.1 6.1.1z" fill="#d09366"/><path id="Layer" fill-rule="evenodd" class="shp2" d="M1778.2 338.8c14.7 14.2 33.1 16.9 53.6 15.6-.5 7.8-.9 15.5-1.5 23.2-1.1 14.1-2.7 28.2-3.5 42.3-.9 17.1 3.8 32.9 12.5 47.6.9 1.6 1.9 3.1 3 5-11.7 7.7-24.2 12.4-37.6 14.5-55.7 8.9-106.5-26.5-117.7-81.8-1-4.9-1.4-9.9-1.6-14.9-.1-1.1 1.5-3.1 2.4-3.3 35.9-4.4 65-21.4 89.3-47.6.1-.2.5-.3 1.1-.6zm.2 109.1c3.7 0 8.6-4.1 9.1-10.8.3-2.9-.5-5.9-.6-8.9-.1-1.4.3-2.8.3-4.2 0-.4.1-1 .1-2 .1-3.2-.2-3.8-.5-4.1-.3-.3-.8-.4-1.7-.6-.7-.1-2.7-.4-4.8.6-.5.2-.8.5-.9.5-2.1 1.5-12.5 7.1-22.9 7-2.4 0-3.9 0-6-.5-1.5-.4-2.9-.6-4.4-1-.8-.2-1.9-.5-3.1-.3-.3.1-.9.2-1.5.6-1.3.8-1.6 2.1-1.8 2.6-1 3.2.9 5.2 3.9 5.9 4.4.9 8.8 1.8 13.2 2 3.4.1 5.3.8 6.7 4.2 2.2 5.1 5.7 9.1 14.9 9zm32.4-81.1c1.1-1 3.8-2.4 3.9-3.8 0-1.9-1.8-5-3.5-5.5-11.9-3.4-23.7-2.7-35 2.7-1.6.8-2 3.9-3 5.9 2.1.9 4.7 3.1 6.1 2.5 10-4.2 20-4.9 31.5-1.8zM1709.9 411c5.7 0 10.2-4.3 10.4-9.8.2-5.6-4.6-10.6-10.3-10.6-5.7 0-10.5 4.8-10.4 10.5.2 5.5 4.6 9.9 10.3 9.9zm97.5-16.1c0-5.9-4.5-10.2-10.6-10.1-5.6.1-10.1 4.7-10.1 10.2.1 5.7 4.8 10.2 10.7 10.1 5.7-.1 10-4.5 10-10.2z"/><path id="Layer" class="shp20" d="M732.3 375.6c2.6 6.4 5.4 12.8 7.9 19.3 10 26.2 16.4 53.4 21.2 81 .3 1.6.6 3.3 1 4.9.6 3.2 2.3 5.4 5.8 4.8 3.7-.7 4.4-3.6 3.7-7-1.5-7.8-2.9-15.7-4.5-23.5-5.9-29.1-14.3-57.5-26.7-84.6-.4-.9-.6-2.1-1.3-2.7-9-7.4-3.7-15.8-1.8-24.6 8.3 5.5 14.6 12.4 20.2 20 13.8 18.7 20.7 40.2 24.3 62.8 3.8 24.3 6.4 48.8 9.5 73.2.2 1.6.2 3.2.3 5.3-2 .1-3.6.3-5.2.3-25.1 0-50.3-.1-75.4.1-4.1 0-6-1.2-6.7-5.2-4.2-23.1-8.4-46.2-12.9-69.2-2.1-10.8-4.9-21.4-7.5-32.1-.6-2.5-1.2-4.4 2-5.6 14.6-5.6 29.2-11.3 43.8-16.9.4-.1 1.1-.1 2.3-.3z"/><path id="Layer" class="shp4" d="M1425.6 729.5c2.7.9 5.9 1.3 8.2 2.9 8 5.5 14.7 5.5 22.4-.4 1.3-1 3.2-1.6 4.9-1.8 2.1-.3 4.3-.1 6.5-.1h584.3c6.4 0 6.4 0 6.4 6.7 0 10.4 1.1 9.2-8.9 9.2h-612.8c-8.3 0-8.3 0-10.3-7.9-.6-2.3-1.1-4.7-1.6-7.1l.9-1.5z"/><path id="Layer" class="shp10" d="M1421.3 641.7c-3.6-5.4-7.7-8.7-13.8-9.1-1-.1-2.3-1.7-2.9-2.9-2.4-4.4-5.9-7-10.8-8-1.5-.3-3.2-.9-4.3-2-3.9-3.6-7.5-7.4-11.9-11.9 3.6-6.4 8-14.1 12.3-21.9 5.8-10.5 11.4-21.1 17.2-31.6 3.1-5.7 4.1-11.4 1.9-17.7-4.2-11.8-7.9-23.7-12.2-35.4-1.4-3.8-.8-5.5 3.1-7.1 13-5.2 25.8-10.8 38.7-16.2 1.3-.6 2.7-1 4.7-1.7 3.4 8.8 7 17.2 9.8 25.9 3.9 11.9 7.1 23.9 10.6 35.9 3.2 11.1 1.2 21.7-2.8 32.2-7.8 20.3-18.7 39-30.3 57.3-3.1 4.6-6.1 9.2-9.3 14.2z"/><path id="Layer" class="shp0" d="M1580.6 540.2c8.8 41.8 17.4 82.9 26.2 124.7-19.1 4-37.9 8-57.3 12.1-1-4.5-2.1-8.6-2.8-12.8-.1-.7.9-2 1.7-2.6 7.6-5.8 9.1-10.9 5.9-19.5-.5-1.3-.1-3.4.7-4.7 4.4-6.8 4.2-12.4-.7-18.8-.9-1.2-1.4-3.2-1.2-4.7 1.5-8.3-.7-13.3-7.8-17.7-1.1-.7-2.3-2.3-2.4-3.6-.7-8.5-3.7-12.2-11.6-14.8-1.4-.5-3-2.1-3.4-3.4-1.8-7.1-3.1-14.2-4.8-22.1 19.2-4 37.9-8 57.5-12.1z"/><path id="Layer" class="shp4" d="M1395.2 746h-6.7c-95 0-190 0-284.9.1-4.8 0-6-1.5-5.9-6 .5-11.6-1.6-10 10.2-10h275.5c8.8 0 7.3-1.2 9.8 7.6.6 2.4 1.1 4.8 2 8.3z"/><path id="Layer" class="shp2" d="M726.6 366.8c-15.9 6.2-31.4 12.2-47 18.3-3.7-7-6.7-14.1-11.1-20.3-5.5-7.8-12.1-14.9-18.5-22-1.9-2.1-3.6-3.8-1.4-6.3 2.3-2.6 4.8-1.6 6.8.7 1.1 1.3 2.1 2.6 3.2 3.8 2.1 2.4 4.6 2.7 7 .6 2.4-2.1 2.5-4.6.5-7.1-1.9-2.3-4-4.5-6-6.7-1.9-2.2-4.3-4.6-1.3-7.2 3-2.6 5.5-.4 7.6 2.1 1.6 1.9 3.1 4.2 5.1 5.4 1.6.9 5.2 1.3 5.9.4 1.1-1.5 1.5-4.7.6-6.4-1.4-2.7-4.4-4.6-5.9-7.3-.9-1.6-.3-4-.4-6.1 2.1.3 4.4.1 6.1 1 1.8 1 3 3.1 4.4 4.7 2.2 2.6 4.9 3.9 7.7 1.3 2.8-2.6 1.6-5.4-.7-7.9-7.4-8.1-14.8-16.2-22.2-24.4-.8-.9-2-1.7-2.2-2.6-.3-1.6-.5-4 .4-4.9.9-.9 3.4-.9 4.9-.5 1.3.4 2.3 1.9 3.3 3 10.6 11.3 21.2 22.6 32 33.7 1.5 1.5 4.9 3.2 6.2 2.6 1.8-.9 3.1-3.9 3.6-6.3.8-3.9.9-7.9 1.1-11.9.2-2.9 1.3-5.5 4.3-4.6 1.6.5 3.6 3.5 3.6 5.3-.3 8.1-1.4 16.2-1.8 24.4-.1 3 .4 6.3 1.7 8.9 4 7.8 5.1 15.6.1 23.2-2.7 4.1 0 6.9 1.3 10.1.3.8.5 1.6 1.1 3z"/><path id="Layer" class="shp10" d="M1192.1 483.4c5.3 1.1 10.4 1.8 15.2 3.3 1 .3 2.1 3.1 1.9 4.6-1.2 14.1-2.8 28.2-4 42.3-1.4 17.6-2.8 35.2-3.7 52.8-1.9 36.6-3.5 73.2-5.1 109.8-.3 5.7-.5 11.3-.6 17 0 3.8-1.5 5.5-5.4 5.2-3.3-.2-6.7-.2-10 0-3.9.2-5.3-1.3-5.1-5.3.9-12.9 1.6-25.9 2.5-38.9 1.2-17.4 2.4-34.9 3.7-52.3 2.3-31.4 4.5-62.7 6.8-94.1 1-13.3 2.1-26.6 3.1-39.8.2-1.4.5-2.7.7-4.6z"/><path id="Layer" class="shp0" d="M1414 664c4.8 3.3 9.9 6.5 14.7 10.1 5 3.8 5.9 10.4 1.8 15.5-6.2 7.8-12.6 15.5-19.1 23.1-4.3 4.9-11 5.3-15.5.8-28.4-28.1-56.6-56.4-84.9-84.6-.3-.3-.5-.8-1.1-1.7 5.8-7 11.7-14.2 17.8-21.6 2.2 1.5 4.1 2.8 6.1 3.9 4.1 2.3 6.6 4.6 5.1 10.4-1.8 6.9 2.2 12.4 9.2 15.1 2.3.9 3.2 2 3.3 4.6.5 7.9 4.8 12 12.8 13.5 1.5.3 3.2 1.5 4 2.8 4.3 7.2 9.4 9.6 17.5 8 1.1-.2 2.7-.3 3.6.3 11.3 8.2 14 8.3 24.7-.2z"/><path id="Layer" class="shp12" d="M1736.7 503.9c-21-1.9-38.3-10.7-51.9-26.6-11.5-13.5-17.4-29.4-17.8-47.1-.3-13-.1-26-.1-38.9 0-1 .3-1.9.5-3.2h7.5c1.2 7.6 1.9 15 3.5 22.2 7.4 32.3 25.7 56.6 54.3 73.1 3.7 2.1 5.3 4.4 4.9 8.6-.4 3.5-.2 7-.2 10.5 0 .1-.3.4-.7 1.4z"/><path id="Layer" class="shp2" d="M1778.2 556.3c-2.4-19.9-4.7-39.3-7.1-59.6 22.5 2.9 43.5-.2 63.7-9.2 4.9 18.5 3.5 24.4-9.6 34.3-14.4 10.9-29 21.7-43.5 32.6-.9.6-1.8 1-3.5 1.9z"/><path id="Layer" d="M481.2 516.3c0 63 .1 125.6-.2 188.1 0 3.8-1.9 7.9-3.9 11.4-.9 1.6-3.9 2-5.9 2.9-.6-1.9-1.6-3.8-1.6-5.7-.1-52.9-.1-105.9-.1-158.8v-28c.1-8.2 3.3-10.9 11.7-9.9z" fill="#d6d3cc"/><path id="Layer" class="shp10" d="M1272.2 358.5c7.3 1.1 13.4 1.9 19.4 2.8 13.3 1.9 26.6.9 39.7-1.7 3.9-.8 4.9.3 5.1 4.1.2 4.9-1 8.8-4.5 12.6-13.5 14.7-26.7 29.7-40.1 44.5-.5.6-1.3 1-2.5 1.9-1.2-3.5-2.3-6.6-3.3-9.7-4-11.7-8.3-23.2-11.7-35-1.6-6-1.4-12.6-2.1-19.5z"/><g id="Layer"><path id="Layer" class="shp19" d="M239.9 548c10.6 14.5 20.8 28.9 31.5 42.9 7.5 9.7 15.8 18.9 23.9 28.2 4 4.5 6.9 4.5 10.7-.2 16.4-20 32.2-40.4 45.1-62.9 2.6-4.6 4.8-9.4 7.4-14.6 10.5 5.4 19.6 12.3 27.7 20.5 22.5 22.8 33.4 50.6 34.2 82.4.4 14.8.1 29.7 0 44.5 0 1.3-.2 2.6-.3 4.3h-13.6c-3.4 0-3.4-2.4-3.5-4.8-.3-12.6-.2-25.3-1.3-37.9-.7-8.4-3.1-16.6-5-24.8-.7-3-3.3-4.4-6.2-3.4-3.2 1-4.4 3.6-3.3 6.8 6.1 17.6 5.1 35.8 5.4 53.9v2.5c0 8.4-.5 8.8-9 7.5-1.1-4.4-1.8-8.8-3.1-13.1-5.8-19.1-19.7-27.4-38.8-30.2-32.1-4.7-61.3 4.1-89.7 17.7-7.5 3.6-15 7.1-23.1 11 0-6.4-.5-12.1.1-17.7.9-7.9 1-16 5.9-22.9.8-1.2.1-5.1-1-5.6-1.9-.9-5.2-1.1-6.7 0-2.2 1.7-4.2 4.7-4.6 7.4-2 12.5-3.8 25-4.7 37.5-.4 4.9-1.7 7.6-6.4 9.1-5.4 1.7-10.6 3.9-16 5.8-3.8 1.4-6.7 3.4-5.3 8 1.1 3.6 4.4 4.9 9.1 2.9 20.4-8.7 40.6-17.7 60.9-26.3 10.4-4.4 20.9-8.4 31.8-12.2-11.1 19-9.7 36.4 4.6 53.5-1.6.2-2.8.5-4 .5h-109c-6.7 0-6.8 0-6.6-6.5.5-17.6-.3-35.5 2-52.9 5.6-43 24-79.7 57.4-108.2 1.2-1.3 2.8-2.2 3.5-2.7z"/><path id="Layer" class="shp2" d="M354.9 694h-23.5c-7.3 0-8.7 1.4-8.6 8.8 0 2.6.1 5.3.6 7.9.4 2.4 1.4 4.7 2.3 7.4-9.5 1.3-16.9-2.3-22.9-8.8-8.7-9.4-11-20.5-5.8-32.4 5-11.5 14.2-18.1 26.9-18 9.1.1 18.3 1 27.1 3 13.5 3 18.5 14.1 21.5 26.2.4 1.5-1.3 4.5-2.9 5.3-2.6 1.4-5.2.4-6.4-2.8-1.2-3.3-2.2-6.6-3.6-9.8-.9-2.1-2.3-4-3.9-5.8-1.9-2.2-4.7-2.7-6.4-.3-1 1.4-1.1 4.3-.5 6.1 1.5 4.2 3.6 8 6.1 13.2zm-88.8-184.2c20.4 10.7 42.1 14.1 64.6 11.9 2.9 11.3-3 24.7-13.6 31.9-11.5 7.8-27.7 7.7-39-.6-13.2-9.7-16.3-22.9-12-43.2z"/></g><path id="Layer" class="shp0" d="M300.3 610.4c-8.2-9.8-16.3-18.7-23.4-28.2-8.9-11.8-17.3-24-25.4-36.4-4-6.1-3.3-7 4.3-9.3 7.1 20.7 21.4 32.4 43.5 31.7 22.3-.6 35.6-13.6 41.2-34.9.9.2 1.5.3 2.1.4 7.1 2.1 7.3 2.3 4 9.2-9.8 20.4-23.5 38.2-37.2 56-2.6 3.6-5.5 7.1-9.1 11.5zM958.5 766c3.1-8.4 3.1-8.4 11.2-8.4h93.8c2.2 6.7 1.6 7.3-3.8 9.6-1.9.8-3.7 4.2-3.8 6.5-.3 4.8-1.8 6.5-6.9 6.4-26.7-.3-53.3-.1-80-.1h-6.1c1.8-6 4.3-12-4.4-14z"/><path id="Layer" class="shp7" d="M397.5 556.8c-9.2-7.1-17.5-14.3-26.7-20.1-9.1-5.8-19.1-10.1-30.3-15.9 23.7-6.1 43.2-17.2 59.5-35.4 5.6 24.6 4.2 48-2.5 71.4z"/><path id="Layer" d="M458.4 705.1v13.5c-1.9.1-3.5.4-5.1.4H347.9c-8.3 0-14.1-5.6-14.1-13.8 41.4-.1 82.7-.1 124.6-.1z" fill="#d3d3d3"/><path id="Layer" class="shp2" d="M1792.6 718.6h-32.5c.8-4.8 4-6.8 7.6-8.1 3.4-1.2 6-3.1 4.4-6.9-1.7-3.9-5.1-2.9-8.1-1.7-5.3 2.1-9.4 5.5-12 10.7-3.6 7.2-3.7 7.2-12.5 5.7.8-6.8 4-12 9.4-16 .9-.7 2.4-.9 2.9-1.8 1.1-1.9 2.8-4.4 2.3-6.2-.8-3.1-3.8-3.3-6.6-2-8.6 4.1-13.9 11.1-16.6 20.2-2.2 7.2-2.2 7.2-10.8 5.8.6-3.1.9-6.4 1.9-9.4 5.8-17.6 19.6-25.6 36.3-29.9.8-.2 1.7-.1 2.5.1 13.9 2.9 28.7 18 31.3 32 .6 2.3.4 4.7.5 7.5z"/><path id="Layer" class="shp0" d="M948.3 655.5c1 .9 1.7 1.3 2.2 1.9 9.1 11.9 21.1 18.9 35.9 21.6 1.3.2 3.1 2.5 3.1 3.8.1 13.8 1.8 10.9-10.6 11.3-5.1.2-10.3.4-15.3 1.2-5.8.9-9.9 4.5-12.2 9.9l-2.1 4.5c-4.8 10.7-5 10.8-16.2 9 5-20.8 10.1-41.8 15.2-63.2z"/><path id="Layer" class="shp4" d="M967.9 745.7c2.5-5.2 4.4-9.7 6.8-14 .6-1 2.8-1.6 4.3-1.6 27-.1 53.9 0 80.9-.1 2.9 0 4.3.8 4.3 3.9-.1 14.8 1.4 11.8-11.2 11.9-26.5.2-52.9.1-79.4 0-1.6.2-3.2 0-5.7-.1z"/><path id="Layer" class="shp6" d="M1625.6 660.8c-3.3.7-6.2 1.3-9.8 2-8.7-41.5-17.3-82.7-26-124 1.3-.5 2.1-.8 2.8-1 7.3-1.6 7.3-1.6 8.8 5.8 8 38 15.9 76.1 23.9 114.1.2.8.2 1.7.3 3.1z"/><path id="Layer" class="shp24" d="M938.7 756.5c.7-1.8 1.2-3.3 1.9-4.8 6.3-13.8 12.4-27.6 19-41.2 1.1-2.4 3.7-4.9 6.1-5.5 4.5-1.2 7.8 3.2 6 7.9-2.3 5.9-5 11.6-7.7 17.3-4.1 8.9-8.3 17.7-12.2 26.8-1.6 3.9-3.6 4.7-7.1 2.6-1.8-1.2-3.8-2-6-3.1zm136.8-19v-22.9c0-1.6-.2-3.7.6-4.8 1.3-1.9 3.5-4.4 5.2-4.3 1.6 0 3.2 3 4.7 4.8.3.3.3 1 .3 1.4 0 17.1.1 34.2 0 51.4 0 4.8-3.8 3.1-6.2 3.4-2.8.3-4.8-.2-4.8-3.9.3-8.5.2-16.8.2-25.1z"/><path id="Layer" class="shp0" d="M1345.9 410.7c-14.3 4.3-27.9 8.5-41.5 12.6-.3-.3-.6-.7-.8-1 11.6-12.9 23.3-25.8 35.8-39.8 2.3 9.9 4.3 18.7 6.5 28.2zm-98.8-2.6c6.2-8.5 11.9-16.4 18.4-25.4 4.7 14 9.1 26.9 13.5 39.8-.3.3-.7.6-1 .9-10-5-20-9.9-30.9-15.3z"/><path id="Layer" class="shp24" d="M1122.9 846.7h-53.6c8.7-6.2 16.4-11.6 25.9-12.8 5.6-.7 11.6-.5 17.1.8 5.3 1.2 8.5 5.8 10.6 12zm-250.5-31.8c7-7.2 14.7-8.8 22.7-5.2 12 5.3 19.3 15.2 26.3 27.6-17-7.8-32.8-15-49-22.4z"/><path id="Layer" d="M514.4 204.1c7 13.4 13.7 26.2 20.4 39-5.2 2.3-14.2-1.5-19.4-7.8-7.4-9.2-8.1-21.6-1-31.2z" fill="#fbba9f"/><path id="Layer" class="shp0" d="M1024.6 510.5c-6.5-.1-11.5-5.2-11.4-11.9 0-6.4 5.3-11.7 11.7-11.8 6.4 0 12 5.8 11.8 12.2-.3 6.5-5.6 11.6-12.1 11.5z"/><path id="Layer" class="shp24" d="M945.1 577.9c-1.9 14.1-3.7 27.7-5.6 41.9-5.4-2.6-7.9-6.5-8.2-11.6-.3-6-.3-12 .1-17.9.4-7.2 5.9-12.1 13.7-12.4z"/><path id="Layer" d="M761.5 209.8c2.7-14.7 5.3-28.6 7.9-42.6 6.6 4.3 10.3 13.9 8.6 22.5-1.8 9.4-6.9 16.2-16.5 20.1z" fill="#ffbe9f"/><path id="Layer" d="M645.4 351.7c-12.2-2.2-18.7-15.7-16.6-33.8h19.3c.3 4.5 0 7.6-4.2 10.3-7.4 4.6-7.8 14.6-1.5 20.6.9.9 1.8 1.7 3 2.9z" fill="#d3c0b1"/><path id="Layer" class="shp24" d="M1110.2 618.5c-1.9-13.2-3.7-26.5-5.5-39.7 5.6-1.2 12 3.4 12.6 9.8.7 7.2.6 14.6-.1 21.9-.3 3-3.2 5.8-4.9 8.6l-2.1-.6z"/><path id="Layer" class="shp0" d="M1541.4 492.3c-.1 5.7-5 10.4-10.8 10.3-5.7-.1-10.5-5.1-10.2-10.8.2-5.4 5-10 10.5-10 5.7 0 10.6 5 10.5 10.5zm-117.3 219.3c2.8-3.3 5.2-6.2 8-9.6 5.9 4.9 11.8 9.2 16.9 14.4 1.4 1.5 1.5 5.8.4 7.9-1.6 3.1-5.2 3.5-8.2 1.2-5.6-4.3-11-8.9-17.1-13.9zm-535.3 7.9c-3.3 0-6.8.6-9.9-.2-2-.5-3.5-3.1-5.3-4.8 1.7-1.7 3.2-4.8 5-5 6.9-.6 13.9-.6 20.8 0 1.8.2 4.5 2.9 4.9 4.8.7 3.3-2 5-5.2 5.1-3.4.3-6.9.2-10.3.1zm553.1-43.4c7.1.6 14 1 20.8 1.6 3.6.3 5.4 2.7 5.4 6 0 3.6-2.3 6.2-5.9 6.2-6.7 0-13.5-.8-20.4-1.2.1-4.3.1-8 .1-12.6zm-41.7 50.1c4.3-.8 8.1-1.4 12.3-2.1 1.7 6.5 3.6 13 5.1 19.5.8 3.6-1 6.3-4.5 7.3-3.6 1-6.4-.7-7.4-4.2-2.1-6.7-3.7-13.5-5.5-20.5z"/><path id="Layer" class="shp2" d="M1522.2 618.6c-1.2-1.2-3.8-2.7-4-4.4-.2-1.7 1.7-4.8 3.3-5.4 5.4-1.9 11.1-3.3 16.8-4 1.8-.2 4.9 1.9 5.7 3.7.5 1.2-1.6 4.9-3.3 5.4-5.5 2-11.5 3-18.5 4.7zm22.2 4.6c1.2 1.1 3.9 2.5 3.9 4 .1 1.9-1.5 5.2-3.1 5.7-5.6 1.9-11.5 3.2-17.4 4-1.7.2-4.8-2.1-5.2-3.8-.4-1.5 1.7-4.8 3.3-5.3 5.7-1.9 11.6-3 18.5-4.6z"/><path id="Layer" class="shp10" d="M1176 253.7c-11.6-8.3-12.9-28.1-2-38.2.7 12.7 1.4 25.5 2 38.2zm199.2 366.7c3.5 0 5.9 3.7 4.2 6.4-3.2 5.2-6.7 10.2-10.6 14.9-.9 1.1-4.3 1.5-5.6.7-1.2-.8-2.3-4.2-1.6-5.3 3.8-5.6 8.1-10.8 12.3-16.1.3-.4 1.1-.5 1.3-.6zm21 15.3c-.7 1.7-1 2.9-1.7 3.8-3 4.4-6.1 8.8-9.2 13.1-1.7 2.3-3.9 3.2-6.5 1.3-2.4-1.8-2.7-4-.9-6.5 3.2-4.5 6.2-9.1 9.6-13.4 1-1.2 3.5-2 5.1-1.7 1.4.2 2.5 2.2 3.6 3.4z"/><path id="Layer" class="shp2" d="M1517.8 599.6c-1.2-1.3-3.9-2.8-4-4.5-.1-1.8 1.7-4.8 3.4-5.6 3.2-1.5 7-2.4 10.6-2.4 1.9 0 5 2 5.4 3.6.4 1.6-1.4 4.9-3.1 5.7-3.5 1.6-7.4 2-12.3 3.2zm12.9 57.2c-1.3-1.5-3.7-3-4-4.8-.2-1.6 1.6-4.4 3.2-5.1 3.4-1.5 7.3-2.5 11-2.7 1.7-.1 4.6 1.8 5.1 3.3.5 1.6-.9 4.9-2.3 5.6-3.6 1.7-7.8 2.3-13 3.7z"/><path id="Layer" class="shp10" d="M1412.5 648.3c-3.3 4.1-6.3 8.1-9.7 11.7-.6.6-3.4.2-4.3-.7-1-1.1-1.9-3.6-1.3-4.7 2-3.7 4.5-7.3 7.3-10.5.8-.9 3.5-.9 4.9-.4 1.2.5 1.7 2.5 3.1 4.6zm-48-35.2c.1 4.3-8.6 13.3-12 12.8-1.3-.2-3.1-1.2-3.5-2.2-.5-1.5-.4-3.9.5-5 2.2-2.9 4.9-5.5 7.7-7.7 1.2-.9 3.5-.9 5.1-.5 1.1.3 1.8 2 2.2 2.6z"/><path id="Layer" class="shp0" d="M864.5 709.5v10.3c-4.1-.9-7.8-1.5-11.2-2.8-.6-.2-.8-4.1.2-5.2 2.8-3.9 7-2.5 11-2.3z"/><path id="Layer" d="M250.7 526.6c.5-8.4.9-15.9 1.3-23.6 4.4 2.1 3.9 20-1.3 23.6z" fill="#3e87bc"/><path id="Layer" d="M1599.3 483.6c0-7.1-.1-14.3.2-21.4 0-1 2.7-2.9 3.4-2.6 10 4.4 15.7.5 18.8-9.2.1-.4.7-.6 1.5-1.4-.7 8.1-1.1 15.7-2.2 23.1-.2 1.4-2.7 2.5-4.1 3.6-.2.2-.7 0-1 0-7.1-.7-14.2-1.5-16.6 7.9z" fill="#ffc001"/><path id="Layer" fill-rule="evenodd" class="shp14" d="M652.8 595.1c11.1 0 20.2 8.8 20.2 19.7 0 11-9 20-20 20-11.1 0-20-8.7-20.2-19.8-.2-10.8 8.9-19.9 20-19.9zm.1 9.8c-5.6 0-10.3 4.6-10.3 10.1 0 5.4 4.8 10 10.4 10 5.5.1 10.2-4.6 10.2-10.1s-4.6-10-10.3-10z"/><path id="Layer" class="shp14" d="M1771.5 239.1c15.2 0 28.8 4.4 40.6 14.2 2.6 2.2 4.9 4.6 2.1 7.9-2.7 3.2-5.4 1.4-7.8-.6-10.5-9-23-12.3-36.6-12.4-1.7 0-3.6.4-4.9-.2-1.8-.9-3.1-2.7-4.6-4.2 1.6-1.6 2.9-3.7 4.8-4.5 1.8-.8 4.2-.2 6.4-.2z"/><path id="Layer" class="shp17" d="M1257.5 229.8c0 5.5-3.9 7.5-8.3 5.1-8.4-4.5-17.2-6.1-26.5-4.7-4.1.6-8 2-12 3.3-3.4 1.2-6.1.7-7.4-2.7-1.2-3.3.6-5.4 3.6-6.7 16-6.8 31.7-6.4 47 2 1.7.9 2.8 2.8 3.6 3.7zm82.1-9.1c9.2 1.1 17.7 3 25.6 7.4 3.1 1.7 5.1 4.1 3.1 7.7-1.9 3.4-4.9 2.8-7.8 1.3-12.3-6.3-24.8-6.9-37.6-1.7-3.3 1.3-6.5 1.6-8-2.1-1.7-4.1 1.1-6.3 4.6-7.3 6.7-2 13.4-3.6 20.1-5.3zm-54.3 76.6c-5.7-1.9-11.7-3.6-17.4-5.8-2.9-1.1-4.3-3.9-2.6-7 1.7-3.1 4.5-3.3 7.3-1.8 9.1 5 18.3 3.7 27.5.6.8-.3 1.6-.6 2.4-.8 3.2-1.1 6.1-.9 7.4 2.7 1.4 3.7-.9 5.9-4 6.8-6.5 1.9-13.1 3.4-20.6 5.3zm54.7-32.2c-6.4.1-11.5-4.7-11.7-11.1-.2-6.6 4.9-11.9 11.4-12 6.3-.1 11.8 5.4 11.8 11.7-.1 6.4-5.1 11.3-11.5 11.4zm-122.7-11.5c.1-6.4 5.6-11.8 11.9-11.5 6.2.2 11.3 5.5 11.3 11.7 0 6.4-5.4 11.6-11.9 11.4-6.4-.2-11.3-5.3-11.3-11.6z"/><path id="Layer" class="shp30" d="M696 253c-8.02 0-14.5-6.48-14.5-14.5S687.98 224 696 224s14.5 6.48 14.5 14.5S704.02 253 696 253z"/><path id="Layer" class="shp14" d="M689.2 228.8c.8.7 3.5 2.1 4 4 .9 3.3-1.5 5-4.8 5.4-8.7.9-16.2 4.3-22.3 10.8-1.1 1.2-4.8 1.4-6.4.5-2.8-1.6-2.2-4.5-.1-6.8 7.3-8.5 16.7-13 29.6-13.9zm-89.7 4.2c-5.8 0-10.1-4.3-10-10.1.1-5.5 4.3-9.7 9.8-9.8 5.6-.1 10.1 4.5 10 10.1 0 5.5-4.3 9.7-9.8 9.8zm93.3-33.9c5.5.1 9.6 4.3 9.6 9.9 0 5.7-4.4 10.1-10.1 9.9-5.5-.1-9.7-4.5-9.7-9.9 0-5.7 4.4-10 10.2-9.9zM307 455.8c16.7 1.1 33 2.2 49.4 3.3.1 13-12.6 24.3-25.7 23.6-14.3-.8-25.5-13.1-23.7-26.9zm-20.3-47.7c9.5 0 16.9 7.3 16.4 15.6-.1 2.1-2.2 5.1-4.1 5.7-3 .9-4.7-1.7-5.1-4.7-.4-3.6-1.5-6.7-5.6-7-4.3-.3-5.8 2.7-7.2 6.2-.7 1.6-3.4 3.5-5.1 3.5-3.1-.1-6.9-.8-8.9-2.9-2.1-2.2-.6-5.1 2.8-6.5 1.9-.8 3.9-2.1 5.3-3.6 3.5-3.8 7.5-6.1 11.5-6.3zm95.8 6.2c5.4.5 9.9 2.9 13.1 8 1.1 1.8 2.9 3.3 4.7 4.5 2.9 2 4.2 4.9 1.5 6.9-2.1 1.6-5.9 1.7-8.7 1.3-1.7-.2-3.8-2.5-4.3-4.2-1.1-3.6-2.3-6.8-6.6-6.9-4.1-.1-5.8 2.8-6.6 6.3-.7 3.1-2.7 5.1-5.6 4-1.6-.7-3.3-3.7-3.3-5.6 0-7.6 7.6-14.3 15.8-14.3zm-4.1-23.7c8.4.1 16.1 2.2 23.4 6.3 3 1.7 4.9 4 2.9 7.3-1.8 3.1-4.7 2.5-7.4.9-8.3-4.7-17-6.4-26.4-4.4-3 .6-6.4 1.1-7.3-3-1-4.3 2.1-5.5 5.5-6.1 3-.5 6.2-.7 9.3-1zm612.1 192.5c-7.6 0-14.1-5.5-14.4-12.9-.1-1.9 2.1-3.9 3.2-5.9 1.9 1.2 4.7 2.1 5.4 3.8 1.2 3.1 2.1 6.1 6.1 6 3.7-.1 4.4-3 5.6-6 .6-1.7 3.5-2.6 5.4-3.8 1.1 2 3.3 4 3.3 5.9-.4 7.3-7.2 12.9-14.6 12.9zm66.4 0c-7.1-.3-13.2-5.5-13.7-12.6-.1-2 2.1-4.2 3.3-6.3 1.8 1.3 4.6 2.2 5.3 3.9 1.1 3 2 5.8 5.7 5.8 3.6.1 5-2.4 5.7-5.7.6-2.9 2.8-5.3 5.6-3.8 1.7.9 3.4 4.2 3.1 6.2-.9 7.7-7.5 12.8-15 12.5zm-31.8 12h-11.4c-3 0-5.7-1.3-4.9-4.6.4-1.7 3.1-4 4.8-4.1 7.4-.5 14.9-.5 22.4 0 1.9.1 3.5 2.9 5.3 4.5-1.7 1.4-3.3 3.7-5.2 4-3.6.7-7.4.2-11 .2zm785.7-228.3c-11.5-3.1-21.5-2.3-31.5 1.7-1.5.6-4-1.6-6.1-2.5 1-2 1.4-5.1 3-5.9 11.2-5.4 23.1-6.1 35-2.7 1.6.5 3.5 3.6 3.5 5.5 0 1.5-2.8 2.9-3.9 3.9zM1709.9 411c-5.7 0-10.2-4.4-10.3-10-.1-5.7 4.7-10.5 10.4-10.5 5.6 0 10.5 5 10.3 10.6-.1 5.7-4.7 10-10.4 9.9zm97.5-16.1c0 5.7-4.2 10.1-9.9 10.2-5.9.1-10.6-4.3-10.7-10.1-.1-5.5 4.5-10.1 10.1-10.2 5.9-.1 10.4 4.2 10.5 10.1z"/><path id="Layer" d="M652.9 604.9c5.7 0 10.3 4.5 10.3 10s-4.7 10.2-10.2 10.1c-5.6-.1-10.4-4.7-10.4-10 .1-5.5 4.8-10.1 10.3-10.1z" fill="#febd00"/><path id="Layer" class="shp14" d="M1740.9 424.9c1.4-1.4 2.7-1.8 7.2-.7 0 0 3.2 1.5 10.1 1.3 6.6-.2 12.3-1.9 21.4-7.1 3.4-1.9 6.4-1.6 7.1-.6 1.6 2.3.3 5 .2 10.9 0 3.6 1.6 5 .2 11.2-.2.8-1.3 4.8-5.1 6.9-4.8 2.7-10.8 1.1-14.5-2.1-3.8-3.2-3.1-6.7-6.7-9.2-2-1.4-2.8-.3-10.8-1.6-10.6-1.7-10.4-3.5-10.5-4.6 0-1.4.5-3.5 1.4-4.4z"/><path id="Layer" d="M1777.9 432.1c-.4 1.7-.9 3.5-1.3 5.2-1.6-.8-3.1-1.6-6-3.1 2.9-1.5 4.3-2.2 5.6-2.8.6.3 1.2.5 1.7.7z" fill="#d77470"/></g><path id="Layer" class="shp30" d="M277 470c-8.02 0-14.5-6.48-14.5-14.5S268.98 441 277 441s14.5 6.48 14.5 14.5S285.02 470 277 470zm102 4c-8.02 0-14.5-6.48-14.5-14.5S370.98 445 379 445s14.5 6.48 14.5 14.5S387.02 474 379 474zm220-204c-8.02 0-14.5-6.48-14.5-14.5S590.98 241 599 241s14.5 6.48 14.5 14.5S607.02 270 599 270zm1117.3 173.9c-8.02 0-14.5-6.48-14.5-14.5s6.48-14.5 14.5-14.5 14.5 6.48 14.5 14.5-6.48 14.5-14.5 14.5zm93-7c-8.02 0-14.5-6.48-14.5-14.5s6.48-14.5 14.5-14.5 14.5 6.48 14.5 14.5-6.48 14.5-14.5 14.5z"/><g id="Layer"><path id="Layer" class="shp33" d="M911.2 758.1H71.4l4.8 11.7 832.6.1 7.4-11.8h-5z"/></g><g id="Layer"><path id="Layer" class="shp33" d="M2001.8 757.7h-900.1l-4.2.3v8.1s3.1.6 4 1c1 .5 3.6 2.6 3.6 2.6l892.3.3 4.4-12.3zm-1037.6.2s-2.3-.4-3.6 1.1c-1.5 1.7-3.5 7.2-3.4 7l6 3.7h3.7l90.3.2s2.4-2.7 5.1-3.7c4.5-1.6 1-8.5 1-8.5l-99.1.2z"/></g></svg>