<svg xmlns="http://www.w3.org/2000/svg" viewBox="0 0 2070 858" width="2070" height="858">
	<style>
		tspan { white-space:pre }
		.shp0 { fill: #ffffff } 
		.shp1 { fill: #82acf8 } 
		.shp2 { fill: #fedcb9 } 
		.shp3 { fill: #e0a175 } 
		.shp4 { fill: #d09269 } 
		.shp5 { fill: #fef0a7 } 
		.shp6 { fill: #d2dce6 } 
		.shp7 { fill: #467eda } 
		.shp8 { fill: #d0bfb5 } 
		.shp9 { fill: #d0c0b0 } 
		.shp10 { fill: #dc926d } 
		.shp11 { fill: #b58473 } 
		.shp12 { fill: #d2d0a0 } 
		.shp13 { fill: #d5ddea } 
		.shp14 { fill: #1b4f7f } 
		.shp15 { fill: #24609f } 
		.shp16 { fill: #2872bc } 
		.shp17 { fill: #1c4f84 } 
		.shp18 { fill: #164b82 } 
		.shp19 { fill: #fec02a } 
		.shp20 { fill: #19d2c0 } 
		.shp21 { fill: #d09366 } 
		.shp22 { fill: #d6d3cc } 
		.shp23 { fill: #d3d3d3 } 
		.shp24 { fill: #54aee2 } 
		.shp25 { fill: #fbba9f } 
		.shp26 { fill: #ffbe9f } 
		.shp27 { fill: #d3c0b1 } 
		.shp28 { fill: #3e87bc } 
		.shp29 { fill: #ffc001 } 
		.shp30 { fill: #fdbcaa } 
		.shp31 { fill: #febd00 } 
		.shp32 { fill: #d77470 } 
		.shp33 { fill: #d0dce8 } 
	</style>
	<g id="Layer">
		<path id="Layer" class="shp0" d="M893.3 699.5C903.8 673.3 914.3 647.2 924.6 621.5C929.5 624.5 934.8 626.5 938.1 630.3C940.6 633.2 942 638.7 941.3 642.6C937.1 663.8 932.2 684.8 927.3 705.8C925.6 713 920.1 717.7 914.2 718.1C912 703 911.8 702.9 893.3 699.5Z" />
		<path id="Layer" class="shp1" d="M427.7 394.2C428 388.9 428.3 383.6 428.5 378.3C428.7 374.3 427.1 372.1 422.8 371.9C399.1 371.1 382.7 358.3 370.3 339.4C364.7 330.8 361 321.4 359.5 311.1C359.2 309.3 356.9 306.8 355.3 306.6C353.7 306.4 350.8 308.5 350.3 310.1C345.9 324.8 335.6 334.5 323.1 342.1C307.1 351.7 289.8 356.3 271 354C261.9 352.9 254.3 348.7 247.2 343.1C245.9 342.1 244.5 340.6 243.1 340.6C241.4 340.6 238.4 341.6 238.2 342.6C237.8 344.7 238.1 348.1 239.5 349.1C245.7 353.5 252.2 357.6 259 361C262.3 362.7 263.8 364.2 263.7 367.9C262.9 394.4 254.3 418.1 237.6 438.7C235.6 441.1 233.1 443.1 230.7 445.2C228 447.5 227.5 450 229.2 453.2C242.5 477.8 243.6 504 238.6 530.9C238.1 533.4 236.5 536.4 234.6 538C220.1 549.5 207.9 563.1 197.9 578.6C197.4 579.3 197 580 196.4 580.6C196.1 581 195.6 581.2 194.9 581.8C187.1 573.8 181.4 564.6 177.5 554.2C167 526.5 173.2 502.2 193.4 481.1C197.3 477 201.5 473.2 205.7 469.4C208.2 467.2 209.9 464.7 207.6 461.7C205.3 458.7 202.3 459.5 199.7 461.7C194.1 466.4 188.7 471.2 182.8 476.1C174.1 467.8 169.1 457.1 166.1 445.7C157.7 413.5 163.3 384.3 185.6 359C188.8 355.4 192.7 352.4 196.5 349.6C199.6 347.3 200.5 344.9 199.8 341C195.2 316.6 199.2 293.6 214 273.6C230.3 251.5 252.3 237.5 279.6 232.2C307.9 226.7 333.1 234 355.5 251.5C364 258.1 370.9 266.3 373.7 277.1C374.7 280.9 377.7 281.4 381 281.9C388.8 283.2 397 284 404.4 286.6C427.8 294.7 439.2 312.5 441.3 336.4C443 356.3 438.9 375.2 429.7 392.9C429.4 393.5 429 394 428.6 394.5C428.3 394.4 428 394.3 427.7 394.2Z" />
		<path id="Layer" class="shp0" d="M1102.3 823.4C1085 823.6 1071.9 833.6 1057 842.7C1057.5 836.8 1057.9 831.9 1058.5 827C1060.4 811.2 1062.4 795.4 1064.3 779.5C1064.6 776.7 1065.7 775.9 1068.4 775.9C1076.7 776 1085 775.7 1093.3 776C1094.8 776 1097.3 777.6 1097.4 778.7C1099.3 792.8 1100.9 807 1102.6 821.2C1102.7 821.6 1102.5 822.1 1102.3 823.4Z" />
		<path id="Layer" fill-rule="evenodd" class="shp2" d="M272.1 386.6C272.7 379.3 273.3 372.4 273.9 365C289.3 365.3 304 362.3 318 355.9C331.9 349.6 343.7 340.6 353.3 327.4C354.3 329.6 355 331.1 355.8 332.6C367.2 356.4 383.9 374.2 410.7 380.2C419.2 382.1 419 382.1 418.2 391C417.2 402.6 416.9 414.3 415.7 425.9C411.2 469.8 373.9 507.1 330 512.1C301.2 515.4 275.6 507.9 253.3 489.5C251.4 487.9 250.1 485 249.3 482.5C246.2 472.9 243.4 463.2 240.6 453.4C240.2 452 240.4 449.7 241.3 448.8C254.2 435.6 262.4 419.8 267.7 402.3C268.6 399.2 270.2 397.9 273.1 396.7C282 393.1 290.9 392.9 299.9 396C303 397.1 306 397.6 307.5 393.9C309.1 389.8 306 388.2 302.8 387.1C294.4 384.1 285.9 383.9 277.2 385.5C275.7 385.9 274.1 386.2 272.1 386.6ZM307 455.8C305.2 469.6 316.5 481.9 330.7 482.7C343.8 483.5 356.5 472.1 356.4 459.1C340 458 323.7 456.9 307 455.8ZM286.7 408.1C282.6 408.3 278.6 410.5 275.3 414.4C273.9 416 272 417.3 270 418C266.6 419.3 265.1 422.3 267.2 424.5C269.1 426.5 273 427.2 276.1 427.4C277.8 427.5 280.5 425.6 281.2 423.9C282.6 420.4 284 417.3 288.4 417.7C292.6 418 293.6 421.1 294 424.7C294.3 427.7 296.1 430.3 299.1 429.4C300.9 428.8 303 425.8 303.2 423.7C303.7 415.4 296.2 408.2 286.7 408.1ZM382.5 414.3C374.4 414.3 366.7 421 366.7 428.4C366.7 430.4 368.3 433.3 370 434C372.8 435.2 374.9 433.1 375.6 430C376.4 426.5 378.1 423.6 382.2 423.7C386.5 423.8 387.7 427 388.8 430.6C389.3 432.4 391.5 434.6 393.1 434.8C396 435.2 399.7 435.1 401.8 433.5C404.5 431.5 403.2 428.6 400.3 426.6C398.5 425.4 396.8 423.8 395.6 422.1C392.4 417.3 387.8 414.8 382.5 414.3ZM378.4 390.6C375.3 390.9 372.1 391.1 369 391.6C365.7 392.2 362.5 393.4 363.5 397.7C364.4 401.8 367.8 401.3 370.8 400.7C380.2 398.7 389 400.4 397.2 405.1C399.9 406.6 402.8 407.3 404.6 404.2C406.6 400.9 404.6 398.6 401.7 396.9C394.6 392.8 386.8 390.7 378.4 390.6Z" />
		<path id="Layer" class="shp3" d="M524.9 115.1C523.9 102.4 525.8 89.4 531.9 77.2C545.2 50.3 567.8 34.7 596.2 27.5C626.8 19.7 656.1 23.4 682.9 41.1C689.1 45.2 694.6 50.4 700 55.6C702.9 58.4 705.4 59.2 709.3 58.5C732.5 54.2 747.6 62.9 755.6 85.2C756.7 88.2 757.7 91.2 758.3 94.3C762.7 113.9 762.6 133.7 760.6 153.4C759.2 167.8 756.5 182 754.3 196.3C754.1 197.8 753.6 199.2 753 201.6C752 199.6 751.2 198.5 750.7 197.2C745.2 182.7 739.8 168.2 734.4 153.7C731.6 146.1 730.9 145.9 723.1 147.3C702.8 151.1 683.9 148.1 667.3 135.3C654.8 125.7 649.9 112.2 648.7 97C648.4 92.9 648.5 88.7 648.6 84.5C648.7 80.8 648 77.5 643.5 77.5C639.4 77.4 638.4 80.5 638.3 84C637.8 94.6 638.3 105.1 641.9 115.1C643.7 120.2 643.4 124.9 641.8 129.7C635.3 150 620.9 162.5 601.7 170.1C586 176.3 569.7 177.4 553.1 174.3C545.5 172.9 543.9 174 543.2 181.6C541.8 197.5 540.5 213.4 538.3 229.6C532 217.1 525 204.8 519.5 191.9C514.9 181.3 510.9 170.2 508.5 158.9C503.9 137.6 520.5 122.4 541.8 127.4C544.7 128.1 547.3 127.9 548.4 124.8C549.6 121.4 548.3 118.4 544.8 117.8C538.5 116.4 532.1 116 524.9 115.1Z" />
		<path id="Layer" fill-rule="evenodd" class="shp2" d="M552.8 184.3C596.5 188.3 631.8 176.5 651.3 133.7C651.4 133.8 652 133.8 652.3 134.2C671 155.3 694.9 160.6 721.7 157.3C724.6 156.9 725.8 157.7 726.8 160.4C733.7 179.1 740.9 197.8 747.8 216.5C748.6 218.6 748.8 221.1 748.3 223.3C742.4 251.1 727.8 273.1 704.8 289.8C701 292.6 698.7 292.1 695.8 288.7C690.5 282.5 684.7 276.7 679.1 270.8C672.9 264.3 664.9 263.4 659.1 268.7C653.1 274.1 653.2 282.2 659.5 289.1C662.5 292.4 665.5 295.7 668.1 298.5C662.9 309.6 653.2 309.1 644 308.8C601.7 307.4 570 288.3 549.5 251.2C548.4 249.3 547.7 246.8 547.8 244.6C549.2 225.8 550.8 207.1 552.3 188.3C552.3 187 552.6 185.7 552.8 184.3ZM689.2 228.8C676.3 229.8 666.9 234.2 659.5 242.6C657.5 244.9 656.8 247.8 659.6 249.4C661.2 250.3 664.8 250.1 666 248.9C672.1 242.4 679.6 239 688.3 238.1C691.6 237.8 694.1 236.1 693.1 232.7C692.7 230.8 690 229.5 689.2 228.8ZM599.5 233C605 233 609.3 228.7 609.4 223.3C609.5 217.7 605 213.1 599.4 213.2C593.9 213.3 589.7 217.5 589.6 223C589.5 228.7 593.7 233 599.5 233ZM692.8 199.1C687.1 199 682.6 203.3 682.6 209C682.6 214.5 686.8 218.8 692.3 218.9C698 219 702.5 214.7 702.4 209C702.4 203.4 698.3 199.1 692.8 199.1Z" />
		<g id="Layer">
			<path id="Layer" class="shp4" d="M539 229.5L544.3 175.7C544.3 175.7 590.8 176.2 622.6 126.4C630.7 113.7 640 79 640 79L643.5 78.5L645.3 79.8C646.3 84.6 659.7 122.7 677.1 138.8C689.3 150.1 723.3 149.5 728.9 145.6C729.4 145.3 732.5 146.8 732.7 147.4L752.7 201.9C752.7 201.9 767 133.4 761.5 111.9C750.7 69.7 699.2 81.1 689 81.9C689 81.9 675.7 52.1 639.7 43.1C622.3 38.7 575.9 31.8 551.2 50.6C523.2 71.8 524.8 115 524.8 115C524.8 115 543.4 117 547.2 121.6C549.2 124.1 548.2 128.1 545.9 127.4C520.4 119.1 510.1 138.2 508.9 140.4C497.8 160.4 537.9 227.4 537.9 227.4" />
		</g>
		<path id="Layer" fill-rule="evenodd" class="shp5" d="M1909.4 500C1899 499.7 1889.6 497.1 1880.7 492.8C1850.4 478.4 1833.5 447.6 1836.6 413.4C1838.4 394.3 1839.9 375.3 1841.2 356.2C1841.4 352.7 1842.9 351.6 1845.9 350.4C1855 346.8 1864 342.8 1872.9 338.9C1876.1 337.5 1877.7 334.9 1875.8 331.7C1873.9 328.6 1871.2 329.4 1868.4 330.9C1852.7 339.5 1836.4 345.7 1818.1 345.2C1804 344.8 1791.7 340.4 1782.3 329.3C1778.9 325.2 1776.7 325.5 1772.7 330.1C1755 350.6 1733.7 365.7 1707.5 373.5C1695.3 377.1 1682.8 378.6 1670 378.3C1666.6 378.2 1665.1 377.1 1664.2 373.8C1658 352.1 1659.2 330.6 1666.4 309.5C1676 281.1 1693.1 258.2 1718.6 242.1C1754.3 219.5 1796.2 221.7 1830.6 248.1C1840 255.3 1848.6 261.4 1861.8 261.6C1877.1 261.8 1888 272 1895.5 285.2C1905.1 302.1 1908.4 320.8 1910.7 339.7C1915 375.9 1911.8 412.2 1911.2 448.5C1910.9 463.5 1910.4 478.5 1909.9 493.5C1909.7 495.4 1909.5 497.5 1909.4 500ZM1771.5 239.1C1769.3 239.1 1766.9 238.5 1765.1 239.3C1763.2 240.1 1761.9 242.2 1760.3 243.8C1761.8 245.2 1763.2 247 1764.9 248C1766.2 248.7 1768.2 248.2 1769.8 248.2C1783.4 248.3 1795.8 251.6 1806.4 260.6C1808.8 262.7 1811.5 264.4 1814.2 261.2C1817 257.8 1814.8 255.5 1812.1 253.3C1800.3 243.5 1786.7 239 1771.5 239.1Z" />
		<g id="Layer">
			<path id="Layer" class="shp6" d="M924.6 618.5L943.2 632.7L941.8 661.7L911.5 647.7L924.6 618.5" />
		</g>
		<path id="Layer" class="shp0" d="M1050.6 680.2C1050.6 692.6 1050.7 704.6 1050.5 716.6C1050.5 717.6 1048.9 719.4 1048.1 719.4C1032 719.6 1015.9 719.5 999.5 719.5C999.5 706.2 999.5 693.4 999.5 680.2C1016.3 680.2 1033 680.2 1050.6 680.2Z" />
		<g id="Layer">
			<path id="Layer" class="shp6" d="M999.7 705.7L1050.2 697.7L1050.5 680L999.7 680L999.7 705.7" />
		</g>
		<g id="Layer">
			<path id="Layer" class="shp7" d="M184 359C187.3 360.8 169.5 381.1 174 407.5C178.6 434.7 202.5 443.2 198.5 462.5C196.5 472.1 188.1 481.7 180.5 481.5C164.9 481 146.2 439 154.5 403C160.7 376.2 180.7 357.2 184 359Z" />
			<path id="Layer" class="shp7" d="M287 224.5C273.5 213.2 174.7 292.2 198.5 294.5C209.2 295.5 207 280.5 251.3 285C252.5 238.2 292.3 229 287 224.5Z" />
		</g>
		<path id="Layer" class="shp8" d="M255.5 425.7C255.5 425.7 269.7 413.8 274.2 404.7C281.3 390.2 282.9 374.7 282.9 374.7C282.9 374.7 310.7 370.3 318.9 368C333.2 364 352.6 345 352.6 345C352.6 345 371.3 383.3 417.6 381.3C419.6 381.2 398.3 371.8 381.6 357C365.3 342.5 353.6 322.7 353.6 322.7C353.6 322.7 322.9 346.2 311.6 351.4C302.3 355.6 271.3 360.4 271.3 360.4L255.5 425.7Z" />
		<path id="Layer" class="shp9" d="M546 246.5L562 190C562 190 594.5 191.5 609 186C634 176.5 655.5 150 655.5 150C655.5 150 672.6 162.4 680 164.5C697.5 169.5 720 166.5 720 166.5L751 218.5L730.5 147.7C730.5 147.7 704.2 151.6 693.5 150C682.5 148.4 650.5 125.5 650.5 125.5C650.5 125.5 626 157.6 615.8 164.7C606.4 171.2 572 180 572 180L552 180L546 246.5Z" />
		<path id="Layer" fill-rule="evenodd" class="shp10" d="M1387 213.9C1388.7 221.3 1390.5 228.2 1392 235.2C1394.2 245.7 1399.1 254.1 1409.1 259C1412 260.4 1414 264.8 1418.1 262.1C1422.1 259.5 1420 255.6 1419.8 252.1C1418.9 239.5 1421 227.3 1425.1 215.5C1436 216.3 1445.8 225.1 1448.3 236.2C1451 248.4 1445.4 261 1434.3 266.5C1430.7 268.3 1426.5 269.1 1422.4 269.8C1418.2 270.5 1416 272.2 1416.7 276.7C1416.9 278 1416.7 279.7 1416.1 280.9C1395.9 322 1363.4 346.1 1317.5 351.1C1257.6 357.6 1201.9 317.1 1188.3 258.3C1185.6 246.7 1187.7 235.2 1191.3 224.3C1195.7 211.1 1201.7 198.5 1207.2 185.6C1209 181.3 1211.8 179.6 1217 181.1C1231.4 185.3 1244.6 182.2 1256.4 172.8C1257.2 172.2 1258 171.7 1259.2 170.8C1261.2 174 1262.9 177.3 1265.1 180.1C1270.4 186.7 1276.1 193 1281.5 199.5C1287.3 206.6 1291.1 214.6 1291.5 224C1291.6 227.5 1293.1 230.3 1297.2 229.9C1301.1 229.5 1301.9 226.6 1301.6 223.3C1301.2 219.3 1300.7 215.4 1300 210.3C1328.6 222.8 1357.5 220.3 1387 213.9ZM1257.5 229.8C1256.7 229 1255.6 227.1 1253.9 226.1C1238.6 217.7 1222.8 217.3 1206.9 224.1C1204 225.3 1202.1 227.5 1203.3 230.8C1204.6 234.2 1207.3 234.7 1210.7 233.5C1214.6 232.2 1218.6 230.8 1222.7 230.2C1232 228.8 1240.9 230.4 1249.2 234.9C1253.6 237.3 1257.5 235.2 1257.5 229.8ZM1339.6 220.7C1332.9 222.4 1326.1 224 1319.5 225.9C1316 226.9 1313.2 229.1 1314.9 233.2C1316.5 237 1319.7 236.7 1322.9 235.3C1335.7 230.1 1348.2 230.7 1360.5 237C1363.4 238.5 1366.4 239.1 1368.3 235.7C1370.3 232.1 1368.3 229.8 1365.2 228C1357.4 223.7 1348.9 221.8 1339.6 220.7ZM1285.3 297.3C1292.8 295.4 1299.4 293.8 1305.9 291.9C1309 291 1311.3 288.8 1309.9 285.1C1308.5 281.5 1305.7 281.3 1302.5 282.4C1301.7 282.7 1300.9 283 1300.1 283.2C1290.9 286.4 1281.7 287.6 1272.6 282.6C1269.8 281.1 1267 281.3 1265.3 284.4C1263.6 287.5 1265 290.3 1267.9 291.4C1273.7 293.8 1279.7 295.5 1285.3 297.3ZM1340 265.1C1346.4 265 1351.4 260 1351.5 253.8C1351.6 247.5 1346 242 1339.7 242.1C1333.2 242.2 1328.2 247.5 1328.3 254.1C1328.5 260.4 1333.6 265.2 1340 265.1ZM1217.3 253.6C1217.2 259.9 1222.1 265 1228.5 265.2C1235.1 265.4 1240.4 260.3 1240.4 253.8C1240.4 247.6 1235.3 242.3 1229.1 242.1C1222.9 241.8 1217.4 247.1 1217.3 253.6Z" />
		<path id="Layer" class="shp11" d="M1205.3 176.7C1205.5 185 1241.5 213.5 1263.3 200.7C1272.5 195.3 1286.3 219.9 1295.8 220.9C1329.8 224.2 1383.6 204.7 1387.3 210.7C1352.8 237.6 1263.9 180.6 1263.8 169C1263.8 167 1210.6 186 1205.3 176.7Z" />
		<path id="Layer" class="shp12" d="M1877 259.2C1877 265.6 1893 276.2 1893 276.2C1893 276.2 1910.3 311 1911.3 321.5C1913 338.9 1913.6 389.5 1913.6 389.5L1910 503C1910 503 1889.1 503.1 1885.5 498C1859.7 460.8 1908.8 350.2 1901 317.5C1897.8 304 1877 267.5 1877 267.5" />
		<path id="Layer" class="shp0" d="M934.3 838.6C924.2 824.4 917 809.2 900.7 801.8C901.7 799.9 902.5 798.3 903.4 796.8C910 786 916.5 775.2 923.3 764.5C924.1 763.3 926.7 761.8 927.7 762.3C936.7 766.1 945.6 770.2 954.9 774.5C948.1 795.8 941.4 816.7 934.3 838.6Z" />
		<g id="Layer">
			<path id="Layer" class="shp13" d="M926 759.5L934.5 764L914.5 811L898 800.5L926 759.5Z" />
		</g>
		<g id="Layer">
			<path id="Layer" class="shp13" d="M1063.2 775.2L1073.5 774.5L1070.2 837.5L1056 844.5L1063.2 775.2Z" />
		</g>
		<path id="Layer" fill-rule="evenodd" class="shp14" d="M1061.8 694.1C1067.7 694.1 1073.3 694.1 1078.9 694.1C1089.9 694.1 1097 701 1097.2 712C1097.4 719.2 1095.8 719.1 1104.6 719.1C1122.9 719.1 1141.3 719 1159.6 719.2C1163.9 719.2 1165.4 718 1165.6 713.7C1167.8 676.8 1170.2 639.9 1172.7 603.1C1174.9 571.2 1177 539.3 1179.8 507.5C1181.4 488.8 1182.7 469.8 1186.9 451.7C1194.9 417.5 1214.4 391.4 1247.2 376.7C1250.8 375.1 1254.7 374 1258.5 372.7C1259.4 372.4 1261.2 372.2 1261.2 371.8C1261.9 366.8 1262.5 361.8 1262.5 356.8C1262.5 355.5 1260.4 353.7 1258.8 353.1C1245.2 347.7 1232.8 340.4 1221.6 330.9C1203.1 315.2 1189.9 296 1182 273.1C1181.2 270.7 1179.1 268.2 1177 267C1152 253.3 1149.6 220.4 1172.4 203.3C1174.4 201.8 1175.8 198.5 1176.2 195.9C1184.4 142.9 1212.3 105 1262.7 85.9C1313.7 66.5 1371.5 84.3 1406.5 128.3C1424.2 150.6 1434.2 175.8 1436.3 204.3C1436.4 206.4 1438 209 1439.8 210.1C1454 219.1 1460.4 232 1457.9 248.3C1455.6 263.9 1445.9 273.8 1430.8 278.5C1428.8 279.1 1426.6 281.1 1425.7 283.1C1410.3 317.1 1385.1 340.8 1350.2 353.9C1346.9 355.1 1345.7 356.7 1346 360C1346.3 362.6 1346.1 365.3 1346.1 368C1346.1 368.5 1346.3 369 1346.5 369.7C1352.9 371.1 1359.4 372.2 1365.7 374C1397.8 383.1 1420.7 402.9 1434.4 433.3C1447 461.2 1459.9 488.9 1468.4 518.4C1471.2 528.1 1473.5 538.1 1474.4 548.1C1475 554.8 1473.3 562 1471.3 568.6C1464.6 590.2 1452.9 609.5 1441.2 628.7C1435.1 638.6 1428.7 648.3 1422.1 658.5C1428.3 662.7 1433.5 668.3 1442.3 667.5C1448.7 666.9 1455.3 668 1461.7 668.4C1471.1 669 1477.4 675.6 1477.1 684.6C1476.8 693.2 1470.1 699.2 1460.7 699C1454.9 698.9 1449.1 698.4 1442.6 699.1C1445.3 701.3 1448.2 703.3 1450.5 705.9C1453.7 709.4 1456.4 713.3 1459.5 716.9C1460.3 717.9 1461.6 718.7 1462.8 719.1C1463.8 719.5 1465.1 719.2 1466.3 719.2C1545.5 719.2 1624.6 719.2 1703.8 719.3C1708.7 719.3 1710.8 718.1 1711.4 713C1712.7 702.8 1717.7 694.2 1724.5 686.6C1726.1 684.8 1727.2 682.1 1727.4 679.7C1727.8 672.7 1727.5 665.7 1727.5 658.1C1726.1 659 1724.6 659.8 1723.3 660.8C1713.5 667.4 1703.6 673.8 1693.9 680.7C1671.8 696.3 1648.2 699.3 1622.8 690.5C1613.7 687.4 1604.4 684.7 1595.4 681.3C1590.2 679.3 1585.3 678.8 1579.9 680.1C1569.4 682.5 1558.8 684.5 1548.2 686.8C1543.9 687.7 1541.5 686.1 1540.6 681.9C1539.5 676.4 1538.3 670.9 1537.1 665.3C1534.4 665.5 1532.1 666.1 1529.8 665.8C1521.2 665 1515.4 657.3 1517.2 648.8C1517.9 645.4 1517.3 643.4 1515.2 640.9C1512.3 637.4 1511.7 633.2 1512.8 628.6C1513.2 627 1512.8 624.6 1511.8 623.4C1508.2 619.2 1507.7 614.5 1508.5 609.3C1508.7 607.7 1508.6 605.6 1507.7 604.5C1500 594.1 1503.3 584 1515.9 580.3C1516.8 580 1517.7 579.5 1519 579C1517.2 570.4 1515.5 562 1513.7 553.6C1512.3 546.8 1513.1 545.4 1519.8 543.9C1528.7 541.9 1537.6 540 1547.1 538C1546.4 536.1 1545.9 534.6 1545.2 533.2C1542.5 527.6 1539.6 522.2 1537.2 516.5C1535.8 513.1 1533.8 512 1530.1 512C1521.3 512.1 1513.5 505.6 1511.6 497.3C1509.5 488.3 1513.8 479 1522 475.1C1530 471.2 1539.9 473.2 1545.6 480C1551.3 486.7 1552 497 1546.3 504C1543.5 507.4 1543.9 509.8 1545.7 513.2C1549.1 519.5 1552.1 526 1555.1 532.5C1556.4 535.4 1558 535.9 1561 535.3C1574 532.5 1587 530 1600 527.3C1605.4 526.2 1607 527.2 1608.1 532.4C1613.8 559.2 1619.5 586.1 1624.9 612.9C1625.7 616.9 1627.4 618.9 1631.2 620.1C1640.7 623.1 1649.7 622.4 1656.7 615C1672.5 598.3 1688.3 581.6 1703.2 564.1C1717.4 547.5 1730.6 530.1 1748 516.6C1751.9 513.5 1755.9 510.4 1760.1 507.7C1764.7 504.8 1761.4 501 1761.3 497.7C1761.3 496.4 1759.1 494.8 1757.6 494.1C1754.4 492.7 1751 491.9 1746.6 490.5C1746.6 496.6 1746.5 502.2 1746.6 507.7C1746.7 512.3 1744.3 513.8 1740.1 513.8C1704.4 513.2 1672.1 489.2 1661.6 454.7C1659.2 446.7 1658.4 438.1 1657.6 429.7C1657 423.4 1657.2 417 1657.5 410.7C1658.3 395 1655.8 379.8 1652.7 364.3C1647.1 337.2 1653 311.3 1665.6 287C1681.2 256.9 1704.3 234.5 1736.8 223.3C1773.2 210.7 1806.4 218.8 1836.5 241.4C1844.2 247.1 1851.2 251.7 1861.5 252.4C1882.6 253.9 1896.7 266.8 1905.8 285.3C1913.4 300.7 1916.8 317.3 1919.1 334.2C1923.6 367.1 1921.5 400 1920.6 433C1920 454.2 1919.6 475.3 1919 496.5C1919 498.2 1918.9 499.8 1918.8 501.5C1918.4 509.6 1917.4 510.6 1909.5 510C1887.2 508.5 1867.9 500.1 1852.1 484.2C1850.8 482.9 1849.9 481.2 1849.3 480.3C1844.7 481.3 1844.4 483.3 1844.3 486.4C1844.1 495.9 1848.3 500.1 1857.6 502.9C1884 510.6 1902 529.5 1917.4 551.3C1934 574.6 1943.3 601.1 1949.9 628.6C1953.5 643.8 1956.6 659.1 1959 674.5C1961.4 689.6 1961.1 704.7 1952.3 719.4C1955.1 719.4 1957 719.4 1958.9 719.4C1992.9 719.4 2026.9 719.4 2060.9 719.4C2068 719.4 2069.1 720.5 2069.1 727.4C2069.1 734.9 2069.1 742.4 2069.1 749.9C2069.1 756 2067.9 757.3 2061.9 757.4C2047.4 757.5 2032.9 757.6 2018.4 757.4C2014.6 757.3 2012.7 758.6 2011.4 762.1C2008.3 770.5 2004.6 778.7 2001.4 787.1C2000.3 790.1 1998.8 791.5 1995.6 791.1C1994.3 790.9 1992.9 791.1 1991.6 791.1C1699.8 791.1 1407.9 791.1 1116.1 791.1C1113.6 791.1 1111.2 791.1 1108 791.1C1108.9 798.7 1109.7 805.7 1110.5 812.8C1110.6 813.8 1111 814.8 1110.9 815.8C1110.5 821.8 1112.9 825.2 1118.6 827.9C1127.4 832.2 1131.7 840.4 1132.9 850C1133.5 854.7 1131.6 857 1126.7 857C1101.9 857.1 1077 857.2 1052.2 857.1C1047.2 857.1 1045.7 855.4 1046.3 850.2C1048.4 832 1050.6 813.8 1052.8 795.7C1053 794.4 1053.1 793.1 1053.2 791.1C1051.1 791.1 1049.3 791.1 1047.5 791.1C1019.7 791.1 991.8 791.2 964 791C960.2 791 958.5 792.1 957.3 795.8C951.9 813.4 946.2 831 940.6 848.6C938.7 854.5 936.7 855.6 931.1 853C909 842.9 887 832.7 864.9 822.5C859.5 820 858.9 817.9 862 812.8C867.4 803.8 875.6 799.4 885.9 798.7C892.3 798.3 892.5 798.3 894.9 791.1C891.8 791.1 888.9 791.1 885.9 791.1C617.4 791.1 348.9 791.1 80.4 791.3C74.5 791.3 71.4 790 69.6 784.2C67.1 776.5 63.4 769.1 60.5 761.5C59.4 758.4 57.7 757.5 54.6 757.6C39.3 757.7 23.9 757.7 8.6 757.6C1.5 757.6 0.2 756.2 0.2 749.1C0.2 742.3 0.2 735.4 0.2 728.6C0.2 720.6 1.2 719.6 9 719.6C59.2 719.6 109.3 719.6 159.5 719.6C161.6 719.6 163.7 719.6 166.3 719.6C166.5 715.9 166.7 712.7 166.8 709.6C167.2 694 167.1 678.3 168.2 662.7C169.9 639.7 176.8 618 187 597.5C189 593.4 189.1 590.9 185.9 587.1C169 567.7 160.3 545.3 163.2 519.1C164.4 508 168.3 497.8 174.4 488.5C175.2 487.3 175.4 484.4 174.6 483.6C162.4 471 156.4 455.4 153.5 438.6C149.5 414.4 152.1 390.9 165.4 369.8C170.7 361.3 177.9 353.8 185.1 346.8C188.6 343.4 189.5 340.6 188.9 336.2C186.4 317.4 188.7 299.1 197.1 282.2C213.7 249 241.6 229.6 277.3 223.2C313.6 216.7 345.5 227.3 371 254.7C374.3 258.3 377.4 262.6 379.1 267.2C381 272.2 384.4 272.8 388.7 273.9C398.3 276.3 408.3 278.5 417 282.9C436.7 292.8 446.5 310.3 449.4 331.6C452.6 355.6 447.8 378.3 436.3 399.5C434.3 403.1 432 406.8 429.1 409.6C425.9 412.7 424.9 416.2 424.7 420.3C423.9 438.7 418.3 455.5 408.9 471.3C407.8 473.2 407.2 476.1 407.7 478.2C415.2 507.6 414.1 536.5 404.6 565.3C404 567.1 404.5 569.9 405.6 571.5C421.9 594.8 429.2 620.8 429.3 649C429.3 662.3 429.3 675.7 429.3 689C429.3 690.6 429.3 692.3 429.3 694.3C438.9 694.3 448 694.3 457.7 694.3C457.8 692.2 458 690.2 458 688.1C458 634.4 458 580.8 458 527.1C458 512.8 464.7 505.9 479 505.8C491 505.7 503 505.7 515 505.9C519 506 520.6 505.1 521.2 500.6C525.5 468.6 528.6 436.4 535.2 404.9C544.2 362.4 571.3 335.1 613.2 322.9C615.2 322.3 617.9 322.7 618.1 319.1C618.3 315.3 615.7 315.2 613.4 314.6C581.6 305.8 557.7 286.9 541.6 258.2C540 255.3 538.2 254.4 535 254.4C520.5 254.4 509.6 247.9 503.1 235C496.7 222.3 498 209.7 506.5 198.3C508.7 195.3 508.6 193.1 507.3 189.8C501.9 177.1 497.1 164.1 497.8 149.9C498.3 139.2 502.9 130.7 511.7 124.7C513.9 123.2 515.4 121.8 515.1 118.8C510.4 67 548.4 31.3 590.4 20C626.6 10.3 660.7 14.9 691.6 37.1C692.4 37.7 693.2 38.1 694.9 39.2C694.9 32.1 694.5 25.7 695 19.4C695.5 14.5 697.1 9.7 698.5 4.9C699.3 2.1 701.3 0 704.5 1.2C707.8 2.4 708.1 5.1 707 8.2C703.2 18.6 702.4 29.2 705.2 41.4C707.2 38.4 708.7 36.2 710.1 34C711.2 32.3 711.8 30.1 713.3 29C715.1 27.8 717.5 27.6 719.7 27C720.1 29.2 721.5 31.8 720.8 33.6C719.4 37.3 716.8 40.5 714.8 43.9C714 45.3 713.3 46.7 712.4 48.5C717.7 48.9 722.5 48.9 727.2 49.6C742.2 51.9 752.6 60.6 759.4 73.8C765.6 85.7 768.6 98.5 769.3 111.7C770 124.8 769.6 138 769.4 151.1C769.4 154.3 770 156.5 772.8 158.6C784.3 167.2 788.6 179.2 786.1 193C783.6 206.9 774.7 215.9 761.2 220.4C759.4 221 757.1 222.9 756.7 224.6C752.3 246.8 742.3 265.9 727 282.5C726.6 283 726.2 283.6 725.7 284.4C731.9 288.3 733.1 294.2 732.4 300.9C731.6 307.8 731.2 314.8 730.5 321.8C730.1 325.6 731.2 328.8 734.6 330.8C759 344.9 773.3 366.8 782.5 392.6C789.7 412.6 792.7 433.6 795.4 454.5C797.4 470.2 798.9 485.9 800.6 501.6C800.9 504.5 801.7 505.9 805.1 506C816 506.2 821.3 511.9 821.4 523.1C821.5 556.4 821.4 589.8 821.4 623.1C821.4 649.1 821.5 675.1 821.4 701.1C821.4 707 820.8 713 820.5 719.4C827.4 719.4 834.7 719.4 842.4 719.4C842.4 717.9 842.4 716.6 842.4 715.3C842.6 706.9 848.2 701.2 856.5 701C863.8 700.8 871.2 700.8 878.5 701C881.3 701.1 882.7 700.1 883.7 697.5C895.5 667.7 907.6 637.9 919.2 608C920.8 604 920.5 599.2 920.6 594.8C920.8 579.9 928.1 571.3 942.8 568.7C944.2 568.5 946.1 566.5 946.4 565.1C950.4 548.9 961.9 539.4 978.5 539.2C990.5 539 1002.5 539 1014.5 539.3C1018.6 539.4 1019.9 537.9 1019.5 534.1C1019.4 532.8 1019.3 531.4 1019.5 530.1C1020.3 524 1019 520 1012.5 516.9C1003.8 512.7 1000.9 501.8 1004.1 492.6C1007.3 483.5 1015.9 478.2 1026.1 478.9C1034.8 479.6 1042.6 486.5 1044.3 495C1046.3 505.1 1041.7 514.6 1032.6 518.5C1029.2 519.9 1028.2 521.7 1028.4 525.2C1028.6 529.6 1028.5 534.1 1028.5 539.2C1031.4 539.2 1033.7 539.2 1035.9 539.2C1048.9 539.4 1061.9 538.9 1074.8 540C1088.6 541.2 1098.6 551.3 1101.3 564.8C1101.8 567.6 1102.7 568.7 1105.6 569.1C1113.8 570 1119.9 574.4 1123.6 581.7C1124.9 584.3 1126.5 585.3 1129.4 585.1C1134.2 584.9 1139.1 585.1 1143.9 585C1146.9 585 1149.3 585.8 1149.6 589.2C1149.9 593 1147.3 594.2 1144.2 594.2C1138.6 594.4 1132.9 594.2 1126.5 594.2C1126.5 598.5 1126.3 602.2 1126.7 606C1126.8 607.1 1128.7 608.4 1129.9 608.8C1133.8 609.8 1137.7 610.2 1141.7 611C1144.6 611.6 1146.9 613.1 1146.3 616.4C1145.7 619.7 1143.2 620.5 1140.2 619.9C1139.7 619.8 1139.2 619.8 1138.7 619.7C1130.7 617.7 1122.8 616.1 1118.3 625.9C1109.9 628.8 1108.8 636.2 1106.3 643.5C1099.6 663.5 1085 675.1 1064.5 679.4C1061.4 680 1060.1 680.9 1060.4 684.1C1060.6 686.9 1060.5 689.8 1060.5 692.6C1061.3 692.2 1061.5 692.7 1061.8 694.1ZM489.2 719.1C491.3 719.1 493 719.1 494.6 719.1C597.2 719.1 699.9 719.1 802.5 719.2C807.6 719.2 810.4 717.2 811.2 712.4C811.6 710.3 811.8 708.1 811.8 706C811.8 645.5 811.8 585 811.8 524.6C811.8 516.3 811.4 515.9 803 515.9C703 515.9 603.1 515.9 503.1 515.9C501.8 515.9 500.4 515.9 499.1 515.9C494.8 516.1 492.2 518 491.9 522.5C491.8 524.5 491.7 526.5 491.7 528.5C491.7 579.8 491.8 631.1 491.6 682.5C491.5 694.4 493.4 706.6 489.2 719.1ZM1386.5 718.2C1385 716.6 1384.3 715.9 1383.6 715.2C1356.6 688.2 1329.6 661.3 1302.6 634.3C1297.1 628.8 1297.1 627.9 1301.5 621.1C1297.2 620 1292.9 619.4 1289 617.8C1286.9 616.9 1284.6 614.7 1284 612.6C1283.2 609.3 1286.7 607.1 1290.9 607.9C1296.1 608.9 1301.2 610.7 1306.5 611.3C1308.4 611.5 1310.8 609.7 1312.4 608.2C1312.9 607.7 1311.9 605 1310.9 603.8C1307.7 600.2 1304.2 596.8 1300.8 593.4C1298.2 590.8 1296.7 587.5 1299.5 584.6C1302.7 581.4 1305.8 583.2 1308.4 586.2C1312.1 590.4 1315.9 594.5 1319.5 598.4C1326.9 593 1327.2 593 1333.8 597.6C1336.8 599.7 1339.9 601.6 1342.9 603.8C1345.4 605.7 1347.3 606 1349.8 603.5C1354 599.2 1359.3 597.8 1364.9 600C1368.5 601.4 1369.8 600.1 1371.4 597.2C1378.3 584.5 1384.7 571.4 1392.6 559.3C1399.9 548.1 1399.7 537.8 1394.9 526C1387.5 507.8 1381 489.3 1374.1 470.9C1372.8 467.5 1371.9 464.2 1376.2 462.5C1380.7 460.7 1382.5 463.8 1383.8 467.4C1385.5 471.9 1387.6 476.3 1389.1 480.9C1390.5 485 1392.2 486.4 1396.7 484.3C1405.7 480.1 1415.1 476.5 1424.3 472.5C1429 470.5 1433.7 468.4 1438.9 466.1C1434.2 455.9 1429.7 446.3 1425.5 436.6C1417.5 418.4 1405.2 403.9 1388.1 393.5C1376.3 386.3 1363.6 381.9 1349.3 380C1349.7 382.3 1349.9 384.1 1350.3 385.8C1352.1 393.8 1354 401.7 1355.7 409.7C1357.1 416.1 1356.1 417.5 1349.8 419.4C1330.4 425.4 1311 431.5 1291.6 437.3C1289.2 438 1286.1 438.1 1283.9 437.1C1269.2 430 1254.7 422.6 1240.1 415.2C1234.5 412.3 1234 409.7 1237.7 404.5C1241.9 398.6 1246 392.7 1250.1 386.8C1246.4 387.5 1243.2 389 1240.3 390.7C1227.1 398.7 1216.7 409.7 1208.8 422.9C1200.5 436.8 1195.2 451.8 1193.7 468C1193.5 469.7 1194.7 472.7 1195.9 473.1C1200.9 474.6 1206.1 475.3 1211.4 476.4C1212.2 473.9 1212.8 472 1213.3 470.2C1214.3 466.9 1216.2 464.7 1219.8 465.7C1223.5 466.7 1223.9 469.5 1223.1 472.9C1222.1 477.1 1221 481.3 1220.6 485.6C1217.6 519.3 1214 552.9 1211.9 586.6C1209.4 627.8 1208.1 669.1 1206.4 710.4C1206.1 718 1206.2 718 1214.1 718C1268.1 718 1322.1 718 1376.1 718C1379.2 718.2 1382.3 718.2 1386.5 718.2ZM1873 656.6C1872.5 654.1 1872.3 652.3 1871.9 650.5C1867.3 631.1 1860.2 612.7 1850.7 595.1C1849 592 1847.7 588.6 1851.7 586.5C1855.4 584.6 1857.5 587.2 1859.2 590.2C1871 611.7 1879.3 634.4 1883.6 658.6C1884.7 665 1883.1 666.6 1876.7 666.9C1853.8 668.2 1830.8 669.4 1807.9 671.1C1798 671.9 1788.2 674 1778.3 675.5C1778.7 676.5 1778.7 676.9 1778.9 677C1780.2 678 1781.5 679 1782.9 680C1793.7 688.3 1800.9 698.8 1801.9 712.6C1802.3 717.4 1804.3 718.2 1808.4 718.2C1849.2 718.2 1890.1 718.4 1930.9 718.5C1940 718.5 1945.8 714.9 1948 706.2C1949.8 699.2 1950.6 691.7 1950.5 684.5C1950 662.7 1944.1 641.8 1938.5 620.8C1930.7 591.3 1918.5 564 1897.9 540.9C1884.8 526.3 1869.6 515.2 1850.7 509.5C1847.6 508.6 1846.7 509.3 1845.2 512.1C1842.8 516.7 1839.9 521.7 1835.9 524.8C1817 539.5 1797.7 553.7 1778.4 568C1774 571.3 1770.4 569.4 1769.7 563.9C1768.6 555.5 1767.7 547 1766.7 538.6C1765.8 531.5 1764.9 524.3 1763.8 516.4C1761.5 517.9 1760 518.6 1758.8 519.7C1747.7 530.2 1736 540.2 1725.8 551.5C1707.1 572.1 1689.3 593.5 1670.9 614.4C1660.2 626.5 1647.4 633.5 1630.6 629.2C1630.5 629.2 1630.3 629.4 1629.7 629.8C1629.9 631.1 1630.1 632.7 1630.4 634.3C1631.9 641.5 1633.3 648.7 1634.8 655.8C1637.3 667.9 1637.3 667.9 1625.1 670.4C1619.6 671.6 1614.1 672.9 1608.5 674.1C1608.5 674.7 1608.5 675.3 1608.5 675.9C1618.4 678.5 1628.4 681.2 1638.3 683.8C1652.8 687.6 1666.5 685.7 1679.1 677.7C1694.8 667.7 1710.3 657.3 1725.7 646.8C1727.3 645.7 1728.4 643 1728.5 641C1729.1 630.7 1729.3 620.4 1729.7 610C1729.9 604.2 1730 598.3 1730.9 592.6C1731.2 590.8 1734 588.1 1735.6 588.2C1737.3 588.3 1739 591 1740.3 592.9C1740.8 593.7 1740.3 595.2 1740.3 596.3C1739.4 620.4 1738.5 644.6 1737.6 668.7C1737.5 670.8 1737.6 672.9 1737.6 674.8C1781.9 662 1827 658.5 1873 656.6ZM427.7 394.2C428 394.3 428.2 394.3 428.5 394.4C428.9 393.9 429.3 393.4 429.6 392.8C438.9 375.1 443 356.2 441.2 336.3C439.1 312.4 427.8 294.6 404.3 286.5C396.8 283.9 388.7 283.2 380.9 281.8C377.6 281.2 374.6 280.8 373.6 277C370.8 266.2 363.9 258 355.4 251.4C333 234 307.8 226.7 279.5 232.1C252.3 237.4 230.2 251.4 213.9 273.5C199.1 293.5 195.1 316.5 199.7 340.9C200.4 344.7 199.5 347.2 196.4 349.5C192.6 352.4 188.6 355.4 185.5 358.9C163.2 384.2 157.6 413.4 166 445.6C169 457.1 174 467.7 182.7 476C188.5 471 194 466.3 199.6 461.6C202.2 459.4 205.2 458.6 207.5 461.6C209.8 464.6 208.1 467.1 205.6 469.3C201.4 473.1 197.2 476.9 193.3 481C173.1 502.1 167 526.3 177.4 554.1C181.3 564.4 187 573.7 194.8 581.7C195.6 581.1 196 580.9 196.3 580.5C196.8 579.9 197.3 579.2 197.8 578.5C207.9 563 220.1 549.5 234.5 537.9C236.5 536.3 238.1 533.4 238.5 530.8C243.5 504 242.5 477.8 229.1 453.1C227.4 450 227.9 447.4 230.6 445.1C233 443 235.5 441 237.5 438.6C254.2 418 262.8 394.3 263.6 367.8C263.7 364 262.2 362.5 258.9 360.9C252.1 357.5 245.6 353.4 239.4 349C238 348 237.7 344.6 238.1 342.5C238.3 341.5 241.3 340.5 243 340.5C244.4 340.5 245.9 342 247.1 343C254.1 348.6 261.8 352.7 270.9 353.9C289.7 356.2 307 351.7 323 342C335.5 334.4 345.8 324.8 350.2 310C350.7 308.4 353.6 306.3 355.2 306.5C356.8 306.7 359.1 309.2 359.4 311C360.9 321.3 364.6 330.7 370.2 339.3C382.6 358.3 399 371 422.7 371.8C427 371.9 428.6 374.2 428.4 378.2C428.3 383.6 428 388.9 427.7 394.2ZM1909.4 500C1909.5 497.5 1909.7 495.4 1909.8 493.3C1910.3 478.3 1910.8 463.3 1911.1 448.3C1911.7 412 1914.9 375.7 1910.6 339.5C1908.3 320.6 1905.1 301.9 1895.4 285C1887.9 271.8 1877 261.6 1861.7 261.4C1848.5 261.2 1840 255.1 1830.5 247.9C1796.1 221.5 1754.2 219.3 1718.5 241.9C1693.1 258 1675.9 280.8 1666.3 309.3C1659.2 330.5 1657.9 351.9 1664.1 373.6C1665 376.9 1666.5 378.1 1669.9 378.1C1682.7 378.4 1695.1 377 1707.4 373.3C1733.6 365.5 1754.9 350.4 1772.6 329.9C1776.6 325.3 1778.8 325 1782.2 329.1C1791.5 340.3 1803.9 344.7 1818 345C1836.2 345.5 1852.6 339.2 1868.3 330.7C1871.1 329.2 1873.8 328.4 1875.7 331.5C1877.7 334.8 1876 337.3 1872.8 338.7C1863.8 342.7 1854.9 346.7 1845.8 350.2C1842.8 351.4 1841.4 352.5 1841.1 356C1839.8 375.1 1838.3 394.2 1836.5 413.2C1833.4 447.4 1850.3 478.2 1880.6 492.6C1889.6 497.1 1898.9 499.7 1909.4 500ZM524.9 115.1C532.2 116 538.6 116.4 544.8 117.6C548.3 118.2 549.6 121.2 548.4 124.6C547.3 127.7 544.7 127.9 541.8 127.2C520.6 122.2 504 137.5 508.5 158.7C510.9 170 514.9 181.1 519.5 191.7C525.1 204.6 532 216.9 538.3 229.4C540.5 213.2 541.8 197.3 543.2 181.4C543.9 173.7 545.5 172.6 553.1 174.1C569.7 177.2 586 176.2 601.7 169.9C620.9 162.3 635.3 149.8 641.8 129.5C643.4 124.7 643.7 120 641.9 114.9C638.3 104.9 637.8 94.4 638.3 83.8C638.5 80.3 639.4 77.2 643.5 77.3C647.9 77.4 648.7 80.6 648.6 84.3C648.5 88.5 648.4 92.6 648.7 96.8C649.9 112 654.8 125.5 667.3 135.1C684 147.9 702.9 150.9 723.1 147.1C730.9 145.6 731.6 145.9 734.4 153.5C739.8 168 745.3 182.5 750.7 197C751.2 198.3 752 199.5 753 201.4C753.6 199 754.1 197.6 754.3 196.1C756.5 181.8 759.1 167.6 760.6 153.2C762.6 133.4 762.6 113.6 758.3 94.1C757.6 91 756.6 88 755.6 85C747.6 62.8 732.5 54 709.3 58.3C705.4 59 702.9 58.2 700 55.4C694.6 50.2 689.1 45 682.9 40.9C656.2 23.2 626.9 19.5 596.2 27.3C567.8 34.5 545.3 50.1 531.9 77C525.8 89.4 523.8 102.4 524.9 115.1ZM1387 213.9C1357.5 220.3 1328.6 222.7 1300 210.4C1300.6 215.5 1301.2 219.4 1301.6 223.4C1301.9 226.7 1301.1 229.6 1297.2 230C1293 230.4 1291.6 227.6 1291.5 224.1C1291.1 214.7 1287.3 206.7 1281.5 199.6C1276.1 193 1270.4 186.8 1265.1 180.2C1262.9 177.4 1261.2 174.1 1259.2 170.9C1258 171.8 1257.1 172.3 1256.4 172.9C1244.7 182.3 1231.5 185.4 1217 181.2C1211.8 179.7 1209 181.4 1207.2 185.7C1201.7 198.5 1195.6 211.2 1191.3 224.4C1187.7 235.2 1185.6 246.8 1188.3 258.4C1201.9 317.3 1257.6 357.7 1317.5 351.2C1363.4 346.2 1395.9 322.2 1416.1 281C1416.7 279.8 1416.9 278.2 1416.7 276.8C1416 272.2 1418.2 270.6 1422.4 269.9C1426.4 269.2 1430.7 268.4 1434.3 266.6C1445.4 261.1 1451 248.5 1448.3 236.3C1445.9 225.2 1436.1 216.3 1425.1 215.6C1421 227.4 1418.9 239.6 1419.8 252.2C1420 255.7 1422.1 259.6 1418.1 262.2C1413.9 264.9 1412 260.5 1409.1 259.1C1399.1 254.2 1394.2 245.8 1392 235.3C1390.5 228.3 1388.7 221.4 1387 213.9ZM239.9 548C239.2 548.5 237.6 549.4 236.2 550.6C202.9 579.1 184.4 615.8 178.8 658.8C176.5 676.2 177.3 694 176.8 711.7C176.6 718.2 176.8 718.2 183.4 718.2C219.7 718.2 256.1 718.2 292.4 718.2C293.6 718.2 294.7 717.9 296.4 717.7C282.1 700.7 280.7 683.2 291.8 664.2C280.9 667.9 270.4 672 260 676.4C239.6 685.1 219.4 694.1 199.1 702.7C194.4 704.7 191.1 703.4 190 699.8C188.6 695.2 191.5 693.1 195.3 691.8C200.6 689.9 205.9 687.7 211.3 686C216 684.6 217.3 681.8 217.7 676.9C218.7 664.3 220.5 651.8 222.4 639.4C222.8 636.7 224.9 633.7 227 632C228.5 630.9 231.8 631 233.7 632C234.8 632.5 235.5 636.4 234.7 637.6C229.8 644.6 229.7 652.7 228.8 660.5C228.2 666.1 228.7 671.9 228.7 678.2C236.8 674.3 244.3 670.8 251.8 667.2C280.2 653.6 309.3 644.8 341.5 649.5C360.6 652.3 374.4 660.5 380.3 679.7C381.6 683.9 382.4 688.3 383.4 692.8C391.9 694.2 392.4 693.7 392.4 685.3C392.4 684.5 392.4 683.6 392.4 682.8C392.1 664.7 393.1 646.4 387 628.9C385.9 625.7 387.1 623.1 390.3 622.1C393.3 621.1 395.8 622.5 396.5 625.5C398.4 633.7 400.8 642 401.5 650.3C402.6 662.9 402.4 675.6 402.8 688.2C402.9 690.6 402.8 693 406.3 693C410.8 693 415.2 693 419.9 693C420 691.3 420.2 690 420.2 688.7C420.2 673.9 420.5 659 420.2 644.2C419.4 612.4 408.5 584.7 386 561.8C377.9 553.6 368.8 546.7 358.3 541.3C355.7 546.4 353.5 551.3 350.9 555.9C338.1 578.4 322.2 598.8 305.8 618.8C302 623.4 299.1 623.5 295.1 619C287 609.7 278.7 600.5 271.2 590.8C260.7 576.9 250.5 562.5 239.9 548ZM552.8 184.3C552.6 185.7 552.3 187 552.2 188.3C550.6 207.1 549 225.8 547.7 244.6C547.5 246.8 548.3 249.2 549.4 251.2C569.9 288.3 601.6 307.4 643.9 308.8C653 309.1 662.8 309.6 668 298.5C665.4 295.7 662.4 292.4 659.4 289.1C653.2 282.3 653.1 274.2 659 268.7C664.8 263.5 672.8 264.3 679 270.8C684.6 276.7 690.4 282.5 695.7 288.7C698.7 292.1 700.9 292.6 704.7 289.8C727.7 273.1 742.3 251.1 748.2 223.3C748.7 221.2 748.5 218.6 747.7 216.5C740.8 197.8 733.6 179.1 726.7 160.4C725.7 157.7 724.5 157 721.6 157.3C694.9 160.5 670.9 155.3 652.2 134.2C651.9 133.9 651.4 133.8 651.2 133.7C631.7 176.5 596.4 188.2 552.8 184.3ZM1097.6 766.1C1105.4 767.8 1105.5 767.8 1106.3 776C1106.6 778.8 1107.5 780.4 1110.6 780.1C1112.1 780 1113.6 780.1 1115.1 780.1C1405.4 780.1 1695.6 780.1 1985.9 780.1C1987.4 780.1 1989 780.3 1990.4 780C1991.5 779.7 1993.1 779.1 1993.5 778.1C1996.3 771.6 1998.9 765 2001.8 757.6C1998.5 757.6 1996 757.6 1993.5 757.6C1804.9 757.6 1616.2 757.6 1427.6 757.7C1423.9 757.7 1420.2 759.1 1416.4 759.4C1412.8 759.7 1409.2 759.4 1405.6 759.1C1402.8 758.9 1400.1 757.7 1397.4 757.7C1299.3 757.6 1201.1 757.6 1103 757.6C1101.2 757.6 1099.5 757.8 1097.5 757.9C1097.6 761 1097.6 763.4 1097.6 766.1ZM272.1 386.6C274.1 386.2 275.7 385.9 277.3 385.6C286 384 294.5 384.2 302.9 387.2C306 388.3 309.1 389.8 307.6 394C306.2 397.7 303.1 397.2 300 396.1C291 393 282.1 393.2 273.2 396.8C270.3 398 268.7 399.4 267.8 402.4C262.5 419.8 254.3 435.7 241.4 448.9C240.5 449.8 240.3 452.1 240.7 453.5C243.4 463.2 246.3 472.9 249.4 482.6C250.2 485.1 251.4 488 253.4 489.6C275.7 508.1 301.3 515.5 330.1 512.2C374 507.2 411.2 469.9 415.8 426C417 414.4 417.3 402.7 418.3 391.1C419.1 382.2 419.3 382.3 410.8 380.3C384 374.2 367.3 356.5 355.9 332.7C355.2 331.2 354.4 329.6 353.4 327.5C343.9 340.7 332 349.6 318.1 356C304.1 362.4 289.5 365.4 274 365.1C273.3 372.4 272.7 379.3 272.1 386.6ZM617.5 331.7C616.8 331.9 615 332.2 613.3 332.7C577.4 344 554.1 368 545.9 404.5C540 430.9 537.5 458.1 533.5 484.9C532.6 491.3 532 497.7 531.2 504.4C586.3 504.4 640.6 504.4 695 504.4C694.1 495.6 694.1 495.5 686.3 493.8C652.4 486.4 618.5 487.1 584.7 494.3C576.9 496 574.9 494.5 575.6 486.4C577 468.1 578.8 449.9 580.3 431.7C580.6 428.1 581.8 425.2 585.8 425.5C589.8 425.8 590.7 429 590.3 432.5C589.5 441.6 588.6 450.7 587.9 459.9C587.3 467.4 586.8 475 586.2 483.5C621.5 476.6 655.7 476.6 689.8 484C690 482.8 690.2 482.3 690.1 481.9C687.1 464 684.2 446.1 681 428.2C677.2 406.9 670.6 386.6 659.3 367.9C657.4 364.8 655.3 363.2 651.4 363.2C640.9 363.2 632.1 358.7 626.2 350.2C622.6 344.8 620.6 338.3 617.5 331.7ZM916.2 758.1C634.2 758.1 353.1 758.1 71.4 758.1C73.5 763.4 75.8 768.1 77.2 773C78.8 778.8 82 780.3 87.9 780.3C357.5 780.1 627.1 780.2 896.7 780.2C898 780.2 899.4 780.4 900.7 780.1C901.8 779.9 903.1 779.4 903.6 778.6C907.7 772 911.7 765.3 916.2 758.1ZM1025 670.4C1025 670.6 1025 670.8 1025 671.1C1035.9 670.4 1046.8 669.9 1057.7 668.9C1083.9 666.7 1101.9 646.5 1099.4 621.2C1097.6 603 1094.7 584.9 1091.8 566.9C1090 555.5 1081.8 549 1070.1 548.9C1039.9 548.8 1009.8 548.8 979.6 548.9C966.9 548.9 958.8 556.5 957.2 569.1C955.2 585.1 953.3 601.1 950.7 617C947.1 639.7 960.5 661.5 982.8 667.1C990.4 669 998.5 669.6 1006.4 670.3C1012.6 670.8 1018.8 670.4 1025 670.4ZM939.3 730.1C936.6 730.1 934.9 730.1 933.3 730.1C890.5 730.1 847.6 730.2 804.8 730.2C544.1 730.2 283.5 730.1 22.8 730.2C9.8 730.2 11.9 727.6 11.7 742.1C11.7 744.8 12.7 746.1 15.5 746C17.3 745.9 19.2 746 21 746C320.2 746 619.3 746 918.5 746C922 746 925.5 746.1 929 746C930.2 745.9 932 745.5 932.4 744.7C934.8 740.1 936.8 735.4 939.3 730.1ZM1778.2 338.8C1777.6 339.1 1777.2 339.2 1777 339.4C1752.7 365.6 1723.6 382.6 1687.7 387C1686.7 387.1 1685.2 389.2 1685.3 390.3C1685.6 395.3 1686 400.3 1686.9 405.2C1698.1 460.6 1748.9 495.9 1804.6 487C1818 484.9 1830.5 480.2 1842.2 472.5C1841.1 470.6 1840.1 469.1 1839.2 467.5C1830.5 452.8 1825.8 437 1826.7 419.9C1827.4 405.8 1829 391.7 1830.2 377.6C1830.8 369.9 1831.2 362.2 1831.7 354.4C1811.3 355.7 1792.9 353 1778.2 338.8ZM732.3 375.6C731 375.8 730.3 375.7 729.8 376C715.2 381.6 700.6 387.3 686 392.9C682.9 394.1 683.4 396 684 398.5C686.6 409.2 689.4 419.8 691.5 430.6C696 453.6 700.2 476.7 704.4 499.8C705.1 503.9 707 505.1 711.1 505C736.2 504.8 761.4 504.9 786.5 504.9C788.1 504.9 789.7 504.7 791.7 504.6C791.6 502.5 791.6 500.9 791.4 499.3C788.3 474.9 785.7 450.4 781.9 426.1C778.4 403.6 771.4 382.1 757.6 363.3C752 355.7 745.7 348.8 737.4 343.3C735.5 352.1 730.2 360.5 739.2 367.9C739.9 368.5 740.1 369.7 740.5 370.6C752.9 397.7 761.3 426 767.2 455.2C768.8 463 770.2 470.9 771.7 478.7C772.3 482 771.7 484.9 768 485.7C764.5 486.4 762.8 484.1 762.2 480.9C761.9 479.3 761.5 477.6 761.2 476C756.4 448.4 750 421.2 740 395C737.7 388.4 735 382 732.3 375.6ZM1425.6 729.5C1425.3 730 1424.9 730.5 1424.6 730.9C1425.1 733.3 1425.6 735.6 1426.2 738C1428.2 745.9 1428.2 745.9 1436.5 745.9C1640.8 745.9 1845.1 745.9 2049.3 745.9C2059.3 745.9 2058.2 747.2 2058.2 736.7C2058.2 730 2058.2 730 2051.8 730C1857 730 1662.2 730 1467.5 730C1465.3 730 1463.1 729.8 1461 730.1C1459.3 730.3 1457.5 730.9 1456.1 731.9C1448.4 737.8 1441.8 737.8 1433.7 732.3C1431.5 730.8 1428.4 730.4 1425.6 729.5ZM1421.3 641.7C1424.5 636.7 1427.5 632.2 1430.4 627.6C1441.9 609.3 1452.8 590.6 1460.7 570.3C1464.7 559.8 1466.7 549.2 1463.5 538.1C1460.1 526.1 1456.8 514.1 1452.9 502.2C1450.1 493.5 1446.5 485.1 1443.1 476.3C1441.2 477 1439.8 477.4 1438.4 478C1425.5 483.4 1412.7 489 1399.7 494.2C1395.8 495.8 1395.2 497.5 1396.6 501.3C1400.8 513 1404.6 524.9 1408.8 536.7C1411 543 1410.1 548.7 1406.9 554.4C1401.1 564.9 1395.5 575.5 1389.7 586C1385.4 593.8 1381 601.6 1377.4 607.9C1381.8 612.4 1385.5 616.2 1389.3 619.8C1390.4 620.8 1392.1 621.5 1393.6 621.8C1398.5 622.8 1402 625.4 1404.4 629.8C1405 631 1406.3 632.7 1407.3 632.7C1413.6 633 1417.7 636.3 1421.3 641.7ZM1580.6 540.2C1561 544.3 1542.2 548.3 1523.2 552.3C1524.9 560.2 1526.2 567.4 1528 574.4C1528.3 575.8 1530 577.4 1531.4 577.8C1539.3 580.5 1542.3 584.2 1543 592.6C1543.1 593.9 1544.2 595.5 1545.4 596.2C1552.6 600.6 1554.7 605.5 1553.2 613.9C1552.9 615.4 1553.5 617.4 1554.4 618.6C1559.3 625 1559.5 630.7 1555.1 637.4C1554.3 638.6 1553.9 640.8 1554.4 642.1C1557.6 650.6 1556.1 655.8 1548.5 661.6C1547.7 662.2 1546.7 663.4 1546.8 664.2C1547.5 668.4 1548.6 672.5 1549.6 677C1569 672.9 1587.8 669 1606.9 664.9C1598 623.1 1589.4 582 1580.6 540.2ZM1395.2 746C1394.4 742.5 1393.8 740.1 1393.2 737.7C1390.7 728.9 1392.2 730.1 1383.4 730.1C1291.6 730.1 1199.8 730.1 1107.9 730.1C1096.1 730.1 1098.2 728.5 1097.7 740.1C1097.5 744.6 1098.8 746.1 1103.6 746.1C1198.6 746 1293.6 746 1388.5 746C1390.4 746 1392.4 746 1395.2 746ZM726.6 366.8C726.1 365.4 725.8 364.6 725.5 363.8C724.2 360.6 721.5 357.8 724.2 353.7C729.2 346.1 728.1 338.3 724.1 330.5C722.8 327.9 722.3 324.6 722.4 321.6C722.8 313.5 724 305.4 724.2 297.2C724.3 295.4 722.2 292.3 720.6 291.9C717.6 291.1 716.5 293.7 716.3 296.5C716.1 300.5 716 304.5 715.2 308.4C714.7 310.7 713.4 313.7 711.6 314.7C710.3 315.4 706.9 313.7 705.4 312.1C694.6 301 684.1 289.6 673.4 278.4C672.4 277.3 671.4 275.8 670.1 275.4C668.6 275 666.1 274.9 665.2 275.9C664.3 276.8 664.5 279.2 664.8 280.8C665 281.8 666.2 282.6 667 283.4C674.4 291.5 681.8 299.7 689.2 307.8C691.5 310.3 692.7 313.1 689.9 315.7C687.1 318.3 684.4 317 682.2 314.4C680.8 312.8 679.6 310.7 677.8 309.7C676.1 308.8 673.7 309 671.7 308.7C671.8 310.8 671.2 313.2 672.1 314.8C673.6 317.5 676.6 319.4 678 322.1C678.8 323.8 678.5 327 677.4 328.5C676.7 329.4 673.1 329 671.5 328.1C669.4 326.9 668 324.6 666.4 322.7C664.3 320.2 661.8 318 658.8 320.6C655.8 323.2 658.2 325.7 660.1 327.8C662.1 330 664.2 332.2 666.1 334.5C668.1 336.9 668 339.5 665.6 341.6C663.2 343.7 660.7 343.4 658.6 341C657.5 339.8 656.5 338.5 655.4 337.2C653.4 334.9 650.9 333.9 648.6 336.5C646.4 339 648.2 340.7 650 342.8C656.4 350 663 357 668.5 364.8C672.9 370.9 675.8 378.1 679.6 385.1C695.2 379.1 710.7 373 726.6 366.8ZM1192.1 483.4C1191.8 485.3 1191.6 486.6 1191.5 487.9C1190.4 501.2 1189.4 514.5 1188.4 527.7C1186.1 559.1 1183.8 590.4 1181.6 621.8C1180.3 639.2 1179.1 656.7 1177.9 674.1C1177 687.1 1176.4 700 1175.4 713C1175.1 717 1176.5 718.5 1180.5 718.3C1183.8 718.1 1187.2 718 1190.5 718.3C1194.4 718.6 1195.9 716.9 1195.9 713.1C1195.9 707.4 1196.2 701.8 1196.5 696.1C1198.2 659.5 1199.7 622.9 1201.6 586.3C1202.5 568.7 1203.9 551.1 1205.3 533.5C1206.5 519.4 1208.1 505.3 1209.3 491.2C1209.4 489.7 1208.4 486.9 1207.4 486.6C1202.5 485.3 1197.4 484.5 1192.1 483.4ZM1414 664C1403.3 672.5 1400.5 672.5 1389.2 664.2C1388.4 663.6 1386.8 663.7 1385.6 663.9C1377.6 665.6 1372.4 663.2 1368.1 655.9C1367.3 654.6 1365.6 653.3 1364.1 653.1C1356.1 651.6 1351.8 647.5 1351.3 639.6C1351.1 637 1350.3 635.9 1348 635C1341.1 632.3 1337.1 626.8 1338.8 619.9C1340.3 614.1 1337.8 611.8 1333.7 609.5C1331.7 608.4 1329.8 607 1327.6 605.6C1321.5 613 1315.6 620.1 1309.8 627.2C1310.3 628.1 1310.5 628.5 1310.9 628.9C1339.2 657.1 1367.4 685.4 1395.8 713.5C1400.4 718 1407 717.7 1411.3 712.7C1417.9 705.2 1424.2 697.5 1430.4 689.6C1434.4 684.5 1433.6 677.8 1428.6 674.1C1423.9 670.5 1418.9 667.3 1414 664ZM1736.7 503.9C1737.1 503 1737.4 502.7 1737.4 502.4C1737.5 498.9 1737.3 495.4 1737.6 491.9C1738 487.7 1736.4 485.5 1732.7 483.3C1704.1 466.8 1685.8 442.5 1678.4 410.2C1676.8 403 1676.1 395.5 1674.9 388C1672.3 388 1669.9 388 1667.4 388C1667.2 389.3 1666.9 390.2 1666.9 391.2C1666.9 404.2 1666.7 417.2 1667 430.1C1667.4 447.8 1673.3 463.7 1684.8 477.2C1698.4 493.2 1715.7 502 1736.7 503.9ZM354.9 694C352.4 688.8 350.3 685 348.8 680.9C348.2 679.1 348.2 676.2 349.3 674.8C351 672.4 353.8 673 355.7 675.1C357.2 676.8 358.6 678.8 359.6 680.9C361 684.1 362 687.4 363.2 690.7C364.4 693.9 367 694.8 369.6 693.5C371.1 692.7 372.8 689.7 372.5 688.2C369.6 676.1 364.6 665 351 662C342.2 660 333 659.1 323.9 659C311.2 658.8 302 665.5 297 677C291.8 688.9 294.1 700 302.8 709.4C308.7 715.8 316.2 719.4 325.7 718.2C324.8 715.5 323.9 713.2 323.4 710.8C322.9 708.2 322.8 705.5 322.8 702.9C322.7 695.5 324.1 694.1 331.4 694.1C338.7 694 346 694 354.9 694ZM1778.2 556.3C1779.9 555.3 1780.8 554.9 1781.6 554.4C1796.1 543.6 1810.7 532.8 1825.1 521.8C1838.2 511.9 1839.6 506 1834.7 487.5C1814.6 496.6 1793.5 499.6 1771 496.7C1773.5 517 1775.8 536.4 1778.2 556.3ZM481.2 516.3C472.8 515.3 469.6 518 469.6 526.2C469.6 535.5 469.6 544.8 469.6 554.2C469.6 607.1 469.6 660.1 469.7 713C469.7 714.9 470.7 716.8 471.3 718.7C473.3 717.8 476.4 717.4 477.2 715.8C479.1 712.3 481 708.2 481.1 704.4C481.3 641.8 481.2 579.3 481.2 516.3ZM1272.2 358.5C1272.9 365.4 1272.7 372 1274.4 378.1C1277.7 389.9 1282.1 401.5 1286.1 413.1C1287.1 416.2 1288.2 419.3 1289.4 422.8C1290.6 421.9 1291.4 421.5 1291.9 420.9C1305.3 406 1318.5 391.1 1332 376.4C1335.4 372.6 1336.7 368.7 1336.5 363.8C1336.3 360 1335.3 358.9 1331.4 359.7C1318.3 362.3 1305 363.3 1291.7 361.4C1285.6 360.5 1279.5 359.6 1272.2 358.5ZM893.3 699.5C911.9 702.8 912 703 914.1 718C920.1 717.6 925.5 712.9 927.2 705.7C932.1 684.7 937 663.7 941.2 642.5C942 638.7 940.5 633.2 938 630.2C934.8 626.4 929.4 624.5 924.5 621.4C914.3 647.2 903.8 673.3 893.3 699.5ZM266.1 509.8C261.8 530.2 265 543.3 278.1 553C289.4 561.3 305.6 561.4 317.1 553.6C327.7 546.4 333.6 533.1 330.7 521.7C308.2 523.9 286.4 520.5 266.1 509.8ZM300.3 610.4C303.9 605.9 306.7 602.5 309.5 599C323.2 581.2 336.9 563.4 346.7 543C350 536.2 349.8 536 342.7 533.8C342.1 533.6 341.5 533.5 340.6 533.4C335 554.7 321.7 567.7 299.4 568.3C277.3 568.9 263 557.2 255.9 536.6C248.2 538.9 247.5 539.8 251.6 545.9C259.7 558.3 268.1 570.5 277 582.3C284.1 591.7 292.1 600.6 300.3 610.4ZM958.5 766C967.3 768 964.7 774 962.9 780.1C965.5 780.1 967.2 780.1 969 780.1C995.7 780.1 1022.3 780 1049 780.2C1054.1 780.3 1055.6 778.6 1055.9 773.8C1056.1 771.5 1057.8 768.1 1059.7 767.3C1065 765 1065.7 764.4 1063.5 757.7C1061.5 757.7 1059.3 757.7 1057.2 757.7C1028 757.7 998.9 757.7 969.7 757.7C961.6 757.7 961.6 757.7 958.5 766ZM1102.3 823.4C1102.5 822.2 1102.7 821.7 1102.6 821.2C1100.9 807 1099.3 792.8 1097.4 778.7C1097.2 777.6 1094.7 776 1093.3 776C1085 775.8 1076.7 776 1068.4 775.9C1065.7 775.9 1064.6 776.7 1064.3 779.5C1062.5 795.3 1060.4 811.1 1058.5 827C1057.9 831.9 1057.6 836.8 1057 842.7C1071.9 833.5 1085 823.6 1102.3 823.4ZM934.3 838.6C941.3 816.6 948 795.7 954.8 774.4C945.5 770.2 936.6 766 927.6 762.2C926.6 761.8 924 763.2 923.2 764.4C916.4 775.1 909.9 785.9 903.3 796.7C902.4 798.2 901.6 799.8 900.6 801.7C917.1 809.3 924.3 824.5 934.3 838.6ZM1050.6 680.2C1033 680.2 1016.4 680.2 999.5 680.2C999.5 693.4 999.5 706.2 999.5 719.5C1015.8 719.5 1032 719.5 1048.1 719.4C1048.9 719.4 1050.5 717.6 1050.5 716.6C1050.6 704.6 1050.6 692.7 1050.6 680.2ZM397.5 556.8C404.2 533.4 405.6 510.1 400 485.4C383.7 503.6 364.2 514.7 340.5 520.8C351.7 526.6 361.7 530.9 370.8 536.7C380 542.5 388.3 549.7 397.5 556.8ZM458.4 705.1C416.5 705.1 375.1 705.1 333.8 705.1C333.8 713.4 339.6 718.9 347.9 718.9C383 718.9 418.2 718.9 453.3 718.9C454.9 718.9 456.5 718.7 458.4 718.5C458.4 713.9 458.4 709.6 458.4 705.1ZM1792.6 718.6C1792.5 715.8 1792.6 713.3 1792.2 711C1789.5 697 1774.8 681.9 1760.9 679C1760.1 678.8 1759.2 678.7 1758.4 678.9C1741.6 683.2 1727.8 691.2 1722.1 708.8C1721.1 711.8 1720.8 715.1 1720.2 718.2C1728.8 719.6 1728.8 719.6 1731 712.4C1733.7 703.4 1739 696.4 1747.6 692.2C1750.3 690.9 1753.4 691.1 1754.2 694.2C1754.6 696 1753 698.4 1751.9 700.4C1751.4 701.3 1749.9 701.5 1749 702.2C1743.5 706.2 1740.3 711.4 1739.6 718.2C1748.3 719.7 1748.4 719.7 1752.1 712.5C1754.7 707.3 1758.9 703.9 1764.1 701.8C1767.2 700.6 1770.6 699.5 1772.2 703.5C1773.8 707.3 1771.2 709.2 1767.8 710.4C1764.2 711.7 1761 713.7 1760.2 718.5C1771 718.6 1781.5 718.6 1792.6 718.6ZM948.3 655.5C943.1 677 938.1 697.9 933.1 718.7C944.3 720.5 944.5 720.4 949.3 709.7C950 708.2 950.7 706.7 951.4 705.2C953.8 699.8 957.8 696.2 963.6 695.3C968.6 694.5 973.8 694.3 978.9 694.1C991.3 693.7 989.6 696.6 989.5 682.8C989.5 681.5 987.6 679.2 986.4 679C971.7 676.3 959.7 669.3 950.5 657.4C950 656.8 949.4 656.4 948.3 655.5ZM967.9 745.7C970.4 745.8 972 745.9 973.6 745.9C1000.1 745.9 1026.5 746 1053 745.9C1065.6 745.8 1064.1 748.8 1064.2 734C1064.2 730.9 1062.8 730 1059.9 730.1C1032.9 730.2 1006 730.1 979 730.2C977.5 730.2 975.3 730.7 974.7 731.8C972.3 736 970.3 740.5 967.9 745.7ZM1625.6 660.8C1625.5 659.4 1625.5 658.5 1625.4 657.7C1617.5 619.7 1609.5 581.6 1601.5 543.6C1600 536.2 1599.9 536.2 1592.7 537.8C1591.9 538 1591.2 538.3 1589.9 538.8C1598.6 580.1 1607.2 621.3 1615.9 662.8C1619.4 662.1 1622.2 661.5 1625.6 660.8ZM938.7 756.5C941 757.6 943 758.4 944.8 759.5C948.3 761.6 950.3 760.8 951.9 756.9C955.7 747.9 960 739.1 964.1 730.1C966.7 724.4 969.5 718.7 971.8 712.8C973.6 708.1 970.3 703.7 965.8 704.9C963.4 705.6 960.8 708.1 959.7 710.4C953.1 724 947 737.8 940.7 751.6C939.9 753.1 939.4 754.7 938.7 756.5ZM1075.5 737.5C1075.5 745.8 1075.6 754.1 1075.4 762.4C1075.3 766 1077.4 766.6 1080.2 766.3C1082.7 766 1086.4 767.7 1086.4 762.9C1086.4 745.8 1086.4 728.7 1086.4 711.5C1086.4 711 1086.4 710.4 1086.1 710.1C1084.6 708.4 1083 705.4 1081.4 705.3C1079.6 705.3 1077.5 707.8 1076.2 709.6C1075.4 710.8 1075.6 712.8 1075.6 714.4C1075.4 722.2 1075.5 729.9 1075.5 737.5ZM1345.9 410.7C1343.7 401.2 1341.7 392.4 1339.4 382.5C1326.8 396.4 1315.2 409.3 1303.6 422.3C1303.9 422.6 1304.2 423 1304.4 423.3C1318 419.2 1331.6 415.1 1345.9 410.7ZM1247.1 408.1C1258 413.5 1268 418.4 1278 423.4C1278.3 423.1 1278.7 422.8 1279 422.5C1274.6 409.6 1270.2 396.7 1265.5 382.7C1259 391.7 1253.3 399.6 1247.1 408.1ZM1122.9 846.7C1120.8 840.5 1117.6 835.9 1112.2 834.7C1106.7 833.4 1100.7 833.3 1095.1 833.9C1085.6 835.1 1077.9 840.5 1069.2 846.7C1087.8 846.7 1104.9 846.7 1122.9 846.7ZM872.4 814.9C888.6 822.3 904.4 829.5 921.4 837.3C914.4 825 907.2 815 895.1 809.7C887.1 806.1 879.4 807.7 872.4 814.9ZM514.4 204.1C507.4 213.7 508 226.1 515.4 235.3C520.5 241.7 529.6 245.4 534.8 243.1C528.1 230.3 521.4 217.5 514.4 204.1ZM1024.6 510.5C1031.1 510.6 1036.5 505.5 1036.7 499.1C1036.9 492.7 1031.3 486.8 1024.9 486.9C1018.5 486.9 1013.2 492.2 1013.2 498.7C1013.1 505.3 1018 510.4 1024.6 510.5ZM945.1 577.9C937.3 578.1 931.8 583 931.3 590.3C930.9 596.3 930.9 602.3 931.2 608.2C931.5 613.3 934 617.2 939.4 619.8C941.4 605.6 943.2 592 945.1 577.9ZM761.5 209.8C771.1 205.8 776.1 199.1 778 189.7C779.7 181.1 776 171.5 769.4 167.2C766.8 181.2 764.3 195.1 761.5 209.8ZM645.4 351.7C644.2 350.5 643.3 349.7 642.4 348.8C636.1 342.8 636.5 332.8 643.9 328.2C648.1 325.6 648.4 322.5 648.1 317.9C641.5 317.9 635.2 317.9 628.8 317.9C626.7 336 633.2 349.5 645.4 351.7ZM1110.2 618.5C1110.9 618.7 1111.6 618.9 1112.3 619.1C1114 616.2 1116.9 613.5 1117.2 610.5C1117.9 603.3 1118 595.9 1117.3 588.6C1116.7 582.2 1110.3 577.6 1104.7 578.8C1106.5 592 1108.4 605.3 1110.2 618.5ZM1541.4 492.3C1541.5 486.7 1536.6 481.8 1530.9 481.8C1525.4 481.8 1520.6 486.4 1520.4 491.8C1520.2 497.5 1524.9 502.5 1530.6 502.6C1536.4 502.7 1541.3 498 1541.4 492.3ZM1424.1 711.6C1430.2 716.6 1435.6 721.2 1441.2 725.5C1444.2 727.8 1447.8 727.4 1449.4 724.3C1450.5 722.2 1450.4 717.8 1449 716.4C1443.9 711.3 1438 706.9 1432.1 702C1429.4 705.4 1426.9 708.3 1424.1 711.6ZM888.8 719.5C892.3 719.5 895.8 719.6 899.2 719.5C902.4 719.4 905.1 717.7 904.4 714.4C904 712.4 901.3 709.7 899.5 709.6C892.6 709 885.6 709 878.7 709.6C876.9 709.8 875.3 712.8 873.7 714.6C875.4 716.3 876.9 718.8 879 719.4C882 720.1 885.4 719.5 888.8 719.5ZM1441.9 676.1C1441.9 680.7 1441.9 684.5 1441.9 688.7C1448.8 689.1 1455.5 689.8 1462.3 689.9C1465.8 689.9 1468.2 687.4 1468.2 683.7C1468.2 680.4 1466.3 678 1462.8 677.7C1455.9 677.1 1449 676.6 1441.9 676.1ZM1400.2 726.2C1402.1 733.2 1403.7 740 1405.7 746.7C1406.7 750.2 1409.5 751.9 1413.1 750.9C1416.6 750 1418.4 747.2 1417.6 743.6C1416.1 737 1414.2 730.5 1412.5 724.1C1408.2 724.8 1404.5 725.4 1400.2 726.2ZM1522.2 618.6C1529.3 616.9 1535.2 615.9 1540.8 613.9C1542.5 613.3 1544.6 609.6 1544.1 608.5C1543.3 606.7 1540.2 604.6 1538.4 604.8C1532.7 605.5 1527 606.9 1521.6 608.8C1520 609.4 1518.1 612.5 1518.3 614.2C1518.3 615.9 1521 617.4 1522.2 618.6ZM1544.4 623.2C1537.5 624.8 1531.6 625.9 1525.9 627.8C1524.3 628.4 1522.2 631.6 1522.6 633.1C1523 634.8 1526.1 637.1 1527.8 636.9C1533.7 636.2 1539.6 634.8 1545.2 632.9C1546.8 632.4 1548.4 629.1 1548.3 627.2C1548.2 625.7 1545.6 624.3 1544.4 623.2ZM1176 253.7C1175.3 241 1174.6 228.2 1174 215.5C1163.2 225.6 1164.4 245.4 1176 253.7ZM1375.2 620.4C1375 620.5 1374.2 620.6 1373.8 621C1369.6 626.3 1365.3 631.5 1361.5 637.1C1360.8 638.1 1361.9 641.6 1363.1 642.4C1364.4 643.2 1367.8 642.9 1368.7 641.7C1372.6 637 1376.1 631.9 1379.3 626.8C1381.1 624.1 1378.6 620.3 1375.2 620.4ZM1396.2 635.7C1395.1 634.5 1394.1 632.5 1392.8 632.3C1391.2 632 1388.7 632.8 1387.7 634C1384.2 638.2 1381.3 642.9 1378.1 647.4C1376.3 649.9 1376.6 652.1 1379 653.9C1381.5 655.8 1383.8 654.9 1385.5 652.6C1388.7 648.3 1391.7 643.9 1394.7 639.5C1395.1 638.6 1395.4 637.4 1396.2 635.7ZM1517.8 599.6C1522.7 598.4 1526.7 598 1530 596.4C1531.7 595.6 1533.5 592.4 1533.1 590.7C1532.7 589.1 1529.6 587.1 1527.7 587.1C1524.1 587.1 1520.3 588 1517.1 589.5C1515.4 590.3 1513.5 593.2 1513.7 595.1C1513.9 596.8 1516.6 598.3 1517.8 599.6ZM1530.7 656.8C1535.9 655.5 1540.1 654.8 1543.8 653.2C1545.2 652.5 1546.6 649.2 1546.1 647.6C1545.6 646 1542.7 644.2 1541 644.3C1537.3 644.5 1533.4 645.5 1530 647C1528.4 647.7 1526.5 650.5 1526.8 652.1C1527 653.8 1529.4 655.3 1530.7 656.8ZM1412.5 648.3C1411.1 646.2 1410.6 644.2 1409.4 643.8C1408 643.2 1405.3 643.2 1404.5 644.2C1401.7 647.4 1399.2 651 1397.2 654.7C1396.6 655.8 1397.5 658.3 1398.5 659.4C1399.3 660.3 1402.2 660.7 1402.8 660.1C1406.2 656.4 1409.2 652.4 1412.5 648.3ZM1364.5 613.1C1364.1 612.6 1363.4 610.8 1362.3 610.5C1360.7 610.1 1358.4 610.1 1357.2 611C1354.3 613.2 1351.7 615.8 1349.5 618.7C1348.6 619.9 1348.6 622.2 1349 623.7C1349.3 624.7 1351.2 625.7 1352.5 625.9C1355.9 626.3 1364.6 617.4 1364.5 613.1ZM864.5 709.5C860.5 709.3 856.3 708 853.4 711.7C852.5 712.9 852.7 716.7 853.2 716.9C856.6 718.2 860.3 718.8 864.4 719.7C864.5 715.5 864.5 712.7 864.5 709.5ZM250.7 526.6C255.9 522.9 256.4 505.1 252 503C251.6 510.7 251.2 518.2 250.7 526.6Z" />
		<path id="Layer" class="shp15" d="M1185.2 213.3C1189.7 213.6 1196.9 178.5 1208.2 173.6C1214.6 170.9 1215.5 175.8 1231.9 175.6C1248.7 175.4 1257.1 155.1 1261.6 159.9C1264.9 163.4 1274.1 181.8 1290.3 195.1C1333 230.1 1390.7 199 1395.8 208.1C1400.4 216.4 1399.8 251.6 1409.5 250.4C1413.5 249.9 1410.1 213.1 1421.2 208.7C1424.1 207.5 1425.1 209.3 1426.4 207.5C1429.2 203.7 1424.4 160.1 1399.7 134.2C1365.9 98.6 1306.8 99.8 1269 111.9C1261 114.5 1207.3 132.4 1190 178.2C1183.1 196.1 1183.8 213.2 1185.2 213.3Z" />
		<path id="Layer" class="shp16" d="M1190.1 175.7C1190.1 175.7 1229.8 114.1 1293.2 105.5C1352.2 97.5 1396 130.8 1396 130.8C1396 130.8 1381.8 117.4 1372.7 111.5C1342.4 91.9 1301.7 84.7 1261.4 99.5C1206 119.9 1190.1 175.7 1190.1 175.7Z" />
		<path id="Layer" fill-rule="evenodd" class="shp17" d="M1589.6 480.4C1589.6 471.6 1589.6 462.8 1589.6 453.9C1589.6 448.2 1591.5 446.8 1596.9 447.9C1601.4 448.8 1606.7 451.5 1610.1 449.9C1613.3 448.4 1614.6 442.6 1616.7 438.6C1619.8 432.7 1622.6 426.7 1626 421C1627.1 419.2 1629.8 418.4 1631.7 417.2C1632.9 419.3 1635.1 421.5 1635 423.6C1633.6 442.7 1631.8 461.7 1630.1 480.7C1629.8 484.2 1627.9 486.1 1624.1 485.8C1621.6 485.6 1619 486.1 1616.6 485.5C1611.2 484.1 1608.9 486.7 1607 491.2C1604.5 497.2 1601.4 502.9 1598.6 508.7C1597.3 511.4 1595.7 514.5 1592.5 512.9C1590.6 512 1589.1 508.6 1589 506.2C1588.6 497.6 1588.8 488.9 1588.8 480.2C1589.2 480.4 1589.4 480.4 1589.6 480.4ZM1599.3 483.6C1601.7 474.3 1608.7 475 1615.8 475.9C1616.1 475.9 1616.6 476.1 1616.8 475.9C1618.3 474.7 1620.7 473.7 1620.9 472.3C1621.9 464.8 1622.4 457.2 1623.1 449.2C1622.3 450 1621.8 450.2 1621.6 450.6C1618.5 460.2 1612.8 464.2 1602.8 459.8C1602.1 459.5 1599.5 461.4 1599.4 462.4C1599.2 469.3 1599.3 476.4 1599.3 483.6Z" />
		<path id="Layer" class="shp14" d="M1087 442.1C1085.5 443.8 1084.5 445.8 1083.3 445.9C1081.4 446.1 1079.2 445.4 1077.6 444.4C1070.2 439.7 1063.5 433.4 1055.6 430C1026.1 417.2 998.8 422 974.2 442.5C973.2 443.4 972.4 444.8 971.2 445.1C969.2 445.5 967 445.3 964.9 445.3C964.9 443.1 964 439.9 965.1 438.8C968.7 435 972.9 431.6 977.3 428.5C1008.9 406.5 1054.5 410 1082.4 436.6C1084.1 438.1 1085.4 440 1087 442.1Z" />
		<path id="Layer" class="shp14" d="M1062.7 464.3C1062.6 468.8 1059.3 470.8 1056.3 469.3C1055 468.6 1053.9 467.5 1052.8 466.5C1036.1 452.5 1013.8 452.5 997 466.4C996.4 466.9 995.7 467.5 995.1 468C992.9 470.1 990.5 470.9 988.1 468.4C985.4 465.7 986.8 463.3 989.1 461.1C995.4 455.2 1002.6 450.9 1011 448.8C1029 444.3 1045.2 447.9 1059.3 460.1C1060.9 461.5 1062 463.4 1062.7 464.3Z" />
		<path id="Layer" class="shp18" d="M1483.1 416.5C1483.8 415.7 1485 413.3 1486 413.4C1488.1 413.6 1491.1 414.5 1492 416.1C1497.4 425.4 1502.3 435 1507.4 444.5C1507.6 444.9 1508.1 445.5 1508 445.8C1507.4 447.7 1507.1 450.4 1505.8 451.1C1504.5 451.8 1501 451 1500.3 449.9C1494.5 439.7 1489 429.3 1483.5 418.9C1483.4 418.5 1483.4 417.9 1483.1 416.5Z" />
		<path id="Layer" fill-rule="evenodd" class="shp0" d="M489.2 719.1C493.4 706.6 491.6 694.4 491.6 682.4C491.8 631.1 491.7 579.8 491.7 528.4C491.7 526.4 491.7 524.4 491.9 522.4C492.2 517.9 494.8 515.9 499.1 515.8C500.4 515.8 501.8 515.8 503.1 515.8C603.1 515.8 703 515.8 803 515.8C811.4 515.8 811.8 516.2 811.8 524.5C811.8 585 811.8 645.5 811.8 705.9C811.8 708 811.6 710.2 811.2 712.3C810.4 717.1 807.6 719.1 802.5 719.1C699.9 719 597.2 719 494.6 719C492.9 719.1 491.3 719.1 489.2 719.1ZM652.8 595.1C641.7 595.1 632.6 604.2 632.8 615C633 626.1 642 634.8 653 634.8C664 634.8 673 625.7 673 614.8C673 603.8 664 595 652.8 595.1Z" />
		<path id="Layer" class="shp19" d="M1386.5 718.2C1382.3 718.2 1379.2 718.2 1376.1 718.2C1322.1 718.2 1268.1 718.2 1214.1 718.2C1206.2 718.2 1206.1 718.2 1206.4 710.6C1208.1 669.3 1209.4 628 1211.9 586.8C1214 553.1 1217.5 519.5 1220.6 485.8C1221 481.5 1222.1 477.3 1223.1 473.1C1223.9 469.8 1223.5 466.9 1219.8 465.9C1216.2 464.9 1214.2 467.1 1213.3 470.4C1212.8 472.3 1212.2 474.2 1211.4 476.6C1206.1 475.6 1200.9 474.8 1195.9 473.3C1194.7 472.9 1193.5 469.9 1193.7 468.2C1195.2 452 1200.5 437 1208.8 423.1C1216.7 409.9 1227 398.9 1240.3 390.9C1243.2 389.1 1246.4 387.7 1250.1 387C1246 392.9 1241.8 398.8 1237.7 404.7C1234.1 409.8 1234.5 412.5 1240.1 415.4C1254.6 422.8 1269.2 430.2 1283.9 437.3C1286 438.3 1289.2 438.2 1291.6 437.5C1311.1 431.7 1330.4 425.6 1349.8 419.6C1356.1 417.7 1357 416.3 1355.7 409.9C1354 401.9 1352.1 394 1350.3 386C1349.9 384.3 1349.7 382.5 1349.3 380.2C1363.6 382.1 1376.4 386.5 1388.1 393.7C1405.1 404.1 1417.4 418.6 1425.5 436.8C1429.8 446.5 1434.3 456.1 1438.9 466.3C1433.6 468.6 1429 470.7 1424.3 472.7C1415.1 476.6 1405.8 480.2 1396.7 484.5C1392.2 486.6 1390.5 485.2 1389.1 481.1C1387.6 476.5 1385.6 472.1 1383.8 467.6C1382.4 464.1 1380.7 460.9 1376.2 462.7C1372 464.4 1372.9 467.7 1374.1 471.1C1381 489.5 1387.5 508 1394.9 526.2C1399.7 538 1400 548.4 1392.6 559.5C1384.7 571.6 1378.3 584.7 1371.4 597.4C1369.8 600.3 1368.5 601.6 1364.9 600.2C1359.3 598 1354 599.4 1349.8 603.7C1347.4 606.2 1345.4 605.8 1342.9 604C1340 601.8 1336.9 599.9 1333.8 597.8C1327.2 593.2 1326.9 593.2 1319.5 598.6C1315.9 594.7 1312.1 590.6 1308.4 586.4C1305.8 583.4 1302.6 581.6 1299.5 584.8C1296.6 587.7 1298.2 590.9 1300.8 593.6C1304.2 597 1307.7 600.4 1310.9 604C1311.9 605.1 1312.9 607.9 1312.4 608.4C1310.8 609.9 1308.4 611.8 1306.5 611.5C1301.2 610.9 1296.1 609.1 1290.9 608.1C1286.6 607.2 1283.1 609.5 1284 612.8C1284.5 614.9 1286.9 617.1 1289 618C1292.9 619.6 1297.2 620.3 1301.5 621.3C1297.1 628.1 1297.1 629 1302.6 634.5C1329.6 661.5 1356.6 688.4 1383.6 715.4C1384.3 715.9 1385 716.6 1386.5 718.2Z" />
		<path id="Layer" class="shp1" d="M1873 656.6C1827 658.5 1781.8 662 1737.5 675.2C1737.5 673.3 1737.4 671.2 1737.5 669.1C1738.4 645 1739.3 620.8 1740.2 596.7C1740.2 595.5 1740.7 594 1740.2 593.3C1738.9 591.4 1737.2 588.7 1735.5 588.6C1733.9 588.5 1731.1 591.2 1730.8 593C1729.9 598.7 1729.8 604.6 1729.6 610.4C1729.2 620.7 1729 631.1 1728.4 641.4C1728.3 643.4 1727.1 646.1 1725.6 647.2C1710.2 657.7 1694.7 668.1 1679 678.1C1666.4 686.1 1652.7 688 1638.2 684.2C1628.3 681.6 1618.3 678.9 1608.4 676.3C1608.4 675.7 1608.4 675.1 1608.4 674.5C1613.9 673.3 1619.4 671.9 1625 670.8C1637.2 668.3 1637.2 668.3 1634.7 656.2C1633.2 649 1631.7 641.9 1630.3 634.7C1630 633.1 1629.8 631.5 1629.6 630.2C1630.2 629.8 1630.4 629.6 1630.5 629.6C1647.3 633.8 1660.1 626.9 1670.8 614.8C1689.2 593.9 1706.9 572.5 1725.7 551.9C1736 540.6 1747.6 530.6 1758.7 520.1C1759.9 519 1761.4 518.3 1763.7 516.8C1764.7 524.7 1765.7 531.8 1766.6 539C1767.6 547.4 1768.5 555.9 1769.6 564.3C1770.3 569.8 1773.9 571.7 1778.3 568.4C1797.6 554.2 1816.9 539.9 1835.8 525.2C1839.8 522.1 1842.7 517.1 1845.1 512.5C1846.6 509.6 1847.6 509 1850.6 509.9C1869.6 515.5 1884.8 526.7 1897.8 541.3C1918.4 564.3 1930.6 591.6 1938.4 621.2C1944 642.1 1949.9 663 1950.4 684.9C1950.6 692.1 1949.7 699.6 1947.9 706.6C1945.7 715.4 1939.9 718.9 1930.8 718.9C1890 718.8 1849.1 718.6 1808.3 718.6C1804.2 718.6 1802.2 717.8 1801.8 713C1800.7 699.2 1793.6 688.6 1782.8 680.4C1781.5 679.4 1780.1 678.4 1778.8 677.4C1778.6 677.2 1778.6 676.8 1778.2 675.9C1788.2 674.4 1798 672.3 1807.8 671.5C1830.7 669.7 1853.6 668.5 1876.6 667.3C1883 666.9 1884.6 665.4 1883.5 659C1879.2 634.8 1870.9 612.1 1859.1 590.6C1857.5 587.6 1855.3 584.9 1851.6 586.9C1847.6 589 1848.9 592.4 1850.6 595.5C1860 613.1 1867.2 631.5 1871.8 650.9C1872.3 652.3 1872.6 654.1 1873 656.6Z" />
		<path id="Layer" class="shp0" d="M1097.6 766.1C1097.6 763.4 1097.6 761 1097.6 758C1099.5 757.9 1101.3 757.7 1103.1 757.7C1201.2 757.7 1299.4 757.7 1397.5 757.8C1400.2 757.8 1403 758.9 1405.7 759.2C1409.3 759.5 1412.9 759.7 1416.5 759.5C1420.2 759.2 1423.9 757.8 1427.7 757.8C1616.3 757.7 1805 757.7 1993.6 757.7C1996.1 757.7 1998.5 757.7 2001.9 757.7C1998.9 765.1 1996.4 771.7 1993.6 778.2C1993.2 779.1 1991.6 779.8 1990.5 780.1C1989.1 780.4 1987.5 780.2 1986 780.2C1695.7 780.2 1405.5 780.2 1115.2 780.2C1113.7 780.2 1112.2 780.1 1110.7 780.2C1107.6 780.5 1106.7 778.9 1106.4 776.1C1105.4 767.8 1105.4 767.8 1097.6 766.1Z" />
		<path id="Layer" class="shp20" d="M617.5 331.7C620.6 338.3 622.6 344.8 626.3 350.1C632.2 358.6 641 363.1 651.5 363.1C655.4 363.1 657.5 364.7 659.4 367.8C670.7 386.5 677.3 406.8 681.1 428.1C684.3 446 687.2 463.9 690.2 481.8C690.3 482.3 690.1 482.7 689.9 483.9C655.8 476.6 621.6 476.5 586.3 483.4C586.9 474.9 587.4 467.3 588 459.8C588.7 450.7 589.6 441.6 590.4 432.4C590.7 428.9 589.9 425.7 585.9 425.4C581.9 425.1 580.7 428 580.4 431.6C578.9 449.9 577.1 468.1 575.7 486.3C575.1 494.4 577 495.9 584.8 494.2C618.6 486.9 652.5 486.3 686.4 493.7C694.2 495.4 694.1 495.5 695.1 504.3C640.7 504.3 586.4 504.3 531.3 504.3C532.1 497.6 532.6 491.1 533.6 484.8C537.5 458 540.1 430.8 546 404.4C554.2 367.9 577.5 343.9 613.4 332.6C615 332.2 616.8 331.9 617.5 331.7Z" />
		<path id="Layer" class="shp0" d="M916.2 758.1C911.8 765.4 907.8 772 903.6 778.6C903.1 779.4 901.7 779.9 900.7 780.1C899.4 780.4 898 780.2 896.7 780.2C627.1 780.2 357.5 780.2 87.9 780.3C82 780.3 78.8 778.8 77.2 773C75.8 768.1 73.5 763.4 71.4 758.1C353 758.1 634.1 758.1 916.2 758.1Z" />
		<path id="Layer" fill-rule="evenodd" class="shp0" d="M1025 670.4C1018.8 670.4 1012.6 670.8 1006.5 670.3C998.6 669.7 990.6 669 982.9 667.1C960.6 661.5 947.2 639.7 950.8 617C953.3 601.1 955.3 585.1 957.3 569.1C958.9 556.6 967 549 979.7 548.9C1009.9 548.8 1040 548.8 1070.2 548.9C1081.9 548.9 1090.1 555.5 1091.9 566.9C1094.8 585 1097.7 603 1099.5 621.2C1102 646.5 1084 666.6 1057.8 668.9C1046.9 669.8 1036 670.4 1025.1 671.1C1025 670.8 1025 670.6 1025 670.4ZM990.5 583.1C998 583.1 1004.7 577.4 1004.9 570.2C1005 568.3 1002.8 566.3 1001.6 564.3C999.7 565.5 996.9 566.4 996.2 568.1C995.1 571.1 994.3 573.9 990.6 574.1C986.6 574.2 985.8 571.3 984.5 568.1C983.8 566.4 981 565.6 979.1 564.3C978 566.3 975.8 568.3 975.9 570.2C976.4 577.6 982.9 583.1 990.5 583.1ZM1056.9 583.1C1064.4 583.4 1071 578.3 1071.9 570.8C1072.1 568.8 1070.5 565.5 1068.8 564.6C1065.9 563.1 1063.8 565.5 1063.2 568.4C1062.5 571.7 1061.1 574.1 1057.5 574.1C1053.8 574 1053 571.3 1051.8 568.3C1051.1 566.6 1048.3 565.6 1046.5 564.4C1045.3 566.5 1043.1 568.7 1043.2 570.7C1043.7 577.6 1049.8 582.9 1056.9 583.1ZM1025.1 595.1C1028.7 595.1 1032.5 595.6 1036 594.9C1037.9 594.5 1039.5 592.3 1041.2 590.9C1039.4 589.3 1037.8 586.5 1035.9 586.4C1028.5 585.9 1021 585.9 1013.5 586.4C1011.7 586.5 1009.1 588.8 1008.7 590.5C1007.9 593.8 1010.6 595 1013.6 595.1C1017.5 595.1 1021.3 595.1 1025.1 595.1Z" />
		<path id="Layer" class="shp21" d="M939.3 730.1C936.8 735.4 934.7 740.1 932.3 744.6C931.9 745.4 930.1 745.9 928.9 745.9C925.4 746.1 921.9 745.9 918.4 745.9C619.2 745.9 320.1 745.9 20.9 745.9C19.1 745.9 17.2 745.8 15.4 745.9C12.6 746 11.6 744.7 11.6 742C11.8 727.4 9.7 730.1 22.7 730.1C283.4 730.1 544 730.1 804.7 730.1C847.5 730.1 890.4 730 933.2 730C935 730.1 936.6 730.1 939.3 730.1Z" />
		<path id="Layer" fill-rule="evenodd" class="shp2" d="M1778.2 338.8C1792.9 353 1811.3 355.7 1831.8 354.4C1831.3 362.2 1830.9 369.9 1830.3 377.6C1829.2 391.7 1827.6 405.8 1826.8 419.9C1825.9 437 1830.6 452.8 1839.3 467.5C1840.2 469.1 1841.2 470.6 1842.3 472.5C1830.6 480.2 1818.1 484.9 1804.7 487C1749 495.9 1698.2 460.5 1687 405.2C1686 400.3 1685.6 395.3 1685.4 390.3C1685.3 389.2 1686.9 387.2 1687.8 387C1723.7 382.6 1752.8 365.6 1777.1 339.4C1777.2 339.2 1777.6 339.1 1778.2 338.8ZM1778.4 447.9C1782.1 447.9 1787 443.8 1787.5 437.1C1787.8 434.2 1787 431.2 1786.9 428.2C1786.8 426.8 1787.2 425.4 1787.2 424C1787.2 423.6 1787.3 423 1787.3 422C1787.4 418.8 1787.1 418.2 1786.8 417.9C1786.5 417.6 1786 417.5 1785.1 417.3C1784.4 417.2 1782.4 416.9 1780.3 417.9C1779.8 418.1 1779.5 418.4 1779.4 418.4C1777.3 419.9 1766.9 425.5 1756.5 425.4C1754.1 425.4 1752.6 425.4 1750.5 424.9C1749 424.5 1747.6 424.3 1746.1 423.9C1745.3 423.7 1744.2 423.4 1743 423.6C1742.7 423.7 1742.1 423.8 1741.5 424.2C1740.2 425 1739.9 426.3 1739.7 426.8C1738.7 430 1740.6 432 1743.6 432.7C1748 433.6 1752.4 434.5 1756.8 434.7C1760.2 434.8 1762.1 435.5 1763.5 438.9C1765.7 444 1769.2 448 1778.4 447.9ZM1810.8 366.8C1811.9 365.8 1814.6 364.4 1814.7 363C1814.7 361.1 1812.9 358 1811.2 357.5C1799.3 354.1 1787.5 354.8 1776.2 360.2C1774.6 361 1774.2 364.1 1773.2 366.1C1775.3 367 1777.9 369.2 1779.3 368.6C1789.3 364.4 1799.3 363.7 1810.8 366.8ZM1709.9 411C1715.6 411 1720.1 406.7 1720.3 401.2C1720.5 395.6 1715.7 390.6 1710 390.6C1704.3 390.6 1699.5 395.4 1699.6 401.1C1699.8 406.6 1704.2 411 1709.9 411ZM1807.4 394.9C1807.4 389 1802.9 384.7 1796.8 384.8C1791.2 384.9 1786.7 389.5 1786.7 395C1786.8 400.7 1791.5 405.2 1797.4 405.1C1803.1 405 1807.4 400.6 1807.4 394.9Z" />
		<path id="Layer" class="shp20" d="M732.3 375.6C734.9 382 737.7 388.4 740.2 394.9C750.2 421.1 756.6 448.3 761.4 475.9C761.7 477.5 762 479.2 762.4 480.8C763 484 764.7 486.2 768.2 485.6C771.9 484.9 772.6 482 771.9 478.6C770.4 470.8 769 462.9 767.4 455.1C761.5 426 753.1 397.6 740.7 370.5C740.3 369.6 740.1 368.4 739.4 367.8C730.4 360.4 735.7 352 737.6 343.2C745.9 348.7 752.2 355.6 757.8 363.2C771.6 381.9 778.5 403.4 782.1 426C785.9 450.3 788.5 474.8 791.6 499.2C791.8 500.8 791.8 502.4 791.9 504.5C789.9 504.6 788.3 504.8 786.7 504.8C761.6 504.8 736.4 504.7 711.3 504.9C707.2 504.9 705.3 503.7 704.6 499.7C700.4 476.6 696.2 453.5 691.7 430.5C689.6 419.7 686.8 409.1 684.2 398.4C683.6 395.9 683 394 686.2 392.8C700.8 387.2 715.4 381.5 730 375.9C730.4 375.8 731.1 375.8 732.3 375.6Z" />
		<path id="Layer" class="shp4" d="M1425.6 729.5C1428.3 730.4 1431.5 730.8 1433.8 732.4C1441.8 737.9 1448.5 737.9 1456.2 732C1457.5 731 1459.4 730.4 1461.1 730.2C1463.2 729.9 1465.4 730.1 1467.6 730.1C1662.4 730.1 1857.2 730.1 2051.9 730.1C2058.3 730.1 2058.3 730.1 2058.3 736.8C2058.3 747.2 2059.4 746 2049.4 746C1845.1 746 1640.8 746 1436.6 746C1428.3 746 1428.3 746 1426.3 738.1C1425.7 735.8 1425.2 733.4 1424.7 731C1425 730.5 1425.3 730 1425.6 729.5Z" />
		<path id="Layer" class="shp10" d="M1421.3 641.7C1417.7 636.3 1413.6 633 1407.5 632.6C1406.5 632.5 1405.2 630.9 1404.6 629.7C1402.2 625.3 1398.7 622.7 1393.8 621.7C1392.3 621.4 1390.6 620.8 1389.5 619.7C1385.6 616.1 1382 612.3 1377.6 607.8C1381.2 601.4 1385.6 593.7 1389.9 585.9C1395.7 575.4 1401.3 564.8 1407.1 554.3C1410.2 548.6 1411.2 542.9 1409 536.6C1404.8 524.8 1401.1 512.9 1396.8 501.2C1395.4 497.4 1396 495.7 1399.9 494.1C1412.9 488.9 1425.7 483.3 1438.6 477.9C1439.9 477.3 1441.3 476.9 1443.3 476.2C1446.7 485 1450.3 493.4 1453.1 502.1C1457 514 1460.2 526 1463.7 538C1466.9 549.1 1464.9 559.7 1460.9 570.2C1453.1 590.5 1442.2 609.2 1430.6 627.5C1427.5 632.1 1424.5 636.7 1421.3 641.7Z" />
		<path id="Layer" class="shp0" d="M1580.6 540.2C1589.4 582 1598 623.1 1606.8 664.9C1587.7 668.9 1568.9 672.9 1549.5 677C1548.5 672.5 1547.4 668.4 1546.7 664.2C1546.6 663.5 1547.6 662.2 1548.4 661.6C1556 655.8 1557.5 650.7 1554.3 642.1C1553.8 640.8 1554.2 638.7 1555 637.4C1559.4 630.6 1559.2 625 1554.3 618.6C1553.4 617.4 1552.9 615.4 1553.1 613.9C1554.6 605.6 1552.4 600.6 1545.3 596.2C1544.2 595.5 1543 593.9 1542.9 592.6C1542.2 584.1 1539.2 580.4 1531.3 577.8C1529.9 577.3 1528.3 575.7 1527.9 574.4C1526.1 567.3 1524.8 560.2 1523.1 552.3C1542.3 548.3 1561 544.3 1580.6 540.2Z" />
		<path id="Layer" class="shp4" d="M1395.2 746C1392.4 746 1390.5 746 1388.5 746C1293.5 746 1198.5 746 1103.6 746.1C1098.8 746.1 1097.6 744.6 1097.7 740.1C1098.2 728.5 1096.1 730.1 1107.9 730.1C1199.7 730.1 1291.5 730.1 1383.4 730.1C1392.2 730.1 1390.7 728.9 1393.2 737.7C1393.8 740.1 1394.3 742.5 1395.2 746Z" />
		<path id="Layer" class="shp2" d="M726.6 366.8C710.7 373 695.2 379 679.6 385.1C675.9 378.1 672.9 371 668.5 364.8C663 357 656.4 349.9 650 342.8C648.1 340.7 646.4 339 648.6 336.5C650.9 333.9 653.4 334.9 655.4 337.2C656.5 338.5 657.5 339.8 658.6 341C660.7 343.4 663.2 343.7 665.6 341.6C668 339.5 668.1 337 666.1 334.5C664.2 332.2 662.1 330 660.1 327.8C658.2 325.6 655.8 323.2 658.8 320.6C661.8 318 664.3 320.2 666.4 322.7C668 324.6 669.5 326.9 671.5 328.1C673.1 329 676.7 329.4 677.4 328.5C678.5 327 678.9 323.8 678 322.1C676.6 319.4 673.6 317.5 672.1 314.8C671.2 313.2 671.8 310.8 671.7 308.7C673.8 309 676.1 308.8 677.8 309.7C679.6 310.7 680.8 312.8 682.2 314.4C684.4 317 687.1 318.3 689.9 315.7C692.7 313.1 691.5 310.3 689.2 307.8C681.8 299.7 674.4 291.6 667 283.4C666.2 282.5 665 281.7 664.8 280.8C664.5 279.2 664.3 276.8 665.2 275.9C666.1 275 668.6 275 670.1 275.4C671.4 275.8 672.4 277.3 673.4 278.4C684 289.7 694.6 301 705.4 312.1C706.9 313.6 710.3 315.3 711.6 314.7C713.4 313.8 714.7 310.8 715.2 308.4C716 304.5 716.1 300.5 716.3 296.5C716.5 293.6 717.6 291 720.6 291.9C722.2 292.4 724.2 295.4 724.2 297.2C723.9 305.3 722.8 313.4 722.4 321.6C722.3 324.6 722.8 327.9 724.1 330.5C728.1 338.3 729.2 346.1 724.2 353.7C721.5 357.8 724.2 360.6 725.5 363.8C725.8 364.6 726 365.4 726.6 366.8Z" />
		<path id="Layer" class="shp10" d="M1192.1 483.4C1197.4 484.5 1202.5 485.2 1207.3 486.7C1208.3 487 1209.4 489.8 1209.2 491.3C1208 505.4 1206.4 519.5 1205.2 533.6C1203.8 551.2 1202.4 568.8 1201.5 586.4C1199.6 623 1198 659.6 1196.4 696.2C1196.1 701.9 1195.9 707.5 1195.8 713.2C1195.8 717 1194.3 718.7 1190.4 718.4C1187.1 718.2 1183.7 718.2 1180.4 718.4C1176.5 718.6 1175.1 717.1 1175.3 713.1C1176.2 700.2 1176.9 687.2 1177.8 674.2C1179 656.8 1180.2 639.3 1181.5 621.9C1183.8 590.5 1186 559.2 1188.3 527.8C1189.3 514.5 1190.4 501.2 1191.4 488C1191.6 486.6 1191.9 485.3 1192.1 483.4Z" />
		<path id="Layer" class="shp0" d="M1414 664C1418.8 667.3 1423.9 670.5 1428.7 674.1C1433.7 677.9 1434.6 684.5 1430.5 689.6C1424.3 697.4 1417.9 705.1 1411.4 712.7C1407.1 717.6 1400.4 718 1395.9 713.5C1367.5 685.4 1339.3 657.1 1311 628.9C1310.7 628.6 1310.5 628.1 1309.9 627.2C1315.7 620.2 1321.6 613 1327.7 605.6C1329.9 607.1 1331.8 608.4 1333.8 609.5C1337.9 611.8 1340.4 614.1 1338.9 619.9C1337.1 626.8 1341.1 632.3 1348.1 635C1350.4 635.9 1351.3 637 1351.4 639.6C1351.9 647.5 1356.2 651.6 1364.2 653.1C1365.7 653.4 1367.4 654.6 1368.2 655.9C1372.5 663.1 1377.6 665.5 1385.7 663.9C1386.8 663.7 1388.4 663.6 1389.3 664.2C1400.6 672.4 1403.3 672.5 1414 664Z" />
		<path id="Layer" class="shp12" d="M1736.7 503.9C1715.7 502 1698.4 493.2 1684.8 477.3C1673.3 463.8 1667.4 447.9 1667 430.2C1666.7 417.2 1666.9 404.2 1666.9 391.3C1666.9 390.3 1667.2 389.4 1667.4 388.1C1669.9 388.1 1672.3 388.1 1674.9 388.1C1676.1 395.7 1676.8 403.1 1678.4 410.3C1685.8 442.6 1704.1 466.9 1732.7 483.4C1736.4 485.5 1738 487.8 1737.6 492C1737.2 495.5 1737.4 499 1737.4 502.5C1737.4 502.6 1737.1 502.9 1736.7 503.9Z" />
		<path id="Layer" class="shp2" d="M1778.2 556.3C1775.8 536.4 1773.5 517 1771.1 496.7C1793.6 499.6 1814.6 496.5 1834.8 487.5C1839.7 506 1838.3 511.9 1825.2 521.8C1810.8 532.7 1796.2 543.5 1781.7 554.4C1780.8 555 1779.9 555.4 1778.2 556.3Z" />
		<path id="Layer" class="shp22" d="M481.2 516.3C481.2 579.3 481.3 641.9 481 704.4C481 708.2 479.1 712.3 477.1 715.8C476.2 717.4 473.2 717.8 471.2 718.7C470.6 716.8 469.6 714.9 469.6 713C469.5 660.1 469.5 607.1 469.5 554.2C469.5 544.9 469.5 535.6 469.5 526.2C469.6 518 472.8 515.3 481.2 516.3Z" />
		<path id="Layer" class="shp10" d="M1272.2 358.5C1279.5 359.6 1285.6 360.4 1291.6 361.3C1304.9 363.2 1318.2 362.2 1331.3 359.6C1335.2 358.8 1336.2 359.9 1336.4 363.7C1336.6 368.6 1335.4 372.5 1331.9 376.3C1318.4 391 1305.2 406 1291.8 420.8C1291.3 421.4 1290.5 421.8 1289.3 422.7C1288.1 419.2 1287 416.1 1286 413C1282 401.3 1277.7 389.8 1274.3 378C1272.7 372 1272.9 365.4 1272.2 358.5Z" />
		<g id="Layer">
			<path id="Layer" class="shp19" d="M239.9 548C250.5 562.5 260.7 576.9 271.4 590.9C278.9 600.6 287.2 609.8 295.3 619.1C299.3 623.6 302.2 623.6 306 618.9C322.4 598.9 338.2 578.5 351.1 556C353.7 551.4 355.9 546.6 358.5 541.4C369 546.8 378.1 553.7 386.2 561.9C408.7 584.7 419.6 612.5 420.4 644.3C420.8 659.1 420.5 674 420.4 688.8C420.4 690.1 420.2 691.4 420.1 693.1C415.4 693.1 410.9 693.1 406.5 693.1C403.1 693.1 403.1 690.7 403 688.3C402.7 675.7 402.8 663 401.7 650.4C401 642 398.6 633.8 396.7 625.6C396 622.6 393.4 621.2 390.5 622.2C387.3 623.2 386.1 625.8 387.2 629C393.3 646.6 392.3 664.8 392.6 682.9C392.6 683.7 392.6 684.6 392.6 685.4C392.6 693.8 392.1 694.2 383.6 692.9C382.5 688.5 381.8 684.1 380.5 679.8C374.7 660.7 360.8 652.4 341.7 649.6C309.6 644.9 280.4 653.7 252 667.3C244.5 670.9 237 674.4 228.9 678.3C228.9 671.9 228.4 666.2 229 660.6C229.9 652.7 230 644.6 234.9 637.7C235.7 636.5 235 632.6 233.9 632.1C232 631.2 228.7 631 227.2 632.1C225 633.8 223 636.8 222.6 639.5C220.6 652 218.8 664.5 217.9 677C217.5 681.9 216.2 684.6 211.5 686.1C206.1 687.8 200.9 690 195.5 691.9C191.7 693.3 188.8 695.3 190.2 699.9C191.3 703.5 194.6 704.8 199.3 702.8C219.7 694.1 239.9 685.1 260.2 676.5C270.6 672.1 281.1 668.1 292 664.3C280.9 683.3 282.3 700.7 296.6 717.8C295 718 293.8 718.3 292.6 718.3C256.3 718.3 219.9 718.3 183.6 718.3C176.9 718.3 176.8 718.3 177 711.8C177.5 694.2 176.7 676.3 179 658.9C184.6 615.9 203 579.2 236.4 550.7C237.6 549.4 239.2 548.5 239.9 548Z" />
			<path id="Layer" class="shp2" d="M354.9 694C346 694 338.7 694 331.4 694C324.1 694 322.7 695.4 322.8 702.8C322.8 705.4 322.9 708.1 323.4 710.7C323.8 713.1 324.8 715.4 325.7 718.1C316.2 719.4 308.8 715.8 302.8 709.3C294.1 699.9 291.8 688.8 297 676.9C302 665.4 311.2 658.8 323.9 658.9C333 659 342.2 659.9 351 661.9C364.5 664.9 369.5 676 372.5 688.1C372.9 689.6 371.2 692.6 369.6 693.4C367 694.8 364.4 693.8 363.2 690.6C362 687.3 361 684 359.6 680.8C358.7 678.7 357.3 676.8 355.7 675C353.8 672.8 351 672.3 349.3 674.7C348.3 676.1 348.2 679 348.8 680.8C350.3 685 352.4 688.8 354.9 694Z" />
			<path id="Layer" class="shp2" d="M266.1 509.8C286.5 520.5 308.2 523.9 330.7 521.7C333.6 533 327.7 546.4 317.1 553.6C305.6 561.4 289.4 561.3 278.1 553C264.9 543.3 261.8 530.1 266.1 509.8Z" />
		</g>
		<path id="Layer" class="shp0" d="M300.3 610.4C292.1 600.6 284 591.7 276.9 582.2C268 570.4 259.6 558.2 251.5 545.8C247.5 539.7 248.2 538.8 255.8 536.5C262.9 557.2 277.2 568.9 299.3 568.2C321.6 567.6 334.9 554.6 340.5 533.3C341.4 533.5 342 533.6 342.6 533.7C349.7 535.8 349.9 536 346.6 542.9C336.8 563.3 323.1 581.1 309.4 598.9C306.8 602.5 303.9 606 300.3 610.4Z" />
		<path id="Layer" class="shp0" d="M958.5 766C961.6 757.6 961.6 757.6 969.7 757.6C998.9 757.6 1028 757.6 1057.2 757.6C1059.4 757.6 1061.5 757.6 1063.5 757.6C1065.7 764.3 1065.1 764.9 1059.7 767.2C1057.8 768 1056 771.4 1055.9 773.7C1055.6 778.5 1054.1 780.2 1049 780.1C1022.3 779.8 995.7 780 969 780C967.2 780 965.4 780 962.9 780C964.7 774 967.2 768 958.5 766Z" />
		<path id="Layer" class="shp7" d="M397.5 556.8C388.3 549.7 380 542.5 370.8 536.7C361.7 530.9 351.7 526.6 340.5 520.8C364.2 514.7 383.7 503.6 400 485.4C405.6 510 404.2 533.4 397.5 556.8Z" />
		<path id="Layer" class="shp23" d="M458.4 705.1C458.4 709.6 458.4 713.9 458.4 718.6C456.5 718.7 454.9 719 453.3 719C418.2 719 383 719 347.9 719C339.6 719 333.8 713.4 333.8 705.2C375.2 705.1 416.5 705.1 458.4 705.1Z" />
		<path id="Layer" class="shp2" d="M1792.6 718.6C1781.5 718.6 1771 718.6 1760.1 718.6C1760.9 713.8 1764.1 711.8 1767.7 710.5C1771.1 709.3 1773.7 707.4 1772.1 703.6C1770.4 699.7 1767 700.7 1764 701.9C1758.7 704 1754.6 707.4 1752 712.6C1748.4 719.8 1748.3 719.8 1739.5 718.3C1740.3 711.5 1743.5 706.3 1748.9 702.3C1749.8 701.6 1751.3 701.4 1751.8 700.5C1752.9 698.6 1754.6 696.1 1754.1 694.3C1753.3 691.2 1750.3 691 1747.5 692.3C1738.9 696.4 1733.6 703.4 1730.9 712.5C1728.7 719.7 1728.7 719.7 1720.1 718.3C1720.7 715.2 1721 711.9 1722 708.9C1727.8 691.3 1741.6 683.3 1758.3 679C1759.1 678.8 1760 678.9 1760.8 679.1C1774.7 682 1789.5 697.1 1792.1 711.1C1792.7 713.4 1792.5 715.8 1792.6 718.6Z" />
		<path id="Layer" class="shp0" d="M948.3 655.5C949.3 656.4 950 656.8 950.5 657.4C959.6 669.3 971.6 676.3 986.4 679C987.7 679.2 989.5 681.5 989.5 682.8C989.6 696.6 991.3 693.7 978.9 694.1C973.8 694.3 968.6 694.5 963.6 695.3C957.8 696.2 953.7 699.8 951.4 705.2C950.7 706.7 950 708.2 949.3 709.7C944.5 720.4 944.3 720.5 933.1 718.7C938.1 697.9 943.2 676.9 948.3 655.5Z" />
		<path id="Layer" class="shp4" d="M967.9 745.7C970.4 740.5 972.3 736 974.7 731.7C975.3 730.7 977.5 730.1 979 730.1C1006 730 1032.9 730.1 1059.9 730C1062.8 730 1064.2 730.8 1064.2 733.9C1064.1 748.7 1065.6 745.7 1053 745.8C1026.5 746 1000.1 745.9 973.6 745.8C972 746 970.4 745.8 967.9 745.7Z" />
		<path id="Layer" class="shp6" d="M1625.6 660.8C1622.3 661.5 1619.4 662.1 1615.8 662.8C1607.1 621.3 1598.5 580.1 1589.8 538.8C1591.1 538.3 1591.9 538 1592.6 537.8C1599.9 536.2 1599.9 536.2 1601.4 543.6C1609.4 581.6 1617.3 619.7 1625.3 657.7C1625.5 658.5 1625.5 659.4 1625.6 660.8Z" />
		<path id="Layer" class="shp24" d="M938.7 756.5C939.4 754.7 939.9 753.2 940.6 751.7C946.9 737.9 953 724.1 959.6 710.5C960.7 708.1 963.3 705.6 965.7 705C970.2 703.8 973.5 708.2 971.7 712.9C969.4 718.8 966.7 724.5 964 730.2C959.9 739.1 955.7 747.9 951.8 757C950.2 760.9 948.2 761.7 944.7 759.6C942.9 758.4 940.9 757.6 938.7 756.5Z" />
		<path id="Layer" class="shp24" d="M1075.5 737.5C1075.5 729.9 1075.5 722.2 1075.5 714.6C1075.5 713 1075.3 710.9 1076.1 709.8C1077.4 707.9 1079.6 705.4 1081.3 705.5C1082.9 705.5 1084.5 708.5 1086 710.3C1086.3 710.6 1086.3 711.3 1086.3 711.7C1086.3 728.8 1086.4 745.9 1086.3 763.1C1086.3 767.9 1082.5 766.2 1080.1 766.5C1077.3 766.8 1075.3 766.3 1075.3 762.6C1075.6 754.1 1075.5 745.8 1075.5 737.5Z" />
		<path id="Layer" class="shp0" d="M1345.9 410.7C1331.6 415 1318 419.2 1304.4 423.3C1304.1 423 1303.8 422.6 1303.6 422.3C1315.2 409.4 1326.9 396.5 1339.4 382.5C1341.7 392.4 1343.7 401.2 1345.9 410.7Z" />
		<path id="Layer" class="shp0" d="M1247.1 408.1C1253.3 399.6 1259 391.7 1265.5 382.7C1270.2 396.7 1274.6 409.6 1279 422.5C1278.7 422.8 1278.3 423.1 1278 423.4C1268 418.4 1258 413.5 1247.1 408.1Z" />
		<path id="Layer" class="shp24" d="M1122.9 846.7C1104.9 846.7 1087.9 846.7 1069.3 846.7C1078 840.5 1085.7 835.1 1095.2 833.9C1100.8 833.2 1106.8 833.4 1112.3 834.7C1117.6 835.9 1120.8 840.5 1122.9 846.7Z" />
		<path id="Layer" class="shp24" d="M872.4 814.9C879.4 807.7 887.1 806.1 895.1 809.7C907.1 815 914.4 824.9 921.4 837.3C904.4 829.5 888.6 822.3 872.4 814.9Z" />
		<path id="Layer" class="shp25" d="M514.4 204.1C521.4 217.5 528.1 230.3 534.8 243.1C529.6 245.4 520.6 241.6 515.4 235.3C508 226.1 507.3 213.7 514.4 204.1Z" />
		<path id="Layer" class="shp0" d="M1024.6 510.5C1018.1 510.4 1013.1 505.3 1013.2 498.6C1013.2 492.2 1018.5 486.9 1024.9 486.8C1031.3 486.8 1036.9 492.6 1036.7 499C1036.4 505.5 1031.1 510.6 1024.6 510.5Z" />
		<path id="Layer" class="shp24" d="M945.1 577.9C943.2 592 941.4 605.6 939.5 619.8C934.1 617.2 931.6 613.3 931.3 608.2C931 602.2 931 596.2 931.4 590.3C931.8 583.1 937.3 578.2 945.1 577.9Z" />
		<path id="Layer" class="shp26" d="M761.5 209.8C764.2 195.1 766.8 181.2 769.4 167.2C776 171.5 779.7 181.1 778 189.7C776.2 199.1 771.1 205.9 761.5 209.8Z" />
		<path id="Layer" class="shp27" d="M645.4 351.7C633.2 349.5 626.7 336 628.8 317.9C635.2 317.9 641.5 317.9 648.1 317.9C648.4 322.4 648.1 325.5 643.9 328.2C636.5 332.8 636.1 342.8 642.4 348.8C643.3 349.7 644.2 350.5 645.4 351.7Z" />
		<path id="Layer" class="shp24" d="M1110.2 618.5C1108.3 605.3 1106.5 592 1104.7 578.8C1110.3 577.6 1116.7 582.2 1117.3 588.6C1118 595.8 1117.9 603.2 1117.2 610.5C1116.9 613.5 1114 616.3 1112.3 619.1C1111.6 618.9 1110.9 618.7 1110.2 618.5Z" />
		<path id="Layer" class="shp0" d="M1541.4 492.3C1541.3 498 1536.4 502.7 1530.6 502.6C1524.9 502.5 1520.1 497.5 1520.4 491.8C1520.6 486.4 1525.4 481.8 1530.9 481.8C1536.6 481.8 1541.5 486.8 1541.4 492.3Z" />
		<path id="Layer" class="shp0" d="M1424.1 711.6C1426.9 708.3 1429.3 705.4 1432.1 702C1438 706.9 1443.9 711.2 1449 716.4C1450.4 717.9 1450.5 722.2 1449.4 724.3C1447.8 727.4 1444.2 727.8 1441.2 725.5C1435.6 721.2 1430.2 716.6 1424.1 711.6Z" />
		<path id="Layer" class="shp0" d="M888.8 719.5C885.5 719.5 882 720.1 878.9 719.3C876.9 718.8 875.4 716.2 873.6 714.5C875.3 712.8 876.8 709.7 878.6 709.5C885.5 708.9 892.5 708.9 899.4 709.5C901.2 709.7 903.9 712.4 904.3 714.3C905 717.6 902.3 719.3 899.1 719.4C895.7 719.7 892.2 719.6 888.8 719.5L888.8 719.5Z" />
		<path id="Layer" class="shp0" d="M1441.9 676.1C1449 676.7 1455.9 677.1 1462.7 677.7C1466.3 678 1468.1 680.4 1468.1 683.7C1468.1 687.3 1465.8 689.9 1462.2 689.9C1455.5 689.9 1448.7 689.1 1441.8 688.7C1441.9 684.4 1441.9 680.7 1441.9 676.1Z" />
		<path id="Layer" class="shp0" d="M1400.2 726.2C1404.5 725.4 1408.3 724.8 1412.5 724.1C1414.2 730.6 1416.1 737.1 1417.6 743.6C1418.4 747.2 1416.6 749.9 1413.1 750.9C1409.5 751.9 1406.7 750.2 1405.7 746.7C1403.6 740 1402 733.2 1400.2 726.2Z" />
		<path id="Layer" class="shp2" d="M1522.2 618.6C1521 617.4 1518.4 615.9 1518.2 614.2C1518 612.5 1519.9 609.4 1521.5 608.8C1526.9 606.9 1532.6 605.5 1538.3 604.8C1540.1 604.6 1543.2 606.7 1544 608.5C1544.5 609.7 1542.4 613.4 1540.7 613.9C1535.2 615.9 1529.2 616.9 1522.2 618.6Z" />
		<path id="Layer" class="shp2" d="M1544.4 623.2C1545.6 624.3 1548.3 625.7 1548.3 627.2C1548.4 629.1 1546.8 632.4 1545.2 632.9C1539.6 634.8 1533.7 636.1 1527.8 636.9C1526.1 637.1 1523 634.8 1522.6 633.1C1522.2 631.6 1524.3 628.3 1525.9 627.8C1531.6 625.9 1537.5 624.8 1544.4 623.2Z" />
		<path id="Layer" class="shp10" d="M1176 253.7C1164.4 245.4 1163.1 225.6 1174 215.5C1174.7 228.2 1175.4 241 1176 253.7Z" />
		<path id="Layer" class="shp10" d="M1375.2 620.4C1378.7 620.4 1381.1 624.1 1379.4 626.8C1376.2 632 1372.7 637 1368.8 641.7C1367.9 642.8 1364.5 643.2 1363.2 642.4C1362 641.6 1360.9 638.2 1361.6 637.1C1365.4 631.5 1369.7 626.3 1373.9 621C1374.2 620.6 1375 620.5 1375.2 620.4Z" />
		<path id="Layer" class="shp10" d="M1396.2 635.7C1395.5 637.4 1395.2 638.6 1394.5 639.5C1391.5 643.9 1388.4 648.3 1385.3 652.6C1383.6 654.9 1381.4 655.8 1378.8 653.9C1376.4 652.1 1376.1 649.9 1377.9 647.4C1381.1 642.9 1384.1 638.3 1387.5 634C1388.5 632.8 1391 632 1392.6 632.3C1394 632.5 1395.1 634.5 1396.2 635.7Z" />
		<path id="Layer" class="shp2" d="M1517.8 599.6C1516.6 598.3 1513.9 596.8 1513.8 595.1C1513.7 593.3 1515.5 590.3 1517.2 589.5C1520.4 588 1524.2 587.1 1527.8 587.1C1529.7 587.1 1532.8 589.1 1533.2 590.7C1533.6 592.3 1531.8 595.6 1530.1 596.4C1526.6 598 1522.7 598.4 1517.8 599.6Z" />
		<path id="Layer" class="shp2" d="M1530.7 656.8C1529.4 655.3 1527 653.8 1526.7 652C1526.5 650.4 1528.3 647.6 1529.9 646.9C1533.3 645.4 1537.2 644.4 1540.9 644.2C1542.6 644.1 1545.5 646 1546 647.5C1546.5 649.1 1545.1 652.4 1543.7 653.1C1540.1 654.8 1535.9 655.4 1530.7 656.8Z" />
		<path id="Layer" class="shp10" d="M1412.5 648.3C1409.2 652.4 1406.2 656.4 1402.8 660C1402.2 660.6 1399.4 660.2 1398.5 659.3C1397.5 658.2 1396.6 655.7 1397.2 654.6C1399.2 650.9 1401.7 647.3 1404.5 644.1C1405.3 643.2 1408 643.2 1409.4 643.7C1410.6 644.2 1411.1 646.2 1412.5 648.3Z" />
		<path id="Layer" class="shp10" d="M1364.5 613.1C1364.6 617.4 1355.9 626.4 1352.5 625.9C1351.2 625.7 1349.4 624.7 1349 623.7C1348.5 622.2 1348.6 619.8 1349.5 618.7C1351.7 615.8 1354.4 613.2 1357.2 611C1358.4 610.1 1360.7 610.1 1362.3 610.5C1363.4 610.8 1364.1 612.5 1364.5 613.1Z" />
		<path id="Layer" class="shp0" d="M864.5 709.5C864.5 712.8 864.5 715.5 864.5 719.8C860.4 718.9 856.7 718.3 853.3 717C852.7 716.8 852.5 712.9 853.5 711.8C856.3 707.9 860.5 709.3 864.5 709.5Z" />
		<path id="Layer" class="shp28" d="M250.7 526.6C251.2 518.2 251.6 510.7 252 503C256.4 505.1 255.9 523 250.7 526.6Z" />
		<path id="Layer" class="shp29" d="M1599.3 483.6C1599.3 476.5 1599.2 469.3 1599.5 462.2C1599.5 461.2 1602.2 459.3 1602.9 459.6C1612.9 464 1618.6 460.1 1621.7 450.4C1621.8 450 1622.4 449.8 1623.2 449C1622.5 457.1 1622.1 464.7 1621 472.1C1620.8 473.5 1618.3 474.6 1616.9 475.7C1616.7 475.9 1616.2 475.7 1615.9 475.7C1608.8 475 1601.7 474.2 1599.3 483.6Z" />
		<path id="Layer" fill-rule="evenodd" class="shp14" d="M652.8 595.1C663.9 595.1 673 603.9 673 614.8C673 625.8 664 634.8 653 634.8C641.9 634.8 633 626.1 632.8 615C632.6 604.2 641.7 595.1 652.8 595.1ZM652.9 604.9C647.3 604.9 642.6 609.5 642.6 615C642.6 620.4 647.4 625 653 625C658.5 625.1 663.2 620.4 663.2 614.9C663.2 609.4 658.6 604.9 652.9 604.9Z" />
		<path id="Layer" class="shp14" d="M1771.5 239.1C1786.7 239.1 1800.3 243.5 1812.1 253.3C1814.7 255.5 1817 257.9 1814.2 261.2C1811.5 264.4 1808.8 262.6 1806.4 260.6C1795.9 251.6 1783.4 248.3 1769.8 248.2C1768.1 248.2 1766.2 248.6 1764.9 248C1763.1 247.1 1761.8 245.3 1760.3 243.8C1761.9 242.2 1763.2 240.1 1765.1 239.3C1766.9 238.5 1769.3 239.1 1771.5 239.1Z" />
		<path id="Layer" class="shp17" d="M1257.5 229.8C1257.5 235.3 1253.6 237.3 1249.2 234.9C1240.8 230.4 1232 228.8 1222.7 230.2C1218.6 230.8 1214.7 232.2 1210.7 233.5C1207.3 234.7 1204.6 234.2 1203.3 230.8C1202.1 227.5 1203.9 225.4 1206.9 224.1C1222.9 217.3 1238.6 217.7 1253.9 226.1C1255.6 227 1256.7 228.9 1257.5 229.8Z" />
		<path id="Layer" class="shp17" d="M1339.6 220.7C1348.8 221.8 1357.3 223.7 1365.2 228.1C1368.3 229.8 1370.3 232.2 1368.3 235.8C1366.4 239.2 1363.4 238.6 1360.5 237.1C1348.2 230.8 1335.7 230.2 1322.9 235.4C1319.6 236.7 1316.4 237 1314.9 233.3C1313.2 229.2 1316 227 1319.5 226C1326.2 224 1332.9 222.4 1339.6 220.7Z" />
		<path id="Layer" class="shp17" d="M1285.3 297.3C1279.6 295.4 1273.6 293.7 1267.9 291.5C1265 290.4 1263.6 287.6 1265.3 284.5C1267 281.4 1269.8 281.2 1272.6 282.7C1281.7 287.7 1290.9 286.4 1300.1 283.3C1300.9 283 1301.7 282.7 1302.5 282.5C1305.7 281.4 1308.6 281.6 1309.9 285.2C1311.3 288.9 1309 291.1 1305.9 292C1299.4 293.9 1292.8 295.4 1285.3 297.3Z" />
		<path id="Layer" class="shp17" d="M1340 265.1C1333.6 265.2 1328.5 260.4 1328.3 254C1328.1 247.4 1333.2 242.1 1339.7 242C1346 241.9 1351.5 247.4 1351.5 253.7C1351.4 260.1 1346.4 265 1340 265.1Z" />
		<path id="Layer" class="shp17" d="M1217.3 253.6C1217.4 247.2 1222.9 241.8 1229.2 242.1C1235.4 242.3 1240.5 247.6 1240.5 253.8C1240.5 260.2 1235.1 265.4 1228.6 265.2C1222.2 265 1217.3 259.9 1217.3 253.6Z" />
		<path id="Layer" class="shp30" d="M696 253C687.98 253 681.5 246.52 681.5 238.5C681.5 230.48 687.98 224 696 224C704.02 224 710.5 230.48 710.5 238.5C710.5 246.52 704.02 253 696 253Z" />
		<path id="Layer" class="shp14" d="M689.2 228.8C690 229.5 692.7 230.9 693.2 232.8C694.1 236.1 691.7 237.8 688.4 238.2C679.7 239.1 672.2 242.5 666.1 249C665 250.2 661.3 250.4 659.7 249.5C656.9 247.9 657.5 245 659.6 242.7C666.9 234.2 676.3 229.7 689.2 228.8Z" />
		<path id="Layer" class="shp14" d="M599.5 233C593.7 233 589.4 228.7 589.5 222.9C589.6 217.4 593.8 213.2 599.3 213.1C604.9 213 609.4 217.6 609.3 223.2C609.3 228.7 605 232.9 599.5 233Z" />
		<path id="Layer" class="shp14" d="M692.8 199.1C698.3 199.2 702.4 203.4 702.4 209C702.4 214.7 698 219.1 692.3 218.9C686.8 218.8 682.6 214.4 682.6 209C682.6 203.3 687 199 692.8 199.1Z" />
		<path id="Layer" class="shp14" d="M307 455.8C323.7 456.9 340 458 356.4 459.1C356.5 472.1 343.8 483.4 330.7 482.7C316.4 481.9 305.2 469.6 307 455.8Z" />
		<path id="Layer" class="shp14" d="M286.7 408.1C296.2 408.1 303.6 415.4 303.1 423.7C303 425.8 300.9 428.8 299 429.4C296 430.3 294.3 427.7 293.9 424.7C293.5 421.1 292.4 418 288.3 417.7C284 417.4 282.5 420.4 281.1 423.9C280.4 425.5 277.7 427.4 276 427.4C272.9 427.3 269.1 426.6 267.1 424.5C265 422.3 266.5 419.4 269.9 418C271.8 417.2 273.8 415.9 275.2 414.4C278.7 410.6 282.7 408.3 286.7 408.1Z" />
		<path id="Layer" class="shp14" d="M382.5 414.3C387.9 414.8 392.4 417.2 395.6 422.3C396.7 424.1 398.5 425.6 400.3 426.8C403.2 428.8 404.5 431.7 401.8 433.7C399.7 435.3 395.9 435.4 393.1 435C391.4 434.8 389.3 432.5 388.8 430.8C387.7 427.2 386.5 424 382.2 423.9C378.1 423.8 376.4 426.7 375.6 430.2C374.9 433.3 372.9 435.3 370 434.2C368.4 433.5 366.7 430.5 366.7 428.6C366.7 421 374.3 414.3 382.5 414.3Z" />
		<path id="Layer" class="shp14" d="M378.4 390.6C386.8 390.7 394.5 392.8 401.8 396.9C404.8 398.6 406.7 400.9 404.7 404.2C402.9 407.3 400 406.7 397.3 405.1C389 400.4 380.3 398.7 370.9 400.7C367.9 401.3 364.5 401.8 363.6 397.7C362.6 393.4 365.7 392.2 369.1 391.6C372.1 391.1 375.3 390.9 378.4 390.6Z" />
		<path id="Layer" class="shp14" d="M990.5 583.1C982.9 583.1 976.4 577.6 976.1 570.2C976 568.3 978.2 566.3 979.3 564.3C981.2 565.5 984 566.4 984.7 568.1C985.9 571.2 986.8 574.2 990.8 574.1C994.5 574 995.2 571.1 996.4 568.1C997 566.4 999.9 565.5 1001.8 564.3C1002.9 566.3 1005.1 568.3 1005.1 570.2C1004.7 577.5 997.9 583.1 990.5 583.1Z" />
		<path id="Layer" class="shp14" d="M1056.9 583.1C1049.8 582.8 1043.7 577.6 1043.2 570.5C1043.1 568.5 1045.3 566.3 1046.5 564.2C1048.3 565.5 1051.1 566.4 1051.8 568.1C1052.9 571.1 1053.8 573.9 1057.5 573.9C1061.1 574 1062.5 571.5 1063.2 568.2C1063.8 565.3 1066 562.9 1068.8 564.4C1070.5 565.3 1072.2 568.6 1071.9 570.6C1071 578.3 1064.4 583.4 1056.9 583.1Z" />
		<path id="Layer" class="shp14" d="M1025.1 595.1C1021.3 595.1 1017.5 595.1 1013.7 595.1C1010.7 595.1 1008 593.8 1008.8 590.5C1009.2 588.8 1011.9 586.5 1013.6 586.4C1021 585.9 1028.5 585.9 1036 586.4C1037.9 586.5 1039.5 589.3 1041.3 590.9C1039.6 592.3 1038 594.6 1036.1 594.9C1032.5 595.6 1028.7 595.1 1025.1 595.1Z" />
		<path id="Layer" class="shp14" d="M1810.8 366.8C1799.3 363.7 1789.3 364.5 1779.3 368.5C1777.8 369.1 1775.3 366.9 1773.2 366C1774.2 364 1774.6 360.9 1776.2 360.1C1787.4 354.7 1799.3 354 1811.2 357.4C1812.8 357.9 1814.7 361 1814.7 362.9C1814.7 364.4 1811.9 365.8 1810.8 366.8Z" />
		<path id="Layer" class="shp14" d="M1709.9 411C1704.2 411 1699.7 406.6 1699.6 401C1699.5 395.3 1704.3 390.5 1710 390.5C1715.6 390.5 1720.5 395.5 1720.3 401.1C1720.2 406.8 1715.6 411.1 1709.9 411Z" />
		<path id="Layer" class="shp14" d="M1807.4 394.9C1807.4 400.6 1803.2 405 1797.5 405.1C1791.6 405.2 1786.9 400.8 1786.8 395C1786.7 389.5 1791.3 384.9 1796.9 384.8C1802.8 384.7 1807.3 389 1807.4 394.9Z" />
		<path id="Layer" class="shp31" d="M652.9 604.9C658.6 604.9 663.2 609.4 663.2 614.9C663.2 620.4 658.5 625.1 653 625C647.4 624.9 642.6 620.3 642.6 615C642.7 609.5 647.4 604.9 652.9 604.9Z" />
		<path id="Layer" class="shp14" d="M1740.9 424.9C1742.3 423.5 1743.6 423.1 1748.1 424.2C1748.1 424.2 1751.3 425.7 1758.2 425.5C1764.8 425.3 1770.5 423.6 1779.6 418.4C1783 416.5 1786 416.8 1786.7 417.8C1788.3 420.1 1787 422.8 1786.9 428.7C1786.9 432.3 1788.5 433.7 1787.1 439.9C1786.9 440.7 1785.8 444.7 1782 446.8C1777.2 449.5 1771.2 447.9 1767.5 444.7C1763.7 441.5 1764.4 438 1760.8 435.5C1758.8 434.1 1758 435.2 1750 433.9C1739.4 432.2 1739.6 430.4 1739.5 429.3C1739.5 427.9 1740 425.8 1740.9 424.9Z" />
		<path id="Layer" class="shp32" d="M1777.9 432.1C1777.5 433.8 1777 435.6 1776.6 437.3C1775 436.5 1773.5 435.7 1770.6 434.2C1773.5 432.7 1774.9 432 1776.2 431.4C1776.8 431.7 1777.4 431.9 1777.9 432.1Z" />
	</g>
	<path id="Layer" class="shp30" d="M277 470C268.98 470 262.5 463.52 262.5 455.5C262.5 447.48 268.98 441 277 441C285.02 441 291.5 447.48 291.5 455.5C291.5 463.52 285.02 470 277 470Z" />
	<path id="Layer" class="shp30" d="M379 474C370.98 474 364.5 467.52 364.5 459.5C364.5 451.48 370.98 445 379 445C387.02 445 393.5 451.48 393.5 459.5C393.5 467.52 387.02 474 379 474Z" />
	<path id="Layer" class="shp30" d="M599 270C590.98 270 584.5 263.52 584.5 255.5C584.5 247.48 590.98 241 599 241C607.02 241 613.5 247.48 613.5 255.5C613.5 263.52 607.02 270 599 270Z" />
	<path id="Layer" class="shp30" d="M1716.3 443.9C1708.28 443.9 1701.8 437.42 1701.8 429.4C1701.8 421.38 1708.28 414.9 1716.3 414.9C1724.32 414.9 1730.8 421.38 1730.8 429.4C1730.8 437.42 1724.32 443.9 1716.3 443.9Z" />
	<path id="Layer" class="shp30" d="M1809.3 436.9C1801.28 436.9 1794.8 430.42 1794.8 422.4C1794.8 414.38 1801.28 407.9 1809.3 407.9C1817.32 407.9 1823.8 414.38 1823.8 422.4C1823.8 430.42 1817.32 436.9 1809.3 436.9Z" />
	<g id="Layer">
		<path id="Layer" class="shp33" d="M911.2 758.1L71.4 758.1L76.2 769.8L908.8 769.9L916.2 758.1L911.2 758.1Z" />
	</g>
	<g id="Layer">
		<path id="Layer" class="shp33" d="M2001.8 757.7L1101.7 757.7L1097.5 758L1097.5 766.1C1097.5 766.1 1100.6 766.7 1101.5 767.1C1102.5 767.6 1105.1 769.7 1105.1 769.7L1997.4 770L2001.8 757.7Z" />
		<path id="Layer" class="shp33" d="M964.2 757.9C964.2 757.9 961.9 757.5 960.6 759C959.1 760.7 957.1 766.2 957.2 766L963.2 769.7L966.9 769.7L1057.2 769.9C1057.2 769.9 1059.6 767.2 1062.3 766.2C1066.8 764.6 1063.3 757.7 1063.3 757.7L964.2 757.9Z" />
	</g>
</svg>