<svg xmlns="http://www.w3.org/2000/svg" xmlns:xlink="http://www.w3.org/1999/xlink" version="1.1" style="enable-background:new 0 0 168 110;" xml:space="preserve" width="64" height="64"><rect id="backgroundrect" width="100%" height="100%" x="0" y="0" fill="none" stroke="none"/>
<style type="text/css">
	.st0{fill:url(#SVGID_1_);}
	.st1{fill:#FFFFFF;}
</style>
<linearGradient id="SVGID_1_" gradientUnits="userSpaceOnUse" x1="93.3218002319336" y1="91.62930297851562" x2="67.50759887695312" y2="20.70560073852539">
	<stop offset="0" style="stop-color:#DE47EC"/>
	<stop offset="0.1647" style="stop-color:#D550ED"/>
	<stop offset="0.4389" style="stop-color:#BB67F0"/>
	<stop offset="0.7864" style="stop-color:#928DF5"/>
	<stop offset="1" style="stop-color:#75A8F9"/>
</linearGradient>


<g class="currentLayer" style=""><title>Layer 1</title><path class="st0" d="M52.20000076293945,64.2000015258789 H12.00000076293945 c-6.6,0 -12,-5.4 -12,-12 V12.000001525878908 c0,-6.6 5.4,-12 12,-12 h40.2 c6.6,0 12,5.4 12,12 v40.2 C64.20000076293945,58.80000152587891 58.80000076293945,64.2000015258789 52.20000076293945,64.2000015258789 z" id="svg_1"/><g id="svg_2" class="">
	<path class="st1" d="M51.30000076293945,31.10000152587891 c-0.1,-2 0,-4 0,-6 c0,-1.3 0,-2.6 0,-3.8 c-0.1,-1 0.1,-2.3 -0.2,-3.3 c-0.30000000000000004,-1 -1,-1 -2,-1.1 c-2.4,-0.1 -4.8,0 -7.2,0 c-5.3,0 -10.6,-0.1 -16,-0.1 c-2.8,0 -5.6,0.1 -8.4,0.30000000000000004 c-1,0.1 -2.7,-0.1 -3.5,0.6000000000000001 c-0.5,0.5 -0.6000000000000001,1.2 -0.7000000000000001,1.9 c-0.30000000000000004,1.5 -0.30000000000000004,3 -0.4,4.5 c-0.1,3.2 -0.1,6.5 -0.30000000000000004,9.7 c-0.2,2.6 -0.1,5.2 0,7.9 c0,1.5 -0.4,3.8 0.8,5 c1.3,1.1 4,0.6000000000000001 5.5,0.7000000000000001 c2.8,0.1 5.6,0.2 8.4,0.2 c5.3,0.1 10.5,-0.1 15.8,0.1 c2,0.1 4.2,0 6.2,-0.30000000000000004 c1.2,-0.2 1.5,-0.9 1.7000000000000002,-2 C51.80000076293945,40.400001525878906 51.50000076293945,35.7000015258789 51.30000076293945,31.10000152587891 zM16.200000762939453,18.200001525878903 c0.5,0 1,-0.1 1.5,-0.1 C19.700000762939453,18.000001525878908 21.700000762939453,17.900001525878906 23.800000762939447,17.900001525878906 c4.4,0 8.8,0 13.2,0 c1.9,0 3.8,0 5.7,0 c2,0 4.2,-0.2 6.2,0 c0.9,0.1 1,0.2 1.1,1.1 c0.2,0.9 0.1,1.9 0.1,2.8 c0,0.1 0,0.30000000000000004 0,0.4 c-11.9,-0.4 -23.9,-0.5 -35.8,-0.1 c0,-0.7000000000000001 0.1,-1.3 0.2,-2 C14.600000762939452,18.900001525878906 14.900000762939456,18.300001525878905 16.200000762939453,18.200001525878903 zM50.30000076293945,39.800001525878905 c-0.1,1.6 0,3.2 -0.1,4.9 c-0.1,1.2 -0.6000000000000001,1.1 -1.6,1.3 c-1.1,0.2 -2.2,0.30000000000000004 -3.3,0.30000000000000004 c-4.1,0.1 -8.3,-0.1 -12.4,-0.1 c-4.9,0 -9.8,-0.1 -14.7,-0.30000000000000004 c-1.5,0 -3.9,0.2 -4,-1.8 c-0.1,-1.1 0,-2.2 -0.1,-3.3 c-0.1,-2.4 -0.1,-4.8 0,-7.2 c0.2,-3.5 0.1,-7.1 0.30000000000000004,-10.6 c12,-0.4 23.9,-0.30000000000000004 35.9,0.1 c0,1.7000000000000002 -0.1,3.3 -0.1,5 C50.10000076293946,32.00000152587891 50.400000762939456,35.900001525878906 50.30000076293945,39.800001525878905 z" id="svg_3"/>
	<path class="st1" d="M17.200000762939453,21.400001525878906 c0.7000000000000001,-0.1 1.5,-0.5 1.4,-1.3 c-0.1,-0.7000000000000001 -0.6000000000000001,-1.3 -1.4,-1.3 c-0.7000000000000001,0 -1.3,0.7000000000000001 -1.4,1.4 C15.600000762939452,21.000001525878908 16.400000762939456,21.500001525878908 17.200000762939453,21.400001525878906 zM16.700000762939453,20.200001525878903 c0.1,-0.2 0.2,-0.5 0.5,-0.5 c0.2,0 0.4,0.1 0.5,0.30000000000000004 c0.1,0.4 -0.1,0.4 -0.4,0.5 c-0.2,0 -0.30000000000000004,0 -0.4,0 C16.60000076293946,20.400001525878906 16.60000076293946,20.400001525878906 16.700000762939453,20.200001525878903 z" id="svg_4"/>
	<path class="st1" d="M20.900000762939456,21.400001525878906 c0.8,0.1 1.4,-0.5 1.5,-1.3 c0.1,-0.8 -0.5,-1.4 -1.3,-1.4 c-0.7000000000000001,0 -1.5,0.5 -1.5,1.2 C19.50000076293945,20.700001525878903 20.10000076293946,21.300001525878905 20.900000762939456,21.400001525878906 zM20.400000762939456,19.900001525878906 c0.1,-0.30000000000000004 0.4,-0.4 0.6000000000000001,-0.4 c0.30000000000000004,0 0.5,0.2 0.4,0.5 c0,0.30000000000000004 -0.30000000000000004,0.6000000000000001 -0.6000000000000001,0.5 C20.60000076293946,20.500001525878908 20.400000762939456,20.200001525878903 20.400000762939456,19.900001525878906 z" id="svg_5"/>
	<path class="st1" d="M24.900000762939456,21.300001525878905 c0.7000000000000001,0 1.4,-0.7000000000000001 1.4,-1.4 c0,-0.7000000000000001 -0.7000000000000001,-1.4 -1.4,-1.4 c-0.8,0 -1.4,0.7000000000000001 -1.4,1.5 C23.300000762939447,20.900001525878906 24.10000076293946,21.400001525878906 24.900000762939456,21.300001525878905 zM24.800000762939447,19.400001525878906 c0.6000000000000001,0 0.7000000000000001,0.9 0.1,1 c-0.30000000000000004,0 -0.6000000000000001,-0.1 -0.7000000000000001,-0.30000000000000004 C24.200000762939453,19.800001525878905 24.50000076293945,19.400001525878906 24.800000762939447,19.400001525878906 z" id="svg_6"/>
	<path class="st1" d="M27.200000762939453,27.000001525878908 c-1.2,-1 -2.9,-0.2 -4,0.6000000000000001 c-2.1,1.4 -3.8,3.2 -5.7,4.8 c-3,2.6 0.6000000000000001,5.4 2.7,6.9 c1.4,1 3.1,2.5 4.8,3 c1.1,0.30000000000000004 2.9,-0.1 2.9,-1.5 c0.1,-1.4 -2.1,-2.8 -3,-3.6 c-0.6000000000000001,-0.5 -1.2,-1 -1.8,-1.4 c-0.30000000000000004,-0.2 -0.6000000000000001,-0.4 -0.8,-0.6000000000000001 c-0.6000000000000001,-0.4 -0.8,-0.30000000000000004 -0.5,-0.9 C22.60000076293946,32.800001525878905 30.00000076293945,29.300001525878905 27.200000762939453,27.000001525878908 zM20.700000762939453,35.300001525878905 c0.7000000000000001,0.8 2.1,1.4 2.9,2.1 c0.6000000000000001,0.5 1.2,1.1 1.8,1.7000000000000002 c0.2,0.2 1,0.7000000000000001 1.1,1 c0.5,1.7000000000000002 -0.8,1.5 -1.7000000000000002,1.3 c0.1,-0.1 0.2,-0.1 0.2,-0.2 c0.2,-0.1 0.30000000000000004,-0.4 0.2,-0.6000000000000001 c-0.1,-0.2 -0.4,-0.30000000000000004 -0.6000000000000001,-0.2 c-0.2,0.1 -0.30000000000000004,0.30000000000000004 -0.5,0.4 c-0.1,0 -0.1,0.1 -0.1,0.2 c-0.2,-0.1 -0.4,-0.2 -0.6000000000000001,-0.30000000000000004 c0.1,0 0.1,-0.1 0.2,-0.1 c0.5,-0.30000000000000004 0,-1.1 -0.4,-0.8 c-0.2,0.1 -0.4,0.30000000000000004 -0.5,0.4 c-0.2,-0.1 -0.4,-0.30000000000000004 -0.6000000000000001,-0.5 c0.1,-0.1 0.2,-0.1 0.4,-0.2 c0.5,-0.30000000000000004 0.1,-1 -0.4,-0.8 c-0.2,0.1 -0.5,0.2 -0.7000000000000001,0.4 c-0.1,-0.1 -0.30000000000000004,-0.2 -0.4,-0.30000000000000004 c0.1,0 0.1,-0.1 0.2,-0.1 c0.5,-0.30000000000000004 0.1,-1 -0.4,-0.8 c-0.2,0.1 -0.30000000000000004,0.2 -0.5,0.30000000000000004 c-0.2,-0.2 -0.4,-0.30000000000000004 -0.6000000000000001,-0.5 c0.1,-0.1 0.2,-0.2 0.4,-0.2 c0.2,-0.1 0.30000000000000004,-0.4 0.2,-0.6000000000000001 c-0.1,-0.2 -0.4,-0.30000000000000004 -0.6000000000000001,-0.2 c-0.2,0.1 -0.4,0.30000000000000004 -0.6000000000000001,0.4 c-0.2,-0.1 -0.30000000000000004,-0.30000000000000004 -0.5,-0.4 c0.1,-0.1 0.30000000000000004,-0.2 0.4,-0.30000000000000004 c0.5,-0.30000000000000004 0,-1.1 -0.4,-0.8 c-0.2,0.1 -0.4,0.2 -0.6000000000000001,0.4 c-0.2,-0.30000000000000004 -0.4,-0.6000000000000001 -0.5,-0.9 c0.1,0 0.30000000000000004,0 0.4,0 c0.6000000000000001,0 0.6000000000000001,-0.9 0,-0.9 c-0.2,0 -0.30000000000000004,0 -0.5,0 c0.1,-0.30000000000000004 0.2,-0.5 0.4,-0.8 c0.2,0.2 0.30000000000000004,0.30000000000000004 0.5,0.5 c0.2,0.1 0.5,0 0.6000000000000001,-0.2 c0.1,-0.2 0,-0.5 -0.2,-0.6000000000000001 c0.1,0.1 -0.1,-0.1 -0.1,-0.1 c-0.1,-0.1 -0.1,-0.1 -0.2,-0.2 c0,0 -0.1,-0.1 -0.1,-0.1 c0.1,-0.1 0.30000000000000004,-0.2 0.4,-0.4 c0.2,0.2 0.30000000000000004,0.30000000000000004 0.5,0.5 c0.1,0.2 0.5,0.2 0.6000000000000001,0 c0.2,-0.2 0.1,-0.4 0,-0.6000000000000001 c-0.1,-0.2 -0.30000000000000004,-0.30000000000000004 -0.4,-0.5 c0.2,-0.2 0.4,-0.4 0.6000000000000001,-0.6000000000000001 c0.2,0.1 0.30000000000000004,0.30000000000000004 0.5,0.5 c0.4,0.4 1,-0.2 0.6000000000000001,-0.6000000000000001 c-0.1,-0.1 -0.30000000000000004,-0.30000000000000004 -0.5,-0.4 c0.2,-0.2 0.5,-0.4 0.7000000000000001,-0.6000000000000001 c0.2,0.2 0.30000000000000004,0.4 0.5,0.5 c0.4,0.4 1,-0.2 0.6000000000000001,-0.6000000000000001 c-0.1,-0.2 -0.30000000000000004,-0.30000000000000004 -0.4,-0.5 c0.1,-0.1 0.2,-0.2 0.30000000000000004,-0.30000000000000004 c0.2,-0.1 0.30000000000000004,-0.2 0.5,-0.4 c0.1,0.1 0.2,0.2 0.2,0.30000000000000004 c0.1,0.2 0.4,0.30000000000000004 0.6000000000000001,0.2 c0.2,-0.1 0.30000000000000004,-0.4 0.2,-0.6000000000000001 c-0.1,-0.1 -0.2,-0.30000000000000004 -0.30000000000000004,-0.4 c0.2,-0.1 0.4,-0.30000000000000004 0.6000000000000001,-0.4 c0,0 0,0 0,0 c0.1,0.1 0.30000000000000004,0.30000000000000004 0.4,0.4 c0.4,0.4 1,-0.2 0.6000000000000001,-0.6000000000000001 c-0.1,-0.1 -0.1,-0.1 -0.2,-0.2 c0.5,-0.2 1,-0.2 1.4,0.5 c0.5,0.9 0,1.1 -0.6000000000000001,1.7000000000000002 c-1.5,1.5 -3.3,2.5 -4.8,4 C20.50000076293945,34.2000015258789 20.200000762939453,34.7000015258789 20.700000762939453,35.300001525878905 z" id="svg_7"/>
	<path class="st1" d="M44.00000076293945,29.700001525878903 c-1.4,-1 -3.1,-2.5 -4.8,-3 c-1.1,-0.30000000000000004 -2.9,0.1 -2.9,1.5 c-0.1,1.4 2.1,2.8 3,3.6 c0.6000000000000001,0.5 1.2,1 1.8,1.4 c0.30000000000000004,0.2 0.6000000000000001,0.4 0.8,0.6000000000000001 c0.6000000000000001,0.4 0.8,0.30000000000000004 0.5,0.9 c-0.9,1.5 -8.3,5 -5.5,7.3 c1.2,1 2.9,0.2 4,-0.6000000000000001 c2.1,-1.4 3.8,-3.2 5.7,-4.8 C49.70000076293945,34.00000152587891 46.10000076293946,31.200001525878903 44.00000076293945,29.700001525878903 zM46.10000076293946,36.00000152587891 c-1.5,1.2 -2.8,2.6 -4.3,3.7 c-0.7000000000000001,0.5 -1.3,1.1 -2,1.5 c-0.8,0.4 -1.5,0.7000000000000001 -2,-0.2 c-0.2,-0.4 -0.2,-0.6000000000000001 -0.1,-0.8 c0.2,0.2 0.4,0.30000000000000004 0.6000000000000001,0.5 c0.2,0.1 0.5,0 0.6000000000000001,-0.2 c0.1,-0.2 0,-0.5 -0.2,-0.6000000000000001 c-0.2,-0.1 -0.4,-0.30000000000000004 -0.5,-0.4 c0.1,-0.1 0.1,-0.1 0.2,-0.2 c0.1,-0.1 0.30000000000000004,-0.30000000000000004 0.4,-0.4 c0.2,0.2 0.4,0.4 0.6000000000000001,0.6000000000000001 c0.2,0.2 0.4,0.2 0.6000000000000001,0 c0.2,-0.2 0.2,-0.5 0,-0.6000000000000001 c-0.2,-0.2 -0.30000000000000004,-0.30000000000000004 -0.5,-0.5 c0.2,-0.2 0.4,-0.30000000000000004 0.6000000000000001,-0.5 c0.2,0.2 0.4,0.5 0.6000000000000001,0.7000000000000001 c0.4,0.4 1,-0.2 0.6000000000000001,-0.6000000000000001 c-0.2,-0.2 -0.30000000000000004,-0.4 -0.5,-0.6000000000000001 c0.2,-0.1 0.4,-0.30000000000000004 0.5,-0.4 c0.2,0.2 0.30000000000000004,0.30000000000000004 0.5,0.5 c0.2,0.2 0.5,0.2 0.6000000000000001,0 c0.2,-0.2 0.2,-0.4 0,-0.6000000000000001 c-0.1,-0.1 -0.2,-0.30000000000000004 -0.4,-0.4 c0.2,-0.2 0.5,-0.4 0.7000000000000001,-0.6000000000000001 c0.1,0.1 0.2,0.2 0.30000000000000004,0.30000000000000004 c0.4,0.4 1,-0.2 0.6000000000000001,-0.6000000000000001 c-0.1,-0.1 -0.2,-0.2 -0.30000000000000004,-0.30000000000000004 c0.2,-0.2 0.30000000000000004,-0.4 0.30000000000000004,-0.5 c0.2,0 0.4,0 0.5,0 c0.2,0 0.4,-0.2 0.4,-0.4 c0,-0.30000000000000004 -0.2,-0.4 -0.4,-0.4 c-0.30000000000000004,0 -0.5,0 -0.8,0 c0,0 0,0 0,0 c-0.1,-0.1 -0.30000000000000004,-0.30000000000000004 -0.4,-0.4 c0.1,-0.1 0.30000000000000004,-0.1 0.4,-0.2 c0.2,-0.1 0.30000000000000004,-0.4 0.2,-0.6000000000000001 c-0.1,-0.2 -0.4,-0.30000000000000004 -0.6000000000000001,-0.2 c-0.30000000000000004,0.1 -0.5,0.30000000000000004 -0.8,0.4 c-0.1,-0.1 -0.30000000000000004,-0.2 -0.4,-0.30000000000000004 c0.1,-0.1 0.2,-0.1 0.4,-0.2 c0.2,-0.1 0.30000000000000004,-0.4 0.2,-0.6000000000000001 c-0.1,-0.2 -0.4,-0.30000000000000004 -0.6000000000000001,-0.2 c-0.2,0.1 -0.5,0.2 -0.7000000000000001,0.4 c0,0 0,0 -0.1,0 c-0.1,-0.1 -0.30000000000000004,-0.2 -0.4,-0.30000000000000004 c-0.1,0 -0.1,-0.1 -0.2,-0.1 c0.2,-0.1 0.30000000000000004,-0.2 0.5,-0.30000000000000004 c0.2,-0.1 0.30000000000000004,-0.4 0.2,-0.6000000000000001 c-0.1,-0.2 -0.4,-0.30000000000000004 -0.6000000000000001,-0.2 c-0.30000000000000004,0.1 -0.5,0.30000000000000004 -0.8,0.4 c-0.2,-0.2 -0.30000000000000004,-0.30000000000000004 -0.5,-0.5 c0.1,-0.1 0.2,-0.1 0.30000000000000004,-0.2 c0.2,-0.1 0.4,-0.30000000000000004 0.30000000000000004,-0.5 c-0.1,-0.2 -0.30000000000000004,-0.4 -0.5,-0.30000000000000004 c-0.30000000000000004,0.1 -0.5,0.2 -0.7000000000000001,0.4 c-0.1,-0.1 -0.30000000000000004,-0.2 -0.4,-0.30000000000000004 c0.1,-0.1 0.2,-0.2 0.4,-0.2 c0.5,-0.30000000000000004 0.1,-1 -0.4,-0.8 c-0.2,0.1 -0.30000000000000004,0.2 -0.4,0.30000000000000004 c-0.4,-1.6 1.1,-1.4 1.8,-1.1 c1.6,0.6000000000000001 3.1,1.9 4.4,2.9 C45.30000076293945,31.800001525878905 48.50000076293945,33.900001525878906 46.10000076293946,36.00000152587891 z" id="svg_8"/>
	<path class="st1" d="M33.20000076293945,26.500001525878908 c-1.3,0 -1.7000000000000002,1.1 -2,2.2 c-0.8,2.4 -1.4,4.9 -1.9,7.4 c-0.2,1.3 -1.9,6.9 1.1,6.5 c1.2,-0.1 1.9,-1.4 2.3,-2.3 c0.8,-2.1 1.2,-4.4 1.6,-6.5 c0.2,-1.1 0.4,-2.1 0.6000000000000001,-3.2 c0.1,-0.7000000000000001 0.5,-1.7000000000000002 0.4,-2.4 C35.20000076293945,27.000001525878908 34.30000076293945,26.500001525878908 33.20000076293945,26.500001525878908 zM33.20000076293945,34.7000015258789 c-0.2,1 -0.5,1.9 -0.7000000000000001,2.9 c-0.30000000000000004,1.2 -0.6000000000000001,3.6 -2.1,3.6 c-0.8,0 -0.9,-0.1 -0.8,-0.6000000000000001 c0.1,0 0.2,0.1 0.30000000000000004,0.1 c0.2,0.1 0.5,-0.1 0.5,-0.30000000000000004 c0.1,-0.2 -0.1,-0.5 -0.30000000000000004,-0.5 c-0.2,-0.1 -0.30000000000000004,-0.1 -0.5,-0.1 c0,-0.2 0,-0.30000000000000004 0.1,-0.5 c0.2,0 0.4,0.1 0.6000000000000001,0.1 c0.6000000000000001,0 0.6000000000000001,-0.9 0,-0.9 c-0.2,0 -0.30000000000000004,0 -0.5,-0.1 c0,-0.1 0,-0.2 0,-0.30000000000000004 c0,0 0,-0.1 0,-0.1 c0.2,0 0.4,0.1 0.6000000000000001,0.1 c0.6000000000000001,0.1 0.8,-0.7000000000000001 0.2,-0.9 c-0.2,-0.1 -0.4,-0.1 -0.7000000000000001,-0.1 c0,-0.30000000000000004 0.1,-0.5 0.1,-0.8 c0.30000000000000004,0 0.5,0.1 0.7000000000000001,0.2 c0.2,0.1 0.5,-0.1 0.5,-0.30000000000000004 c0.1,-0.2 -0.1,-0.5 -0.30000000000000004,-0.5 c-0.30000000000000004,-0.1 -0.5,-0.2 -0.8,-0.2 c0,-0.2 0.1,-0.4 0.1,-0.6000000000000001 c0.2,0 0.4,0.1 0.6000000000000001,0.1 c0.6000000000000001,0.1 0.8,-0.7000000000000001 0.2,-0.9 c-0.2,-0.1 -0.4,-0.1 -0.7000000000000001,-0.2 c0,-0.2 0.1,-0.4 0.1,-0.6000000000000001 c0.1,0 0.30000000000000004,0.1 0.4,0.1 c0.6000000000000001,0.1 0.8,-0.7000000000000001 0.2,-0.9 c-0.2,0 -0.30000000000000004,-0.1 -0.5,-0.1 c0,-0.1 0,-0.2 0.1,-0.30000000000000004 c0.2,0.1 0.5,0.1 0.7000000000000001,0.2 c0.2,0 0.5,-0.1 0.5,-0.30000000000000004 c0.1,-0.2 -0.1,-0.5 -0.30000000000000004,-0.5 c-0.30000000000000004,-0.1 -0.5,-0.1 -0.8,-0.2 c0,-0.2 0.1,-0.4 0.1,-0.5 c0.2,0 0.30000000000000004,0.1 0.5,0.1 c0.5,0.1 0.8,-0.7000000000000001 0.2,-0.9 c-0.2,0 -0.30000000000000004,-0.1 -0.5,-0.1 c0,-0.1 0.1,-0.2 0.1,-0.30000000000000004 c0.2,0 0.30000000000000004,0.1 0.5,0.1 c0.2,0.1 0.5,-0.1 0.5,-0.30000000000000004 c0.1,-0.2 -0.1,-0.5 -0.30000000000000004,-0.5 c-0.1,0 -0.30000000000000004,-0.1 -0.4,-0.1 c0.1,-0.1 0.1,-0.30000000000000004 0.2,-0.4 c0.1,0.1 0.30000000000000004,0.1 0.4,0.1 c0.2,0 0.5,-0.1 0.5,-0.30000000000000004 c0.1,-0.2 -0.1,-0.5 -0.30000000000000004,-0.5 c-0.1,0 -0.1,0 -0.1,0 c0.2,-0.2 0.30000000000000004,-0.2 0.5,-0.2 C35.30000076293945,27.500001525878908 33.400000762939456,33.7000015258789 33.20000076293945,34.7000015258789 z" id="svg_9"/>
</g></g></svg>